<svg fill="none" xmlns="http://www.w3.org/2000/svg" viewBox="0 0 16 16"><path d="M2.496 7.6a.634.634 0 000 .79c.46.576.928 1.191 1.485 1.748.557.558 1.173 1.025 1.75 1.485.23.185.56.185.79 0 .573-.46 1.182-.93 1.737-1.484.555-.555 1.024-1.164 1.485-1.738a.634.634 0 000-.79c-.46-.577-.928-1.192-1.485-1.75-.557-.557-1.173-1.024-1.75-1.484a.634.634 0 00-.79 0c-.573.46-1.182.93-1.737 1.484-.555.555-1.025 1.164-1.485 1.738zM4.119 8h4M6.119 6v4" stroke="currentColor" stroke-linecap="round" stroke-linejoin="round"/><path d="M8.016 5.598c.478-.443.984-.836 1.464-1.221a.634.634 0 01.79 0c.576.46 1.192.927 1.75 1.484.557.558 1.024 1.173 1.484 1.75a.633.633 0 010 .79c-.46.574-.93 1.183-1.484 1.738-.555.554-1.164 1.024-1.738 1.484a.633.633 0 01-.79 0c-.464-.37-.953-.744-1.416-1.167" stroke="currentColor" stroke-linecap="round" stroke-linejoin="round"/></svg>