<svg fill="none" xmlns="http://www.w3.org/2000/svg" viewBox="0 0 16 16"><path d="M6.313 2.607c0 1.097.617 1.714 1.714 1.714 1.098 0 1.715-.617 1.715-1.714S9.125.893 8.027.893c-1.097 0-1.714.617-1.714 1.714zM6.313 8c0 1.097.617 1.714 1.714 1.714 1.098 0 1.715-.617 1.715-1.714s-.617-1.714-1.715-1.714c-1.097 0-1.714.617-1.714 1.714zM6.313 13.393c0 1.097.617 1.714 1.714 1.714 1.098 0 1.715-.617 1.715-1.714s-.617-1.714-1.715-1.714c-1.097 0-1.714.617-1.714 1.714z" stroke="currentColor" stroke-linecap="round" stroke-linejoin="round"/></svg>