<svg fill="none" xmlns="http://www.w3.org/2000/svg" viewBox="0 0 16 17"><g clip-path="url(#clip0_2567_1431)" stroke="currentColor" stroke-linecap="round" stroke-linejoin="round"><path d="M4.611 7.971h6.857M4.611 11.4H8.04m-6.671 1.129c.184 1.645 1.521 2.95 3.175 3.03 1.143.055 2.31.084 3.577.084s2.434-.029 3.577-.083c1.654-.08 2.99-1.387 3.175-3.031.124-1.109.226-2.244.226-3.4 0-1.158-.103-2.293-.226-3.401-.184-1.646-1.521-2.951-3.175-3.031a73.858 73.858 0 00-3.577-.084 73.86 73.86 0 00-3.577.084c-1.654.08-2.991 1.386-3.175 3.03-.125 1.11-.226 2.244-.226 3.402 0 1.156.102 2.292.226 3.4zM4.86 1.357v2.857m6.283-2.857v2.857"/></g><defs><clipPath id="clip0_2567_1431"><path fill="currentColor" transform="translate(0 .5)" d="M0 0h16v16H0z"/></clipPath></defs></svg>