<svg fill="none" xmlns="http://www.w3.org/2000/svg" viewBox="0 0 16 16"><g clip-path="url(#clip0_2554_5699)" stroke="currentColor" stroke-linecap="round" stroke-linejoin="round"><path d="M8 6.857V12M5.429 9.429h5.142M1.097 11.735a3.58 3.58 0 003.146 3.154c1.223.137 2.477.254 3.757.254 1.28 0 2.535-.117 3.757-.254a3.58 3.58 0 003.146-3.154c.13-1.215.24-2.463.24-3.735 0-1.272-.11-2.52-.24-3.736a3.58 3.58 0 00-3.146-3.154C10.534.975 9.28.857 8 .857c-1.28 0-2.535.117-3.757.254a3.58 3.58 0 00-3.146 3.154C.967 5.48.857 6.727.857 8c0 1.273.11 2.52.24 3.735z"/><path d="M14.935 4.571H1.065l.032-.307A3.58 3.58 0 014.243 1.11C5.466.975 6.72.857 8 .857c1.28 0 2.535.117 3.757.254a3.58 3.58 0 013.146 3.154c.011.102.023.204.032.306z"/></g><defs><clipPath id="clip0_2554_5699"><path fill="currentColor" d="M0 0h16v16H0z"/></clipPath></defs></svg>