<svg viewBox="0 0 16 16" fill="none" xmlns="http://www.w3.org/2000/svg">
<g clip-path="url(#clip0_4360_52000)">
<path fill-rule="evenodd" clip-rule="evenodd" d="M9.83135 0.365723C10.5163 0.365723 11.0786 0.672674 11.5866 1.18074L11.6724 1.2665C11.8914 1.48454 11.9556 1.76956 11.9305 2.01471C11.906 2.25292 11.7977 2.48233 11.6285 2.65505C11.4132 2.88433 11.2952 3.18828 11.2995 3.50291C11.3038 3.81908 11.4313 4.12109 11.6548 4.34474C11.8783 4.56838 12.1803 4.696 12.4965 4.70047C12.811 4.70492 13.1148 4.58717 13.3442 4.37214C13.6563 4.06613 14.2895 3.88636 14.7318 4.32594L14.7353 4.32936L14.8188 4.41411L14.82 4.41525C15.3271 4.92342 15.6336 5.48524 15.6336 6.16958C15.6336 6.82239 15.3526 7.50381 14.892 8.25962C14.8864 8.26885 14.8805 8.2779 14.8743 8.28675L14.5355 8.76927C14.4144 8.94245 14.2911 9.11389 14.1656 9.28354C13.8917 9.08794 13.5885 8.93083 13.2638 8.82012C13.4179 8.61498 13.5686 8.40706 13.7158 8.19646L14.0464 7.72557C14.4711 7.0259 14.6336 6.5415 14.6336 6.16958C14.6336 5.82729 14.4949 5.50487 14.1113 5.12076L14.1092 5.11865L14.0635 5.07237C14.0554 5.07658 14.049 5.08148 14.0449 5.08556L14.035 5.09548C13.616 5.49161 13.0589 5.70853 12.4823 5.70037C11.9058 5.69222 11.3552 5.45949 10.9475 5.05168C10.5399 4.64386 10.3074 4.09313 10.2996 3.51658C10.2917 2.94003 10.509 2.38314 10.9053 1.96434L10.9137 1.95544C10.9182 1.95098 10.9234 1.94441 10.9277 1.93606L10.8795 1.88785C10.4962 1.50449 10.1738 1.36572 9.83135 1.36572C9.45919 1.36572 8.97437 1.52839 8.27459 1.95315L7.80431 2.28224C5.65483 3.78428 3.78609 5.65293 2.28406 7.80241L2.28342 7.80332L1.95344 8.2733C1.52878 8.97297 1.36621 9.45738 1.36621 9.82929C1.36621 10.1716 1.50495 10.494 1.88856 10.8781L1.89068 10.8802L1.93634 10.9265C1.94319 10.923 1.94878 10.9189 1.95281 10.9153C2.15474 10.704 2.39654 10.5348 2.66427 10.4173C2.93531 10.2985 3.22744 10.2351 3.52337 10.2311C3.81931 10.227 4.11306 10.2824 4.38725 10.3938C4.66144 10.5052 4.91051 10.6705 5.11975 10.8798C5.32898 11.0891 5.49412 11.3383 5.60541 11.6125C5.7167 11.8868 5.77189 12.1805 5.7677 12.4765C5.76352 12.7724 5.70005 13.0645 5.58105 13.3355C5.46353 13.6031 5.29421 13.8448 5.08289 14.0466C5.07935 14.0505 5.07533 14.0561 5.07176 14.0631L5.11799 14.1087L5.12034 14.111C5.5037 14.4944 5.82604 14.6331 6.1685 14.6331C6.54066 14.6331 7.02547 14.4705 7.72525 14.0457L8.19554 13.7166C8.40648 13.5692 8.61471 13.4183 8.82016 13.2639C8.93089 13.5886 9.08802 13.8919 9.28363 14.1657C9.11382 14.2914 8.94222 14.4148 8.76888 14.536L8.28545 14.8742C8.27681 14.8803 8.26797 14.8861 8.25897 14.8915C7.50308 15.3522 6.8214 15.6331 6.1685 15.6331C5.48407 15.6331 4.92219 15.3267 4.41444 14.8193L4.41323 14.8181L4.32872 14.7348L4.32637 14.7324C4.10783 14.5139 4.04429 14.2293 4.06938 13.984C4.094 13.7433 4.2043 13.5108 4.3778 13.3373L4.38772 13.3274C4.50566 13.2159 4.60018 13.082 4.66544 12.9334C4.7307 12.7848 4.76551 12.6246 4.7678 12.4623C4.7701 12.3 4.73984 12.1389 4.6788 11.9886C4.61777 11.8382 4.52721 11.7015 4.41247 11.5867C4.29773 11.4719 4.16114 11.3813 4.01078 11.3202C3.86042 11.2591 3.69933 11.2288 3.53704 11.231C3.37475 11.2332 3.21455 11.2679 3.06592 11.3331C2.91728 11.3983 2.78322 11.4926 2.67166 11.6105L2.66218 11.6206C2.35235 11.9304 1.71336 12.1155 1.26803 11.6729L1.26459 11.6695L1.181 11.5848L1.17989 11.5836C0.672734 11.0755 0.366211 10.5136 0.366211 9.82929C0.366211 9.17649 0.647236 8.49507 1.10781 7.73925C1.11344 7.73002 1.11936 7.72097 1.12558 7.71212L1.46436 7.22961C3.03353 4.98417 4.98577 3.03185 7.23124 1.46273L7.7144 1.12463C7.72304 1.11859 7.73188 1.11281 7.74088 1.10732C8.49677 0.646704 9.17845 0.365723 9.83135 0.365723Z" fill="#92A1B1"/>
<path fill-rule="evenodd" clip-rule="evenodd" d="M12.1338 8.88574C12.4099 8.88574 12.6338 9.1096 12.6338 9.38574V14.8806C12.6338 15.1567 12.4099 15.3806 12.1338 15.3806C11.8576 15.3806 11.6338 15.1567 11.6338 14.8806V9.38574C11.6338 9.1096 11.8576 8.88574 12.1338 8.88574Z" fill="#92A1B1"/>
<path fill-rule="evenodd" clip-rule="evenodd" d="M8.88672 12.1333C8.88672 11.8572 9.11058 11.6333 9.38672 11.6333H14.8816C15.1577 11.6333 15.3816 11.8572 15.3816 12.1333C15.3816 12.4094 15.1577 12.6333 14.8816 12.6333H9.38672C9.11058 12.6333 8.88672 12.4094 8.88672 12.1333Z" fill="#92A1B1"/>
</g>
<defs>
<clipPath id="clip0_4360_52000">
<rect width="16" height="16" fill="white"/>
</clipPath>
</defs>
</svg>
