<svg fill="none" xmlns="http://www.w3.org/2000/svg" viewBox="0 0 16 16"><g clip-path="url(#clip0_2554_5739)" stroke="currentColor" stroke-linecap="round" stroke-linejoin="round"><path d="M7.1 9.088a8.187 8.187 0 00-5.539 1.317c-1.454.968-.472 2.834 1.274 2.834h2.892M6.117 6.8c1.902 0 2.971-1.069 2.971-2.971 0-1.902-1.069-2.972-2.971-2.972-1.902 0-2.972 1.07-2.972 2.972S4.215 6.8 6.117 6.8zM11.77 9.262a.457.457 0 01.846 0l.643 1.568 1.742.153a.456.456 0 01.25.809l-1.063.873a.457.457 0 00-.156.45l.347 1.613a.458.458 0 01-.701.477l-1.485-.992-1.483.992a.457.457 0 01-.702-.477l.347-1.611a.457.457 0 00-.156-.452l-1.063-.873a.457.457 0 01.251-.81l1.74-.152.643-1.568z"/></g><defs><clipPath id="clip0_2554_5739"><path fill="currentColor" d="M0 0h16v16H0z"/></clipPath></defs></svg>