<svg fill="none" xmlns="http://www.w3.org/2000/svg" viewBox="0 0 16 17"><g clip-path="url(#clip0_2567_1470)"><path d="M1.097 4.764c.02-.183.248-.229.355-.077l1.763 2.551a1.143 1.143 0 001.951-.115L7.76 2.214a.27.27 0 01.48 0l2.595 4.908a1.142 1.142 0 001.95.115l1.764-2.55c.106-.153.335-.108.354.076.13 1.216.24 2.464.24 3.736 0 1.272-.11 2.52-.24 3.735a3.58 3.58 0 01-3.146 3.154c-1.223.137-2.477.254-3.757.254-1.28 0-2.535-.117-3.756-.254a3.58 3.58 0 01-3.147-3.154C.967 11.02.857 9.773.857 8.5c0-1.273.11-2.52.24-3.736z" stroke="currentColor" stroke-linecap="round" stroke-linejoin="round"/></g><defs><clipPath id="clip0_2567_1470"><path fill="currentColor" transform="translate(0 .5)" d="M0 0h16v16H0z"/></clipPath></defs></svg>