<svg fill="none" xmlns="http://www.w3.org/2000/svg" viewBox="0 0 16 16"><g clip-path="url(#clip0_2554_5748)" stroke="currentColor" stroke-linecap="round" stroke-linejoin="round"><path d="M12.204 6.005a70.966 70.966 0 00-.17-3.74 1.12 1.12 0 00-.95-1.03C9.498.996 8.188.87 6.607.87c-1.58 0-2.892.125-4.477.365a1.12 1.12 0 00-.948 1.029 68.617 68.617 0 00-.006 9.898 1.118 1.118 0 001.022 1.037c1.302.11 2.556.171 3.805.187M4.429 4.87h4.357M4.429 8.031h2.628M15.357 15.36L14 14.003"/><path d="M11.643 14.789c2.012 0 3.143-1.132 3.143-3.143 0-2.012-1.131-3.143-3.143-3.143-2.011 0-3.142 1.131-3.142 3.143 0 2.011 1.131 3.143 3.143 3.143z"/></g><defs><clipPath id="clip0_2554_5748"><path fill="currentColor" d="M0 0h16v16H0z"/></clipPath></defs></svg>