<svg viewBox="0 0 16 16" fill="none" xmlns="http://www.w3.org/2000/svg">
    <g clip-path="url(#clip0_337_19116)">
        <path
            d="M1.09937 11.7351C1.19013 12.5391 1.55059 13.2886 2.12196 13.8614C2.69334 14.4343 3.44193 14.7966 4.24566 14.8894C5.46852 15.0266 6.72223 15.1431 8.00223 15.1431C9.28223 15.1431 10.5371 15.0266 11.7588 14.8894C12.5625 14.7966 13.3111 14.4343 13.8825 13.8614C14.4539 13.2886 14.8143 12.5391 14.9051 11.7351C15.0354 10.5203 15.1451 9.27228 15.1451 8.00028C15.1451 6.72828 15.0354 5.48028 14.9051 4.26428C14.8143 3.46031 14.4539 2.7108 13.8825 2.13798C13.3111 1.56515 12.5625 1.20279 11.7588 1.10999C10.5359 0.975136 9.28223 0.857422 8.00223 0.857422C6.72223 0.857422 5.46737 0.973993 4.24566 1.11114C3.44193 1.20393 2.69334 1.56629 2.12196 2.13912C1.55059 2.71195 1.19013 3.46145 1.09937 4.26542C0.969089 5.47914 0.859375 6.72714 0.859375 8.00028C0.859375 9.27342 0.969089 10.5203 1.09937 11.7351Z"
            stroke="currentColor" stroke-linecap="round" stroke-linejoin="round" />
        <path d="M3.30348 10.6476L6.17802 10.6632L7.34788 4.00049L8.51558 10.6476L10.2033 10.6632L13.1987 10.6476"
            stroke="currentColor" stroke-linecap="round" stroke-linejoin="round" />
    </g>
</svg>