<svg fill="none" xmlns="http://www.w3.org/2000/svg" viewBox="0 0 16 16"><path d="M2.349 5.997a21.45 21.45 0 00-.09 7.657 1.123 1.123 0 001.021.92c1.51.132 3.091.31 4.72.31 1.59-.006 3.178-.1 4.757-.282a1.105 1.105 0 00.971-.917c.19-1.157.317-2.356.317-3.596a21.81 21.81 0 00-.397-4.091M6.352 9.269h3.296M1.113 5.294c.149.405.56.636.993.628 3.857-.066 7.767.002 11.777.012.438.002.849-.244.997-.654.167-.437.256-.9.263-1.368 0-.492-.1-.972-.276-1.434-.142-.376-.514-.603-.916-.62-3.972-.192-7.951-.192-11.924 0-.39.017-.753.232-.894.597-.181.468-.276.959-.276 1.457 0 .474.092.934.256 1.382z" stroke="currentColor" stroke-linecap="round" stroke-linejoin="round"/></svg>