<svg fill="none" xmlns="http://www.w3.org/2000/svg" viewBox="0 0 16 16"><path d="M8 6.073V4M8 6.073c-1.441 0-2.945 0-4.224.224a1.767 1.767 0 00-1.414 1.376c-.178.828-.178 1.509-.178 2.899 0 1.388 0 2.07.178 2.898a1.766 1.766 0 001.414 1.376c1.279.224 2.783.224 4.224.224 1.441 0 2.945 0 4.224-.224a1.765 1.765 0 001.412-1.376c.18-.828.18-1.509.18-2.899 0-1.388 0-2.07-.18-2.898a1.765 1.765 0 00-1.412-1.376C10.945 6.073 9.44 6.073 8 6.073zM8 3.978c.994 0 1.553-.558 1.553-1.553 0-.994-.56-1.553-1.554-1.553-.995 0-1.552.56-1.552 1.554 0 .995.559 1.552 1.553 1.552zM5.905 9.333v-.624M10.095 9.333v-.624" stroke="currentColor" stroke-linecap="round" stroke-linejoin="round"/><path d="M5.758 11.397s.617 1.12 2.242 1.12 2.243-1.12 2.243-1.12" stroke="currentColor" stroke-linecap="round" stroke-linejoin="round"/></svg>