<svg fill="none" xmlns="http://www.w3.org/2000/svg" viewBox="0 0 16 16"><path d="M8 9.946c1.246 0 1.946-.7 1.946-1.946S9.246 6.054 8 6.054 6.054 6.754 6.054 8 6.754 9.946 8 9.946zM14 9.143c.732 0 1.143-.412 1.143-1.143 0-.731-.412-1.143-1.143-1.143-.731 0-1.143.412-1.143 1.143 0 .731.412 1.143 1.143 1.143zM2 9.143c.731 0 1.143-.412 1.143-1.143 0-.731-.412-1.143-1.143-1.143C1.269 6.857.857 7.27.857 8c0 .731.412 1.143 1.143 1.143z" stroke="currentColor" stroke-linecap="round" stroke-linejoin="round"/></svg>