<svg fill="none" xmlns="http://www.w3.org/2000/svg" viewBox="0 0 16 17"><g clip-path="url(#clip0_2567_1376)" stroke="currentColor" stroke-linecap="round" stroke-linejoin="round"><path d="M.571 1.072L4.84 5.339m.376-2.414c.194.867.17 1.885-.08 2.686-.79.281-1.806.346-2.679.187m12.97-4.726l-4.268 4.267m-.376-2.414c-.194.867-.172 1.885.079 2.686.79.281 1.805.346 2.68.187M.571 15.886L4.84 11.62m.376 2.412c.194-.866.17-1.884-.08-2.685-.79-.281-1.806-.346-2.679-.187m12.97 4.726l-4.268-4.266m-.376 2.412c-.194-.866-.172-1.884.079-2.685.79-.281 1.805-.346 2.68-.187M7.97 10.154c1.078 0 1.683-.606 1.683-1.684 0-1.077-.605-1.684-1.683-1.684s-1.685.606-1.685 1.684c0 1.078.606 1.684 1.685 1.684z"/></g><defs><clipPath id="clip0_2567_1376"><path fill="currentColor" transform="translate(0 .5)" d="M0 0h16v16H0z"/></clipPath></defs></svg>