<svg viewBox="0 0 24 24" fill="none" xmlns="http://www.w3.org/2000/svg"><path d="M8.5824 9.56561C9.55527 10.8997 12.2654 11.6422 12.2654 11.6422C12.2654 11.6422 14.5131 10.7228 15.4359 9.56561M8.5824 9.56561C7.71745 8.37947 7.64251 5.92591 7.64251 5.92591M8.5824 9.56561L6.55099 10.0396L4.23047 15.7177L4.92652 17.0422M7.64251 5.92591C7.64251 5.92591 9.11591 0.316686 12.2654 0.477515C15.3066 0.632815 16.6899 5.92591 16.6899 5.92591M7.64251 5.92591C7.64251 5.92591 8.46086 5.4949 9.502 5.10544M16.6899 5.92591C16.6899 5.92591 16.275 8.51358 15.4359 9.56561M16.6899 5.92591C16.6899 5.92591 15.6717 5.46025 14.7955 5.10544M15.4359 9.56561L17.568 10.0396L19.7711 15.7177L18.9974 17.0422M9.502 5.10544C10.3756 4.77864 11.403 4.4811 12.2654 4.492C13.1755 4.5035 13.9155 4.74907 14.7955 5.10544M9.502 5.10544C9.502 5.10544 10.1894 8.98315 12.0493 9.144C13.9987 9.31258 14.7955 5.10544 14.7955 5.10544" stroke="currentColor" stroke-width="0.75" stroke-linecap="round" stroke-linejoin="round"/><path d="M5.20544 21.1991V12.5051H18.7227V21.1991M5.20544 21.1991H18.7227M5.20544 21.1991H4.48633V23.526H19.3993V21.1991H18.7227" stroke="currentColor" stroke-width="0.75" stroke-linejoin="round"/><path d="M10.9978 14.1841C10.78 14.392 10.6294 14.6604 10.5656 14.9547C10.5017 15.2489 10.5274 15.5556 10.6394 15.8351C10.7514 16.1146 10.9445 16.3542 11.1939 16.5229C11.4433 16.6917 11.7376 16.7819 12.0387 16.7819C12.3398 16.7819 12.634 16.6917 12.8834 16.5229C13.1328 16.3542 13.326 16.1146 13.438 15.8351C13.55 15.5556 13.5757 15.2489 13.5118 14.9547C13.4479 14.6604 13.2974 14.392 13.0796 14.1841" stroke="currentColor" stroke-width="0.75" stroke-linecap="round" stroke-linejoin="round"/><path d="M9.76891 19.2065C10.0261 19.3632 10.3243 19.4392 10.6251 19.4248C10.9259 19.4104 11.2154 19.3062 11.4565 19.1257C11.6975 18.9452 11.879 18.6967 11.9775 18.4121C12.076 18.1276 12.087 17.82 12.0091 17.5292C11.9312 17.2383 11.768 16.9774 11.5405 16.7801C11.313 16.5829 11.0316 16.4583 10.7326 16.4224C10.4336 16.3865 10.1308 16.441 9.86303 16.5788C9.5953 16.7166 9.37498 16.9315 9.23047 17.1956" stroke="currentColor" stroke-width="0.75" stroke-linecap="round" stroke-linejoin="round"/><path d="M14.3517 19.2065C14.0945 19.3631 13.7962 19.439 13.4955 19.4245C13.1947 19.41 12.9052 19.3058 12.6642 19.1252C12.4232 18.9447 12.2418 18.6961 12.1434 18.4116C12.0449 18.127 12.034 17.8194 12.1119 17.5286C12.1899 17.2377 12.3532 16.9769 12.5807 16.7797C12.8083 16.5825 13.0897 16.4579 13.3886 16.4221C13.6876 16.3863 13.9905 16.4408 14.2582 16.5787C14.5259 16.7165 14.7462 16.9314 14.8906 17.1956" stroke="currentColor" stroke-width="0.75" stroke-linecap="round" stroke-linejoin="round"/><path d="M10.6211 16.9226C10.6211 17.1113 10.6583 17.2983 10.7305 17.4727C10.8028 17.6471 10.9086 17.8055 11.0421 17.939C11.1756 18.0725 11.3341 18.1784 11.5085 18.2506C11.6829 18.3228 11.8698 18.36 12.0585 18.36C12.2473 18.36 12.4342 18.3228 12.6086 18.2506C12.783 18.1784 12.9415 18.0725 13.075 17.939C13.2085 17.8055 13.3143 17.6471 13.3866 17.4727C13.4588 17.2983 13.496 17.1113 13.496 16.9226C13.496 16.7338 13.4588 16.5469 13.3866 16.3725C13.3143 16.1981 13.2085 16.0396 13.075 15.9061C12.9415 15.7726 12.783 15.6668 12.6086 15.5945C12.4342 15.5223 12.2473 15.4851 12.0585 15.4851C11.8698 15.4851 11.6829 15.5223 11.5085 15.5945C11.3341 15.6668 11.1756 15.7726 11.0421 15.9061C10.9086 16.0396 10.8028 16.1981 10.7305 16.3725C10.6583 16.5469 10.6211 16.7338 10.6211 16.9226Z" stroke="currentColor" stroke-width="0.75" stroke-linecap="round" stroke-linejoin="round"/></svg>