<svg viewBox="0 0 17 17" fill="none" xmlns="http://www.w3.org/2000/svg"><g clip-path="url(#clip0_2554_4031)" stroke="currentColor" stroke-linecap="round" stroke-linejoin="round"><path d="M1.071 1.072L5.34 5.339m.376-2.414c.194.867.17 1.885-.08 2.686-.79.281-1.806.346-2.679.187m12.97-4.726l-4.268 4.267m-.376-2.414c-.194.867-.171 1.885.079 2.686.79.281 1.806.346 2.68.187M1.071 15.886L5.34 11.62m.376 2.412c.194-.866.17-1.884-.08-2.685-.79-.281-1.806-.346-2.679-.187m12.97 4.726l-4.268-4.266m-.376 2.412c-.194-.866-.171-1.884.079-2.685.79-.281 1.806-.346 2.68-.187M8.47 10.154c1.078 0 1.683-.606 1.683-1.684 0-1.077-.605-1.684-1.683-1.684s-1.685.606-1.685 1.684c0 1.078.606 1.684 1.685 1.684z"/></g><defs><clipPath id="clip0_2554_4031"><path fill="currentColor" transform="translate(.5 .5)" d="M0 0h16v16H0z"/></clipPath></defs></svg>