<svg viewBox="0 0 16 14" fill="none" xmlns="http://www.w3.org/2000/svg">
<path fill-rule="evenodd" clip-rule="evenodd" d="M6.78571 5.94803C6.48261 5.94803 6.19192 6.06844 5.97759 6.28277C5.76327 6.49709 5.64286 6.78779 5.64286 7.09089V8.15375C5.64286 8.45685 5.76326 8.74754 5.97759 8.96187C6.19192 9.1762 6.48261 9.2966 6.78571 9.2966H9.07143C9.37453 9.2966 9.66522 9.1762 9.87955 8.96187C10.0939 8.74754 10.2143 8.45685 10.2143 8.15375V7.09089C10.2143 6.78779 10.0939 6.49709 9.87955 6.28277C9.66522 6.06844 9.37453 5.94803 9.07143 5.94803H6.78571ZM5.16947 5.47465C5.59812 5.04599 6.17951 4.80518 6.78571 4.80518H9.07143C9.67764 4.80518 10.259 5.04599 10.6877 5.47465C11.1163 5.9033 11.3571 6.48468 11.3571 7.09089V8.15375C11.3571 8.75996 11.1163 9.34134 10.6877 9.76999C10.259 10.1986 9.67764 10.4395 9.07143 10.4395H6.78571C6.17951 10.4395 5.59812 10.1986 5.16947 9.76999C4.74082 9.34134 4.5 8.75996 4.5 8.15375V7.09089C4.5 6.48468 4.74082 5.9033 5.16947 5.47465Z" fill="currentColor"/>
<path fill-rule="evenodd" clip-rule="evenodd" d="M7.9308 3.52881C8.24639 3.52881 8.50223 3.78465 8.50223 4.10024V5.37795C8.50223 5.69354 8.24639 5.94938 7.9308 5.94938C7.61521 5.94938 7.35938 5.69354 7.35938 5.37795V4.10024C7.35938 3.78465 7.61521 3.52881 7.9308 3.52881Z" fill="currentColor"/>
<path fill-rule="evenodd" clip-rule="evenodd" d="M6.83705 6.85986C7.15264 6.85986 7.40848 7.1157 7.40848 7.43129V7.81301C7.40848 8.1286 7.15264 8.38443 6.83705 8.38443C6.52146 8.38443 6.26562 8.1286 6.26562 7.81301V7.43129C6.26562 7.1157 6.52146 6.85986 6.83705 6.85986Z" fill="currentColor"/>
<path fill-rule="evenodd" clip-rule="evenodd" d="M9.02455 6.85986C9.34014 6.85986 9.59598 7.1157 9.59598 7.43129V7.81301C9.59598 8.1286 9.34014 8.38443 9.02455 8.38443C8.70896 8.38443 8.45312 8.1286 8.45312 7.81301V7.43129C8.45312 7.1157 8.70896 6.85986 9.02455 6.85986Z" fill="currentColor"/>
<path fill-rule="evenodd" clip-rule="evenodd" d="M0.332007 7.55487C0.603159 7.3934 0.953873 7.48231 1.11535 7.75346C1.24589 7.97267 1.42839 8.15638 1.64674 8.28836C1.81437 8.38968 1.99916 8.45813 2.19124 8.49066C2.34613 8.37267 2.4779 8.2263 2.57923 8.05881C2.71125 7.84061 2.78755 7.59328 2.80139 7.33863C2.81853 7.0235 3.08788 6.78193 3.40301 6.79907C3.71813 6.81621 3.9597 7.08556 3.94257 7.40068C3.91854 7.84258 3.78614 8.27177 3.55705 8.65042C3.32797 9.02906 3.00923 9.34551 2.62895 9.57187C2.53157 9.62983 2.41916 9.65753 2.306 9.65145C1.8639 9.62768 1.43444 9.49545 1.05554 9.26642C0.676645 9.03739 0.359952 8.71861 0.13342 8.33821C-0.0280558 8.06706 0.0608546 7.71635 0.332007 7.55487Z" fill="currentColor"/>
<path fill-rule="evenodd" clip-rule="evenodd" d="M13.3792 5.31765C13.4769 5.26015 13.5896 5.23302 13.7028 5.23971C14.1437 5.2658 14.5715 5.40002 14.9483 5.63053C15.3251 5.86105 15.6394 6.18077 15.8635 6.56149C16.0235 6.83349 15.9328 7.18373 15.6608 7.34378C15.3888 7.50383 15.0385 7.41308 14.8785 7.14109C14.7496 6.92204 14.5688 6.73808 14.3519 6.60544C14.1857 6.50376 14.0023 6.43465 13.8114 6.40116C13.6567 6.5179 13.5248 6.66297 13.4232 6.82918C13.2905 7.046 13.2133 7.29213 13.1983 7.54585C13.1797 7.86089 12.9092 8.10117 12.5941 8.08254C12.2791 8.0639 12.0388 7.79341 12.0574 7.47837C12.0835 7.0374 12.2177 6.60962 12.4483 6.2328C12.6788 5.85598 12.9985 5.54168 13.3792 5.31765Z" fill="currentColor"/>
<path fill-rule="evenodd" clip-rule="evenodd" d="M3.15081 2.58441C4.30782 1.4274 5.9721 0.855469 7.99902 0.855469C9.97795 0.855469 11.6124 1.40043 12.7656 2.50442C12.9936 2.72266 13.0015 3.08438 12.7832 3.31235C12.565 3.54031 12.2032 3.54819 11.9753 3.32995C11.0919 2.48422 9.77323 1.99833 7.99902 1.99833C6.18251 1.99833 4.84393 2.50753 3.95894 3.39253C3.07394 4.27753 2.56473 5.6161 2.56473 7.43261C2.56473 7.99057 2.61332 8.50522 2.70592 8.97457C2.76701 9.28419 2.56554 9.58471 2.25592 9.6458C1.9463 9.70689 1.64577 9.50542 1.58468 9.1958C1.47615 8.64572 1.42188 8.05637 1.42188 7.43261C1.42188 5.40569 1.99381 3.74141 3.15081 2.58441ZM13.7524 5.24846C14.0624 5.18928 14.3617 5.39261 14.4209 5.7026C14.5243 6.24426 14.5762 6.82096 14.5762 7.43261C14.5762 9.45954 14.0042 11.1236 12.8472 12.2803C11.6901 13.437 10.0259 14.0086 7.99902 14.0086C5.96694 14.0086 4.29799 13.4343 3.14104 12.2696C2.91863 12.0457 2.91984 11.6839 3.14374 11.4615C3.36764 11.2391 3.72945 11.2403 3.95186 11.4642C4.83604 12.3543 6.17738 12.8658 7.99902 12.8658C9.81561 12.8658 11.1542 12.3568 12.0392 11.4721C12.9241 10.5874 13.4333 9.24912 13.4333 7.43261C13.4333 6.88541 13.3869 6.38096 13.2983 5.91691C13.2391 5.60692 13.4424 5.30764 13.7524 5.24846Z" fill="currentColor"/>
</svg>
