<svg fill="none" xmlns="http://www.w3.org/2000/svg" viewBox="0 0 16 16"><g clip-path="url(#clip0_2554_5835)" stroke="currentColor" stroke-linecap="round" stroke-linejoin="round"><path d="M8 15.143C3.429 15.143.857 12.57.857 8M15.143 8c0 1.33-.217 2.491-.64 3.467M14.735 5.15a6.329 6.329 0 00-.789-1.637M11.68 1.592A7.505 7.505 0 009.574.97M4.32 1.592A7.504 7.504 0 016.426.97M1.265 5.15a6.294 6.294 0 01.789-1.637"/><path d="M13.49 14.5c1.053 0 1.646-.594 1.646-1.648 0-1.054-.593-1.646-1.646-1.646-1.055 0-1.648.592-1.648 1.645 0 1.055.593 1.648 1.647 1.648zM9.614 9.817l-1.73-2.163H5.288"/></g><defs><clipPath id="clip0_2554_5835"><path fill="currentColor" d="M0 0h16v16H0z"/></clipPath></defs></svg>