<svg fill="none" xmlns="http://www.w3.org/2000/svg" viewBox="0 0 16 16"><g clip-path="url(#clip0_2554_5847)" stroke="currentColor" stroke-linecap="round" stroke-linejoin="round"><path d="M9.77 9.437s-.45.884-1.77.884c-1.319 0-1.77-.884-1.77-.884M11.437 1.078c.423.045.843.093 1.26.142A2.388 2.388 0 0114.79 3.32c.046.412.092.83.137 1.251M11.437 14.922c.423-.046.843-.094 1.26-.143a2.39 2.39 0 002.094-2.098c.046-.412.092-.83.137-1.251M4.563 1.078c-.422.045-.843.093-1.259.142A2.39 2.39 0 001.209 3.32c-.046.412-.092.83-.137 1.251M4.563 14.922a132.15 132.15 0 01-1.259-.143 2.39 2.39 0 01-2.095-2.098c-.046-.412-.092-.83-.137-1.251"/><path d="M8 12.86c3.069 0 4.794-1.726 4.794-4.795S11.068 3.27 8 3.27c-3.069 0-4.794 1.725-4.794 4.795 0 3.069 1.725 4.794 4.794 4.794zM5.936 6.56v.51M10.064 6.56v.51"/></g><defs><clipPath id="clip0_2554_5847"><path fill="currentColor" d="M0 0h16v16H0z"/></clipPath></defs></svg>