<svg viewBox="0 0 16 16" fill="none" xmlns="http://www.w3.org/2000/svg">
    <g id="azure-boards-icon" clip-path="url(#clip0_1039_40353)">
        <path id="Vector"
            d="M11.3139 6.70193C12.4495 6.70066 13.5454 7.11916 14.3911 7.87699V0.700952C14.3913 0.614844 14.3744 0.529549 14.3416 0.449957C14.3087 0.370366 14.2605 0.298045 14.1996 0.237142C14.1387 0.176238 14.0664 0.127951 13.9869 0.0950497C13.9073 0.0621482 13.822 0.0452794 13.7359 0.0454109H0.726165C0.363639 0.0454109 0.0712891 0.338093 0.0712891 0.700952V11.3686C0.0712891 11.7317 0.363639 12.0244 0.726165 12.0244H6.75076C6.71617 11.7931 6.69882 11.5595 6.69888 11.3256C6.69655 8.77333 8.76495 6.70193 11.3139 6.70193Z"
            fill="#00947D" />
        <path id="Vector_2" d="M4.43488 1.24707H1.24963V3.26591H4.43555V1.24707H4.43488Z" fill="#1FC1A7" />
        <path id="Vector_3" d="M8.81449 1.24707H5.62891V3.26591H8.81449V1.24707Z" fill="#61DDC9" />
        <path id="Vector_4" d="M4.43488 4.4469H1.24963V6.46607H4.43555V4.4469H4.43488Z" fill="#9BFDEC" />
        <path id="Vector_5" d="M4.43488 7.64551H1.24963V9.63541H4.43555V7.64551H4.43488Z" fill="#00B99D" />
        <path id="Vector_6" d="M8.81449 4.4469H5.62891V6.46607H8.81449V4.4469Z" fill="#04BCA1" />
        <path id="Vector_7" d="M13.2032 1.24707H10.0176V3.26591H13.2035L13.2032 1.24707Z" fill="#1DC0A7" />
        <path id="Vector_8"
            d="M14.3904 11.3682V7.879C13.5451 7.12053 12.449 6.70183 11.3133 6.70362C8.76429 6.70362 6.69556 8.77268 6.69556 11.3273C6.69556 11.5655 6.71385 11.797 6.74777 12.0261H13.7356C13.9095 12.0253 14.076 11.9556 14.1987 11.8323C14.3214 11.7091 14.3905 11.5422 14.3904 11.3682Z"
            fill="#00BA9D" />
        <path id="Vector_9"
            d="M14.3914 7.87927V11.3708C14.3915 11.5446 14.3226 11.7114 14.1998 11.8344C14.077 11.9573 13.9104 12.0265 13.7366 12.0267H6.74878C7.08403 14.2478 9.0011 15.9513 11.3143 15.9513C13.8656 15.9493 15.932 13.8803 15.932 11.3256C15.9328 10.675 15.7959 10.0316 15.5304 9.43764C15.2649 8.84368 14.8767 8.3126 14.3914 7.87927Z"
            fill="#27CFB2" />
        <path id="Vector_10"
            d="M13.6864 9.05005L10.7928 11.9449L9.30648 10.4566L8.41846 11.3479L9.90482 12.8366L10.8494 13.7825L11.7377 12.8912L14.6313 9.99594L13.6864 9.05005Z"
            fill="#C5FDF4" />
    </g>
    <defs>
        <clipPath id="clip0_1039_40353">
            <rect width="16" height="16" fill="white" />
        </clipPath>
    </defs>
</svg>