<svg fill="none" xmlns="http://www.w3.org/2000/svg" viewBox="0 0 16 16"><g clip-path="url(#clip0_2554_5866)" stroke="currentColor" stroke-linecap="round" stroke-linejoin="round"><path d="M8 4.16c-1.686 0-3.448 0-4.926.263a1.77 1.77 0 00-1.417 1.371c-.24 1.109-.24 2.142-.24 3.714 0 1.573 0 2.606.24 3.715a1.768 1.768 0 001.417 1.37c1.478.263 3.24.263 4.926.263s3.448 0 4.926-.263a1.769 1.769 0 001.417-1.371c.24-1.108.24-2.14.24-3.715 0-1.571 0-2.605-.24-3.713a1.767 1.767 0 00-1.417-1.371C11.448 4.16 9.686 4.16 8 4.16zM5.257 4.16v-.731a2.286 2.286 0 012.286-2.286h.914a2.286 2.286 0 012.286 2.286v.731"/><path d="M1.425 8L7.28 9.954c.47.157.978.157 1.448 0L14.583 8"/></g><defs><clipPath id="clip0_2554_5866"><path fill="currentColor" d="M0 0h16v16H0z"/></clipPath></defs></svg>