<svg viewBox="0 0 16 17" fill="none" xmlns="http://www.w3.org/2000/svg"><g clip-path="url(#clip0_458_17771)"><path d="M1.36691 12.5288C1.55091 14.1745 2.88805 15.4797 4.54177 15.5597C5.68462 15.6145 6.85148 15.6431 8.11891 15.6431C9.38634 15.6431 10.5532 15.6145 11.6961 15.5597C13.3498 15.4797 14.6869 14.1734 14.8709 12.5288C14.9955 11.4203 15.0972 10.2854 15.0972 9.12883C15.0972 7.97112 14.9943 6.83626 14.8709 5.72769C14.6869 4.08197 13.3498 2.77683 11.6961 2.69683C10.5532 2.64197 9.38634 2.6134 8.11891 2.6134C6.85148 2.6134 5.68462 2.64197 4.54177 2.69683C2.88805 2.77683 1.55091 4.08312 1.36691 5.72769C1.24234 6.83626 1.14062 7.97112 1.14062 9.12883C1.14062 10.2854 1.24348 11.4214 1.36691 12.5288Z" stroke="currentColor" stroke-linecap="round" stroke-linejoin="round"/><path d="M4.85938 1.35742V4.21456" stroke="currentColor" stroke-linecap="round" stroke-linejoin="round"/><path d="M11.1406 1.35742V4.21456" stroke="currentColor" stroke-linecap="round" stroke-linejoin="round"/><path d="M1.25781 6.78613H14.979" stroke="currentColor" stroke-linecap="round" stroke-linejoin="round"/></g><defs><clipPath id="clip0_458_17771"><rect width="16" height="16" fill="currentColor" transform="translate(0 0.5)"/></clipPath></defs></svg>