<svg xmlns="http://www.w3.org/2000/svg" viewBox="0 0 16 16"><g clip-path="url(#a)"><path fill-rule="evenodd" d="M8 .357c-2.378 0-4.306.67-5.64 2.004C1.028 3.694.358 5.622.358 8c0 2.377.67 4.306 2.004 5.64 1.332 1.331 3.26 2.002 5.638 2.002s4.306-.67 5.64-2.004c1.333-1.333 2.003-3.261 2.003-5.64 0-2.377-.67-4.305-2.004-5.638C12.306 1.027 10.378.357 8 .357Zm3.193 5.156a.5.5 0 1 0-.672-.74c-.941.853-1.64 1.613-2.228 2.531-.477.745-.873 1.58-1.27 2.63L5.502 8.367a.5.5 0 1 0-.718.696l2.078 2.143a.5.5 0 0 0 .83-.184c.484-1.387.917-2.356 1.443-3.178.524-.818 1.155-1.51 2.058-2.33Z" clip-rule="evenodd"/></g><defs><clipPath id="a"><path d="M0 0h16v16H0z"/></clipPath></defs></svg>