<svg viewBox="0 0 16 16" fill="none" xmlns="http://www.w3.org/2000/svg">
<g style="mix-blend-mode:luminosity">
<path d="M13.4668 1.77999H2.53351C2.37568 1.7791 2.21924 1.80954 2.07325 1.86953C1.92726 1.92952 1.79462 2.01788 1.68302 2.12949C1.57141 2.24109 1.48305 2.37373 1.42306 2.51972C1.36307 2.66571 1.33263 2.82215 1.33351 2.97999V10.18C1.33263 10.3378 1.36307 10.4943 1.42306 10.6403C1.48305 10.7862 1.57141 10.9189 1.68302 11.0305C1.79462 11.1421 1.92726 11.2304 2.07325 11.2904C2.21924 11.3504 2.37568 11.3809 2.53351 11.38H6.66685V12.8867H5.33352V14.22H10.6668V12.8867H9.33352V11.38H13.4668C13.6247 11.3809 13.7811 11.3504 13.9271 11.2904C14.0731 11.2304 14.2057 11.1421 14.3173 11.0305C14.429 10.9189 14.5173 10.7862 14.5773 10.6403C14.6373 10.4943 14.6677 10.3378 14.6668 10.18V2.97999C14.6677 2.82215 14.6373 2.66571 14.5773 2.51972C14.5173 2.37373 14.429 2.24109 14.3173 2.12949C14.2057 2.01788 14.0731 1.92952 13.9271 1.86953C13.7811 1.80954 13.6247 1.7791 13.4668 1.77999ZM11.1135 9.77999H8.44685V8.44665H11.1135V9.77999ZM11.1135 6.75332L5.06685 9.28665V8.04665L9.42018 6.17999L5.06685 4.26665V3.01999L11.1135 5.51332V6.75332Z" fill="#AECBFA"/>
<path d="M6.66699 11.38H9.33366V12.8866H6.66699V11.38Z" fill="#4285F4"/>
<path d="M10.6668 12.8867H5.3335V14.22H10.6668V12.8867Z" fill="#669DF6"/>
</g>
</svg>
