<svg fill="none" xmlns="http://www.w3.org/2000/svg" viewBox="0 0 16 17"><g clip-path="url(#clip0_2567_2393)" stroke="currentColor" stroke-linecap="round" stroke-linejoin="round"><path d="M1.369 12.529c.184 1.646 1.521 2.95 3.175 3.03a73.81 73.81 0 003.577.084c1.267 0 2.434-.028 3.577-.083 1.654-.08 2.99-1.386 3.175-3.031.124-1.109.226-2.243.226-3.4 0-1.158-.103-2.293-.226-3.401-.184-1.646-1.521-2.951-3.175-3.031a73.872 73.872 0 00-3.577-.083c-1.268 0-2.434.028-3.577.083-1.654.08-2.991 1.386-3.175 3.03-.125 1.11-.226 2.244-.226 3.402 0 1.157.102 2.293.226 3.4zM4.86 1.357v2.858m6.283-2.858v2.858"/><path d="M10.745 9.739c0 .027.009.054.026.076l.363.457a.525.525 0 01.046.591l-.215.37a.525.525 0 01-.532.256l-.58-.089a.126.126 0 00-.08.016l-.685.397a.126.126 0 00-.054.06l-.214.547a.524.524 0 01-.487.333h-.427a.524.524 0 01-.487-.333l-.214-.547a.126.126 0 00-.052-.06l-.687-.397a.126.126 0 00-.08-.016l-.58.09a.525.525 0 01-.532-.258l-.214-.369a.525.525 0 01.045-.59l.366-.458a.122.122 0 00.026-.076v-.794a.122.122 0 00-.026-.075l-.366-.46a.525.525 0 01-.045-.588l.214-.37a.524.524 0 01.533-.256l.578.088a.126.126 0 00.08-.015l.688-.4a.126.126 0 00.052-.06l.215-.545a.523.523 0 01.487-.332h.429a.523.523 0 01.487.332l.213.544c.01.027.029.05.053.064l.687.397a.126.126 0 00.08.015l.58-.088a.524.524 0 01.532.256l.213.37a.525.525 0 01-.044.589l-.366.459a.122.122 0 00-.026.075v.793z"/><path d="M8.12 8.77a.615.615 0 00-.39.125c-.225.189-.24.619-.052.838a.58.58 0 00.442.18m0-1.143c.144 0 .289.042.388.125.227.19.24.619.054.84a.58.58 0 01-.442.178"/></g></svg>