<svg fill="none" xmlns="http://www.w3.org/2000/svg" viewBox="0 0 16 16"><g clip-path="url(#clip0_2554_5968)" stroke="currentColor" stroke-linecap="round" stroke-linejoin="round"><path d="M11.856 3.989a58.93 58.93 0 00-.113-1.888 1.115 1.115 0 00-1.029-1.029c-2.843-.22-5.7-.22-8.544 0a1.115 1.115 0 00-1.028 1.029 54.99 54.99 0 000 8.512A1.115 1.115 0 002.17 11.64c.663.05 1.315.09 1.96.116"/><path d="M4.262 13.615a1.116 1.116 0 001.028 1.028c2.844.221 5.701.221 8.545 0a1.115 1.115 0 001.029-1.028c.22-2.833.22-5.678 0-8.511a1.115 1.115 0 00-1.029-1.029 55.315 55.315 0 00-8.545 0 1.115 1.115 0 00-1.028 1.029 54.992 54.992 0 000 8.51z"/></g><defs><clipPath id="clip0_2554_5968"><path fill="currentColor" d="M0 0h16v16H0z"/></clipPath></defs></svg>