<svg fill="none" xmlns="http://www.w3.org/2000/svg" viewBox="0 0 16 16"><g clip-path="url(#clip0_2554_5976)" stroke="currentColor" stroke-linecap="round" stroke-linejoin="round"><path d="M.91 7.714c0-4.225 1.772-6.036 2.364-6.64h9.452c.592.604 2.363 2.415 2.363 6.64 0 4.828-4.655 6.608-7.017 7.212C5.707 14.322.91 12.542.91 7.713v.001z"/><path d="M9.563 5.966s-.588-.654-1.54-.572c-.953.08-1.413.667-1.413 1.254 0 1.712 2.953.526 2.953 2.281 0 .905-1.958 1.544-3.126.48m1.702-5.167v1.144m0 4.568V11.1"/></g><defs><clipPath id="clip0_2554_5976"><path fill="currentColor" d="M0 0h16v16H0z"/></clipPath></defs></svg>