<svg fill="none" xmlns="http://www.w3.org/2000/svg" viewBox="0 0 16 17"><path d="M3.438 2.993c-.885.73-2.098 2.3-2.58 3.792.703 1.408 3.471 5.189 6.412 7.92a1.07 1.07 0 001.46 0c2.941-2.731 5.71-6.512 6.413-7.92-.482-1.492-1.696-3.062-2.58-3.792a.972.972 0 00-.623-.208H4.06a.971.971 0 00-.622.208zM.863 6.785h14.273" stroke="currentColor" stroke-linecap="round" stroke-linejoin="round"/><path d="M6.857 2.785L5.325 6.263c-.116.263-.129.56-.036.832l2.709 7.897M9.142 2.785l1.533 3.478c.116.263.128.56.035.832L8 14.992" stroke="currentColor" stroke-linecap="round" stroke-linejoin="round"/></svg>