<svg fill="none" xmlns="http://www.w3.org/2000/svg" viewBox="0 0 16 16"><path d="M3.438 2.494c-.885.729-2.099 2.3-2.58 3.792.703 1.408 3.471 5.188 6.412 7.92a1.071 1.071 0 001.46 0c2.94-2.732 5.709-6.512 6.413-7.92-.482-1.493-1.696-3.063-2.58-3.792a.971.971 0 00-.623-.208H4.06a.971.971 0 00-.622.208zM.862 6.286h14.273" stroke="currentColor" stroke-linecap="round" stroke-linejoin="round"/><path d="M6.857 2.286L5.323 5.763c-.116.263-.128.56-.035.832l2.709 7.898M9.143 2.286l1.534 3.477c.115.264.128.56.034.832L8 14.493" stroke="currentColor" stroke-linecap="round" stroke-linejoin="round"/></svg>