<svg xmlns="http://www.w3.org/2000/svg" viewBox="0 0 16 16"><path fill="#92A1B1" fill-rule="evenodd" d="M9.36 7.363c.938.56 1.69 1.08 2.315 1.558a3.54 3.54 0 0 0 1.852-1.102v-.135l-1.219-.994h-.143a1.998 1.998 0 0 1-1.428.615c-.905 0-1.615-.65-1.615-1.55 0-.898.71-1.548 1.615-1.548.576 0 1.095.262 1.428.614h.143l1.22-.994v-.135c-.639-.74-1.644-1.22-2.777-1.22-2.091 0-3.672 1.405-3.672 3.284 0 .072.019.14.024.212.852.55 1.61.993 2.257 1.395Zm.134 2.844c-1.656-.91-4.482-2.309-7.021-4.97.232.962 1.41 3.072 6.485 5.707 1.406.76 3.781 1.474 5.49 3.505-.455-1.033-1.374-2.353-4.954-4.238v-.004ZM7.982 8.329c1.7 1.178 3.891 1.905 5.545 4.277-.403-1.173-1.13-2.678-4.58-4.91-1.684-1.127-4.15-2.54-7.396-6.145.233.974 1.26 3.5 6.427 6.778h.004Z" clip-rule="evenodd"/></svg>