<svg fill="none" xmlns="http://www.w3.org/2000/svg" viewBox="0 0 16 16"><g clip-path="url(#clip0_2554_5990)" stroke="currentColor" stroke-linecap="round" stroke-linejoin="round"><path d="M7.317 1.018c.968.071 1.747.6 1.854 1.257.08.49.149.992.149 1.503 0 .512-.069 1.014-.149 1.503-.107.658-.886 1.189-1.854 1.257-.731.06-1.464.092-2.197.097-.747 0-1.481-.044-2.197-.096-.968-.07-1.746-.6-1.854-1.259A9.28 9.28 0 01.92 3.777c0-.51.069-1.014.149-1.502.108-.658.886-1.188 1.854-1.258C3.654.96 4.387.927 5.12.922c.749 0 1.482.044 2.197.096zM8.73 15.006c-.968-.07-1.746-.601-1.853-1.26-.09-.498-.14-1.001-.149-1.506 0-.513.069-1.016.149-1.506.107-.66.885-1.19 1.852-1.26.73-.06 1.463-.092 2.196-.097.747 0 1.48.045 2.195.096.968.07 1.746.601 1.854 1.26.08.492.148.995.148 1.507 0 .513-.068 1.016-.148 1.505-.108.66-.886 1.19-1.854 1.262-.714.051-1.448.096-2.194.096a30.442 30.442 0 01-2.197-.097zM14.399 1.018c.35.071.63.6.67 1.257.028.49.053.992.053 1.503 0 .512-.025 1.014-.053 1.503-.04.658-.32 1.189-.67 1.257-.261.059-.527.091-.794.097a4.056 4.056 0 01-.793-.096c-.351-.07-.632-.6-.671-1.258-.033-.5-.051-1.001-.054-1.503 0-.51.025-1.013.054-1.501.039-.659.32-1.189.67-1.259.258-.052.523-.096.794-.096.27 0 .536.044.794.096zM1.643 15.006c-.35-.07-.63-.601-.67-1.26A25.437 25.437 0 01.92 12.24c0-.513.025-1.016.054-1.506.039-.66.32-1.19.67-1.26a4.08 4.08 0 01.794-.097c.27 0 .536.045.794.096.35.07.63.601.67 1.26.028.492.053.995.053 1.507 0 .513-.025 1.016-.053 1.505-.04.66-.32 1.19-.67 1.262-.26.058-.527.09-.794.096a4.077 4.077 0 01-.795-.097z"/></g><defs><clipPath id="clip0_2554_5990"><path fill="currentColor" d="M0 0h16v16H0z"/></clipPath></defs></svg>