<svg fill="none" xmlns="http://www.w3.org/2000/svg" viewBox="0 0 16 17"><g clip-path="url(#clip0_2567_1489)" stroke="currentColor" stroke-linecap="round" stroke-linejoin="round"><path d="M11.956 6.138a38.656 38.656 0 00-.121-2.116m-7.23 9.3a30.535 30.535 0 01-.467-.052c-1.641-.194-2.937-1.561-3.082-3.207a37.218 37.218 0 01-.167-3.239c0-.895.049-2.012.117-2.932"/><path d="M6.426 6.174c3.475 0 5.428-.865 5.428-2.404 0-1.537-1.955-2.402-5.427-2.402C2.953 1.368 1 2.233 1 3.77c0 1.54 1.954 2.404 5.426 2.404zm.017 3.343c-1.154 0-2.286-.097-3.39-.216a4.095 4.095 0 01-2.076-.82m8.005 7.075H7.65c.599-3.014 1.413-4.985 3.674-7.222 2.184 2.266 2.975 4.166 3.675 7.223h-1.2m-2.475-3.612v1.372m0 1.985v.254"/></g><defs><clipPath id="clip0_2567_1489"><path fill="currentColor" transform="translate(0 .5)" d="M0 0h16v16H0z"/></clipPath></defs></svg>