<svg viewBox="0 0 16 17" fill="none" xmlns="http://www.w3.org/2000/svg"><path d="M0.814453 4.22803H6.52874" stroke="currentColor" stroke-linecap="round" stroke-linejoin="round"/><path d="M0.814453 7.93994H6.52874" stroke="currentColor" stroke-linecap="round" stroke-linejoin="round"/><path d="M0.869141 15.3651H14.9011" stroke="currentColor" stroke-linecap="round" stroke-linejoin="round"/><path d="M0.869141 11.6532H14.9011" stroke="currentColor" stroke-linecap="round" stroke-linejoin="round"/><path d="M10.507 4.10571C10.9767 3.636 11.0499 3.20514 11.3905 2.77085C11.4519 2.69139 11.5307 2.62705 11.6208 2.58279C11.7109 2.53852 11.81 2.5155 11.9105 2.5155C12.0109 2.5155 12.11 2.53852 12.2001 2.58279C12.2903 2.62705 12.3691 2.69139 12.4305 2.77085C12.771 3.20514 12.8442 3.636 13.3127 4.10571C13.7825 4.57428 14.2133 4.64743 14.6476 4.988C14.7271 5.0494 14.7914 5.1282 14.8357 5.21834C14.8799 5.30848 14.903 5.40757 14.903 5.508C14.903 5.60842 14.8799 5.70751 14.8357 5.79765C14.7914 5.8878 14.7271 5.96659 14.6476 6.028C14.2133 6.36857 13.7825 6.44171 13.3127 6.91143C12.8442 7.38 12.771 7.81085 12.4305 8.24514C12.3691 8.32461 12.2903 8.38894 12.2001 8.43321C12.11 8.47747 12.0109 8.50049 11.9105 8.50049C11.81 8.50049 11.7109 8.47747 11.6208 8.43321C11.5307 8.38894 11.4519 8.32461 11.3905 8.24514C11.0499 7.81085 10.9767 7.38 10.507 6.91143C10.0385 6.44171 9.60761 6.36857 9.17332 6.028C9.09385 5.96659 9.02952 5.8878 8.98525 5.79765C8.94099 5.70751 8.91797 5.60842 8.91797 5.508C8.91797 5.40757 8.94099 5.30848 8.98525 5.21834C9.02952 5.1282 9.09385 5.0494 9.17332 4.988C9.60761 4.64743 10.0373 4.57428 10.507 4.10571Z" stroke="currentColor" stroke-linecap="round" stroke-linejoin="round"/></svg>