<svg viewBox="0 0 24 24" fill="none" xmlns="http://www.w3.org/2000/svg">
    <g clip-path="url(#clip0_615_2004)">
        <path
            d="M12.0005 9.27771C12.7229 9.27771 13.4158 9.5647 13.9266 10.0756C14.4375 10.5864 14.7245 11.2793 14.7245 12.0017C14.7245 12.7242 14.4375 13.417 13.9266 13.9279C13.4158 14.4387 12.7229 14.7257 12.0005 14.7257C11.2783 14.7257 10.5856 14.4388 10.0749 13.9281C9.56425 13.4174 9.27734 12.7248 9.27734 12.0026C9.27734 11.2803 9.56425 10.5877 10.0749 10.077C10.5856 9.56633 11.2783 9.27771 12.0005 9.27771Z"
            stroke="currentColor" stroke-width="1.5" stroke-linecap="round" stroke-linejoin="round" />
        <path
            d="M20.9518 5.19869C23.727 9.24096 23.5116 15.8624 20.4277 19.4846C18.4922 21.7579 15.2463 22.8944 12.0003 22.8943C8.75471 22.8941 5.50901 21.7576 3.57285 19.4846C2.53069 18.2605 1.81626 16.694 1.43414 15.0002C1.21494 14.0285 1.10509 13.015 1.10547 12.0002C1.10669 8.73155 2.25152 5.45017 4.56885 3.51428C7.1934 1.32267 11.3682 0.626972 14.9769 1.42719"
            stroke="currentColor" stroke-width="1.5" stroke-linecap="round" stroke-linejoin="round" />
        <path
            d="M18.2865 4.31404C18.4866 4.31907 18.6857 4.284 18.872 4.2109C19.0584 4.13781 19.2282 4.02816 19.3715 3.88842C19.5148 3.74867 19.6286 3.58167 19.7064 3.39723C19.7842 3.2128 19.8242 3.01467 19.8242 2.81451C19.8242 2.61436 19.7842 2.41623 19.7064 2.2318C19.6286 2.04736 19.5148 1.88035 19.3715 1.74061C19.2282 1.60087 19.0584 1.49122 18.872 1.41812C18.6857 1.34503 18.4866 1.30996 18.2865 1.31499C17.8954 1.32482 17.5235 1.48712 17.2503 1.76726C16.9771 2.04741 16.8242 2.42322 16.8242 2.81451C16.8242 3.20581 16.9771 3.58162 17.2503 3.86177C17.5235 4.14191 17.8954 4.30421 18.2865 4.31404Z"
            stroke="currentColor" stroke-width="1.5" stroke-linecap="round" stroke-linejoin="round" />
        <path
            d="M5.08203 12.0004C5.0814 13.7688 5.60759 15.5315 6.64856 16.7554C8.49475 18.9234 12.2186 19.4633 15.0006 18.3749M8.39587 5.88679C10.9342 4.61046 14.6142 4.85219 16.72 6.61197C18.3695 7.98968 19.0836 10.4403 18.8888 12.7504"
            stroke="currentColor" stroke-width="1.5" stroke-linecap="round" stroke-linejoin="round" />
        <path
            d="M17.9623 17.9275C18.1624 17.9325 18.3615 17.8975 18.5478 17.8244C18.7341 17.7513 18.904 17.6416 19.0473 17.5019C19.1905 17.3621 19.3044 17.1951 19.3822 17.0107C19.4599 16.8263 19.5 16.6281 19.5 16.428C19.5 16.2278 19.4599 16.0297 19.3822 15.8453C19.3044 15.6608 19.1905 15.4938 19.0473 15.3541C18.904 15.2143 18.7341 15.1047 18.5478 15.0316C18.3615 14.9585 18.1624 14.9234 17.9623 14.9285C17.5711 14.9383 17.1993 15.1006 16.9261 15.3807C16.6529 15.6609 16.5 16.0367 16.5 16.428C16.5 16.8193 16.6529 17.1951 16.9261 17.4752C17.1993 17.7554 17.5711 17.9177 17.9623 17.9275Z"
            stroke="currentColor" stroke-width="1.5" stroke-linecap="round" stroke-linejoin="round" />
        <path
            d="M5.96231 10.0486C6.16241 10.0536 6.36148 10.0186 6.54781 9.94546C6.73414 9.87236 6.90395 9.76271 7.04725 9.62297C7.19055 9.48323 7.30443 9.31622 7.38219 9.13179C7.45994 8.94736 7.5 8.74923 7.5 8.54907C7.5 8.34892 7.45994 8.15079 7.38219 7.96635C7.30443 7.78192 7.19055 7.61491 7.04725 7.47517C6.90395 7.33543 6.73414 7.22578 6.54781 7.15268C6.36148 7.07958 6.16241 7.04452 5.96231 7.04955C5.57114 7.05938 5.19929 7.22168 4.9261 7.50182C4.65291 7.78196 4.5 8.15777 4.5 8.54907C4.5 8.94037 4.65291 9.31618 4.9261 9.59632C5.19929 9.87647 5.57114 10.0388 5.96231 10.0486Z"
            stroke="currentColor" stroke-width="1.5" stroke-linecap="round" stroke-linejoin="round" />
    </g>
    <defs>
        <clipPath id="clip0_615_2004">
            <rect width="24" height="24" fill="currentColor" />
        </clipPath>
    </defs>
</svg>