<svg fill="none" xmlns="http://www.w3.org/2000/svg" viewBox="0 0 16 16"><g clip-path="url(#clip0_2554_6033)" stroke="currentColor" stroke-linecap="round" stroke-linejoin="round"><path d="M6.361 12.39l-.475-.121a1.058 1.058 0 00-.545-.002c-.626.172-1.301.432-1.976.663-.46.158-.892.33-1.312.412-.138.025-.263-.035-.376-.133-.463-.411-.534-1.095-.643-1.703a22.468 22.468 0 010-7.89l.057-.318c.07-.399.147-.8.332-1.16.108-.209.25-.413.417-.493.463-.222.926-.435 1.338-.549C3.84.914 4.914.643 5.613.806l4.022 1.04c.255.067.526.042.764-.071.552-.264 1.119-.542 1.611-.679.425-.117 1.02-.27 1.577-.322.152-.014.29.068.41.187.418.423.502 1.06.609 1.645a21.91 21.91 0 01.337 4.605"/><path d="M5.785 12.26a1.058 1.058 0 00-.248-.031V.952c0-.048.004-.096.01-.143l4.198 1.052c.119.028.24.037.36.026V6.75M15.426 15.405l-1.357-1.36M11.712 14.833c2.011 0 3.143-1.131 3.143-3.143 0-2.011-1.132-3.143-3.143-3.143S8.569 9.68 8.569 11.69c0 2.012 1.132 3.143 3.143 3.143z"/></g><defs><clipPath id="clip0_2554_6033"><path fill="currentColor" d="M0 0h16v16H0z"/></clipPath></defs></svg>