<svg xmlns="http://www.w3.org/2000/svg" viewBox="0 0 16 16">
  <path fill-rule="evenodd" d="M7.998 1.148C9.81.095 12.497-.102 14.732.418c.733.17 1.179.84 1.179 1.534V6.88a.5.5 0 0 1-1 0V1.95c0-.287-.18-.507-.405-.559-2.076-.483-4.483-.265-6.008.622V6.88a.5.5 0 1 1-1 0V2.014C5.974 1.127 3.568.91 1.492 1.393H1.49c-.226.052-.405.27-.405.56v9.41c0 .021.009.045.038.067.03.023.07.031.109.023 1.516-.358 3.217-.383 4.713-.05a.5.5 0 1 1-.217.976c-1.342-.298-2.89-.278-4.266.046-.664.158-1.377-.321-1.377-1.062v-9.41c0-.696.445-1.364 1.18-1.534 2.235-.521 4.922-.324 6.732.73Zm.922 7.814C9.573 8.31 10.5 8 11.6 8c1.097 0 2.025.31 2.678.963.654.654.964 1.582.964 2.68 0 .898-.208 1.683-.642 2.297l1.066 1.065a.5.5 0 1 1-.706.707l-1.067-1.066c-.613.432-1.397.64-2.294.64-1.098 0-2.026-.31-2.68-.964-.652-.653-.963-1.582-.963-2.68 0-1.097.31-2.025.964-2.679Zm.707.708c-.415.415-.67 1.058-.67 1.972 0 .913.255 1.557.67 1.972.415.415 1.058.67 1.972.67.914 0 1.557-.255 1.972-.67.416-.415.671-1.059.671-1.972 0-.914-.255-1.557-.67-1.972-.416-.416-1.06-.671-1.973-.671-.914 0-1.557.255-1.972.67Z" clip-rule="evenodd"/>
</svg>
