<svg fill="none" xmlns="http://www.w3.org/2000/svg" viewBox="0 0 16 16"><g clip-path="url(#clip0_2554_6058)" stroke="currentColor" stroke-linecap="round" stroke-linejoin="round"><path d="M10.716 14.743l4.032-3.819c.67-.634.618-1.757-.115-2.478-.715-.703-1.805-.751-2.438-.108l-3.92 4.004-.645 2.404c-.097.36.264.725.625.631l2.46-.633M5.443 14.303a55.42 55.42 0 01-2.472-.117 2.198 2.198 0 01-2.045-2.053 74.629 74.629 0 01-.144-4.668c0-1.6.049-3.161.144-4.667A2.198 2.198 0 012.97.744 57.36 57.36 0 017.067.608c.512 0 .992.005 1.452.015.457.01.903.162 1.265.442 1.135.876 1.886 1.629 2.714 2.694.284.366.496.775.638 1.209.075.233.13.473.165.715"/></g><defs><clipPath id="clip0_2554_6058"><path fill="currentColor" d="M0 0h16v16H0z"/></clipPath></defs></svg>