<svg fill="none" xmlns="http://www.w3.org/2000/svg" viewBox="0 0 16 16"><g clip-path="url(#clip0_2554_6068)" stroke="currentColor" stroke-linecap="round" stroke-linejoin="round"><path d="M3.37 10.723a1.906 1.906 0 001.907-1.906V7.183a1.906 1.906 0 011.906-1.906A1.906 1.906 0 009.089 3.37V.91A11.048 11.048 0 008 .857C3.429.857.857 3.43.857 8c0 1.007.126 1.917.368 2.723h2.146zM12.362 13.577v.453m0 0c1.81-1.166 2.78-3.218 2.78-6.03v-.074l-.062-.034a3.88 3.88 0 00-1.764-.437h-2.32a1.907 1.907 0 100 3.814 1.362 1.362 0 011.362 1.36v1.403l.003-.002h.001z"/><path d="M8 15.143c4.572 0 7.143-2.572 7.143-7.143S12.57.857 8 .857.857 3.43.857 8c0 4.572 2.572 7.143 7.143 7.143z"/></g><defs><clipPath id="clip0_2554_6068"><path fill="currentColor" d="M0 0h16v16H0z"/></clipPath></defs></svg>