<svg fill="none" xmlns="http://www.w3.org/2000/svg" viewBox="0 0 16 16"><g clip-path="url(#clip0_2554_6075)" stroke="currentColor" stroke-linecap="round" stroke-linejoin="round"><path d="M7.96 9.583a1.584 1.584 0 10.08-3.167 1.584 1.584 0 00-.08 3.167zM1.27 9.137A6.815 6.815 0 018.982 1.31M8 14.87a6.814 6.814 0 006.731-7.883M11.503 3.913c.03.274.249.493.523.525.353.04.719.083 1.093.083s.74-.043 1.093-.083a.598.598 0 00.524-.525c.039-.351.08-.715.08-1.087 0-.373-.041-.738-.08-1.088a.597.597 0 00-.525-.526 9.442 9.442 0 00-1.092-.082 9.44 9.44 0 00-1.093.083.598.598 0 00-.523.525c-.04.35-.08.715-.08 1.088 0 .372.04.736.08 1.087zM1.624 14.209c.03.274.25.494.523.526.354.04.72.082 1.093.082.375 0 .74-.042 1.094-.082a.598.598 0 00.523-.526c.04-.351.08-.714.08-1.087s-.04-.737-.08-1.088a.598.598 0 00-.524-.526 9.464 9.464 0 00-1.093-.082c-.365.007-.73.034-1.093.083a.597.597 0 00-.523.525c-.04.35-.08.715-.08 1.088 0 .373.04.736.08 1.087z"/></g><defs><clipPath id="clip0_2554_6075"><path fill="currentColor" d="M0 0h16v16H0z"/></clipPath></defs></svg>