<svg fill="none" xmlns="http://www.w3.org/2000/svg" viewBox="0 0 16 16"><path d="M8.703 5.402c1.486.003 2.743.064 4.843.216.766.055 1.42.615 1.497 1.379.068.667.063 1.34-.014 2.006-.083.763-.714 1.34-1.476 1.418-1.965.2-2.97.259-4.85.17M2.96 5.561l-.518.051c-.762.08-1.39.655-1.474 1.418a9.22 9.22 0 00-.015 2.006c.078.765.732 1.324 1.497 1.379l.509.036M4.703 2.857c.76-.083 1.526-.083 2.285 0M4.703 13.143c.914.133 1.415.125 2.285 0M5.846 2.857c-.17 4.051-.187 6.313 0 10.286" stroke="currentColor" stroke-linecap="round" stroke-linejoin="round"/></svg>