<svg fill="none" xmlns="http://www.w3.org/2000/svg" viewBox="0 0 16 16"><g clip-path="url(#clip0_2554_6100)" stroke="currentColor" stroke-linecap="round" stroke-linejoin="round"><path d="M4.243 14.89a3.58 3.58 0 01-3.146-3.155C.967 10.52.857 9.273.857 8c0-1.273.11-2.521.24-3.735a3.58 3.58 0 013.146-3.154C5.465.974 6.72.857 8 .857c1.28 0 2.534.118 3.757.253a3.58 3.58 0 013.146 3.154c.065.611.126 1.231.17 1.858"/><path d="M7.253 11.291a4.38 4.38 0 00-2.026.925c-.771.63-1.333 1.589-1.542 2.566.181.05.368.087.558.107 1.02.115 1.95.26 3.01.29M8 9.422c1.6 0 2.5-.9 2.5-2.499 0-1.6-.9-2.5-2.5-2.5s-2.5.9-2.5 2.5C5.5 8.52 6.402 9.42 8 9.42v0zM12.406 8.74L9.13 12.455l-.45 2.11c-.071.34.283.661.614.557l2.1-.66 3.384-3.56c.562-.591.464-1.581-.217-2.183-.663-.587-1.629-.579-2.156.02h.001z"/></g><defs><clipPath id="clip0_2554_6100"><path fill="currentColor" d="M0 0h16v16H0z"/></clipPath></defs></svg>