<svg fill="none" xmlns="http://www.w3.org/2000/svg" viewBox="0 0 16 16"><g clip-path="url(#clip0_2554_6115)" stroke="currentColor" stroke-linecap="round" stroke-linejoin="round"><path d="M11.717 11.717L4.283 4.283M1.097 11.735a3.58 3.58 0 003.146 3.154c1.223.137 2.477.254 3.757.254 1.28 0 2.535-.117 3.757-.254a3.58 3.58 0 003.146-3.154c.13-1.215.24-2.463.24-3.735 0-1.272-.11-2.52-.24-3.736a3.58 3.58 0 00-3.146-3.154C10.534.975 9.28.857 8 .857c-1.28 0-2.535.117-3.757.254a3.58 3.58 0 00-3.146 3.154C.967 5.48.857 6.727.857 8c0 1.273.11 2.52.24 3.735z"/><path d="M8 11.717c2.378 0 3.717-1.338 3.717-3.717 0-2.378-1.338-3.717-3.717-3.717-2.378 0-3.717 1.338-3.717 3.717 0 2.378 1.338 3.717 3.717 3.717z"/></g><defs><clipPath id="clip0_2554_6115"><path fill="currentColor" d="M0 0h16v16H0z"/></clipPath></defs></svg>