<svg fill="none" xmlns="http://www.w3.org/2000/svg" viewBox="0 0 16 17"><path d="M9.29 9.894V8.13a2.224 2.224 0 014.447 0v1.765" stroke="currentColor" stroke-linecap="round" stroke-linejoin="round"/><path d="M8.066 14.21c.042.55.489.973 1.037 1.002a45.16 45.16 0 004.818 0 1.092 1.092 0 001.037-1.001 20.97 20.97 0 000-3.306 1.092 1.092 0 00-1.037-1.002 45.488 45.488 0 00-4.817 0 1.091 1.091 0 00-1.038 1.002 21.113 21.113 0 000 3.306zM1.056 3.867c.016.55.446 1 .995 1.015.187.005.373.005.56 0a1.033 1.033 0 00.996-1.015 18.67 18.67 0 000-1.132 1.033 1.033 0 00-.995-1.014 10.25 10.25 0 00-.56 0 1.033 1.033 0 00-.996 1.014c-.011.38-.011.754 0 1.132zm2.372 5.24c.015.55.446 1 .995 1.015.187.006.373.006.56 0a1.033 1.033 0 00.996-1.015c.012-.38.012-.752 0-1.131a1.033 1.033 0 00-.996-1.015 10.25 10.25 0 00-.56 0 1.033 1.033 0 00-.995 1.014c-.01.379-.01.753 0 1.132zm2.56-7.286v2.96m2.51-2.96v2.96M1.049 7.062v2.96" stroke="currentColor" stroke-linecap="round" stroke-linejoin="round"/></svg>