<svg xmlns="http://www.w3.org/2000/svg" viewBox="0 0 16 16"><g clip-path="url(#a)"><path fill-rule="evenodd" d="M2.36 2.36C3.695 1.028 5.623.358 8 .358c2.378 0 4.306.67 5.64 2.004 1.332 1.332 2.002 3.26 2.002 5.638 0 2.377-.67 4.306-2.004 5.64-1.333 1.332-3.261 2.003-5.639 2.003s-4.306-.67-5.64-2.004C1.028 12.306.358 10.378.358 8c0-2.377.67-4.305 2.004-5.638Zm8.568 2.712a.5.5 0 0 1 0 .707L8.708 8l2.22 2.22a.5.5 0 0 1-.707.708l-2.22-2.22-2.221 2.22a.5.5 0 0 1-.707-.707L7.293 8l-2.22-2.22a.5.5 0 1 1 .707-.708L8 7.292l2.221-2.22a.5.5 0 0 1 .707 0Z" clip-rule="evenodd"/></g><defs><clipPath id="a"><path d="M0 0h16v16H0z"/></clipPath></defs></svg>