<svg fill="none" xmlns="http://www.w3.org/2000/svg" viewBox="0 0 16 16"><g clip-path="url(#clip0_2554_6162)" stroke="currentColor" stroke-linecap="round" stroke-linejoin="round"><path d="M5.733 14.238a1.715 1.715 0 003.022 0M7.143 1.714A3.982 3.982 0 003.16 5.696c0 .857-.143 1.543-.359 2.087-.249.63-1.002.833-1.508 1.282-.638.566-.485 1.652.1 2.085 0 0 .983.85 5.749.85s5.748-.85 5.748-.85c.792-.585.793-2.37-.886-2.437M14.306 1.694l-4.04 4.04m0-4.04l4.04 4.04"/></g><defs><clipPath id="clip0_2554_6162"><path fill="currentColor" d="M0 0h16v16H0z"/></clipPath></defs></svg>