<svg fill="none" xmlns="http://www.w3.org/2000/svg" viewBox="0 0 16 16"><g clip-path="url(#clip0_2554_6214)" stroke="currentColor" stroke-linecap="round" stroke-linejoin="round"><path d="M1.003 9.159h8.876M6.533 3.335a5.325 5.325 0 00-2.983.92 5.752 5.752 0 00-2.042 2.471 6.118 6.118 0 00-.456 3.242 5.986 5.986 0 001.275 2.99 5.515 5.515 0 002.602 1.792 5.257 5.257 0 003.108.03 5.502 5.502 0 002.633-1.742 5.974 5.974 0 001.326-2.964"/><path d="M6.536 3.335s-2.129 2.61-2.129 5.829c0 3.221 2.13 5.831 2.13 5.831s2.13-2.609 2.13-5.83A7.938 7.938 0 008.5 7.573M12 7.327c1.92 0 3-1.14 3-3.164C15 2.138 13.92 1 12 1S9 2.138 9 4.163c0 2.024 1.08 3.164 3 3.164zM12 2.669v1.46M12 5.522v.136"/></g><defs><clipPath id="clip0_2554_6214"><path fill="currentColor" d="M0 0h16v16H0z"/></clipPath></defs></svg>