<svg fill="none" xmlns="http://www.w3.org/2000/svg" viewBox="0 0 16 17"><g clip-path="url(#clip0_2567_1519)" stroke="currentColor" stroke-linecap="round" stroke-linejoin="round"><path d="M13.46 3.254c-.56-.56-.646-1.074-1.054-1.593a.785.785 0 00-1.24 0c-.408.518-.494 1.032-1.055 1.593-.56.56-1.075.647-1.592 1.054a.785.785 0 000 1.24c.517.408 1.032.495 1.592 1.055.56.56.647 1.074 1.055 1.593a.785.785 0 001.24 0c.408-.518.493-1.032 1.054-1.593.56-.56 1.075-.647 1.592-1.054a.785.785 0 000-1.241c-.517-.407-1.031-.494-1.591-1.054zM.736 10.095h8.877M6.266 4.571a5.531 5.531 0 105.463 6.391"/><path d="M6.27 4.571S4.14 7.047 4.14 10.1c0 3.055 2.13 5.53 2.13 5.53S8.4 13.156 8.4 10.1a7.154 7.154 0 00-.166-1.51"/></g><defs><clipPath id="clip0_2567_1519"><path fill="currentColor" transform="translate(0 .5)" d="M0 0h16v16H0z"/></clipPath></defs></svg>