<svg fill="none" xmlns="http://www.w3.org/2000/svg" viewBox="0 0 16 16"><g clip-path="url(#clip0_2554_6230)" stroke="currentColor" stroke-linecap="round" stroke-linejoin="round"><path d="M8 .615C6.583.615 5.707.8 5.4.88a.829.829 0 00-.234.103c-.356.223-1.497.967-2.278 1.793-.718.76-1.497 1.826-1.82 2.28a1.063 1.063 0 00-.188.482C.817 6.031.693 7.117.693 8c0 .883.125 1.968.187 2.46.022.174.087.34.189.483.322.454 1.101 1.52 1.82 2.28.776.823 1.913 1.566 2.273 1.79a.853.853 0 00.243.107c.312.08 1.185.265 2.595.265 1.41 0 2.284-.185 2.595-.265a.853.853 0 00.244-.106c.36-.225 1.497-.968 2.274-1.791.717-.76 1.496-1.826 1.819-2.28.101-.143.166-.31.188-.484.063-.491.186-1.577.186-2.459 0-.883-.123-1.968-.186-2.46a1.064 1.064 0 00-.188-.483c-.323-.454-1.101-1.52-1.819-2.28-.781-.825-1.922-1.57-2.279-1.794A.83.83 0 0010.6.88C10.291.802 9.417.615 8 .615zM8 4.677v3.931M8 10.615v.71"/></g><defs><clipPath id="clip0_2554_6230"><path fill="currentColor" d="M0 0h16v16H0z"/></clipPath></defs></svg>