<svg fill="none" xmlns="http://www.w3.org/2000/svg" viewBox="0 0 16 16"><g clip-path="url(#clip0_2554_6237)" stroke="currentColor" stroke-linecap="round" stroke-linejoin="round"><path d="M8.32 2.127c1.5 0 3.134.132 4.623.302a2.204 2.204 0 011.943 1.954 36.6 36.6 0 010 8.066 2.201 2.201 0 01-1.943 1.952c-1.49.168-3.124.297-4.622.297-1.307 0-2.716-.098-4.043-.234l-3.385.806.784-3.61c-.24-2.473-.188-4.817.082-7.277a2.206 2.206 0 011.943-1.954c.663-.076 1.327-.14 1.992-.191"/><path d="M6.61 8.99a1.558 1.558 0 100-3.115 1.558 1.558 0 000 3.116zM10.21 8.99a1.558 1.558 0 100-3.115M9.154 10.98a2.62 2.62 0 00-5.088 0M12.75 10.98a2.62 2.62 0 00-2.544-1.988M9.792.645a3.573 3.573 0 00-1.483 1.482c.296.594.889 1.186 1.482 1.482"/></g><defs><clipPath id="clip0_2554_6237"><path fill="currentColor" d="M0 0h16v16H0z"/></clipPath></defs></svg>