<svg fill="none" xmlns="http://www.w3.org/2000/svg" viewBox="0 0 16 16"><g clip-path="url(#clip0_2554_6259)" stroke="currentColor" stroke-linecap="round" stroke-linejoin="round"><path d="M11.321 14.962c.789-.076 1.56-.169 2.304-.267a1.134 1.134 0 00.976-.984c.097-.76.182-1.52.256-2.282M4.62 1.038c-.77.075-1.538.164-2.305.267a1.134 1.134 0 00-.977.983 76.129 76.129 0 00-.255 2.283M11.321 1.038c.789.075 1.56.169 2.304.267a1.134 1.134 0 01.976.983c.091.736.183 1.5.256 2.283M4.62 14.962a66.975 66.975 0 01-2.305-.267 1.134 1.134 0 01-.977-.984c-.096-.76-.181-1.52-.255-2.282M8.048 10.745c1.646 0 2.571-.926 2.571-2.571 0-1.646-.925-2.572-2.571-2.572-1.646 0-2.571.926-2.571 2.572 0 1.645.925 2.571 2.571 2.571z"/></g><defs><clipPath id="clip0_2554_6259"><path fill="currentColor" d="M0 0h16v16H0z"/></clipPath></defs></svg>