<svg viewBox="0 0 16 16" fill="none" xmlns="http://www.w3.org/2000/svg"><g clip-path="url(#clip0_908_222492)"><path d="M11.321 14.9624C12.1096 14.8859 12.881 14.7933 13.625 14.695C13.8737 14.662 14.1043 14.5476 14.2809 14.3695C14.4575 14.1914 14.5701 13.9599 14.601 13.711C14.6979 12.9516 14.7833 12.1907 14.857 11.4287" stroke="currentColor" stroke-linecap="round" stroke-linejoin="round"/><path d="M4.61937 1.03809C3.84983 1.11339 3.08171 1.20255 2.31537 1.30551C2.06673 1.3382 1.83594 1.4524 1.65913 1.63024C1.48232 1.80809 1.36946 2.03954 1.33823 2.28837C1.2468 3.02551 1.15652 3.79009 1.08337 4.5718" stroke="currentColor" stroke-linecap="round" stroke-linejoin="round"/><path d="M11.321 1.03809C12.1096 1.11351 12.881 1.20723 13.625 1.30551C13.8735 1.33843 14.104 1.45274 14.2806 1.63056C14.4572 1.80839 14.5699 2.03971 14.601 2.28837C14.6925 3.02437 14.7839 3.78894 14.857 4.5718" stroke="currentColor" stroke-linecap="round" stroke-linejoin="round"/><path d="M4.61937 14.9624C3.84989 14.8866 3.08177 14.7975 2.31537 14.695C2.06656 14.6623 1.83564 14.5479 1.65881 14.3698C1.48198 14.1917 1.36923 13.96 1.33823 13.711C1.24174 12.9516 1.15677 12.1907 1.08337 11.4287" stroke="currentColor" stroke-linecap="round" stroke-linejoin="round"/><path d="M8.04799 10.7454C9.69371 10.7454 10.6194 9.81968 10.6194 8.17397C10.6194 6.52825 9.69371 5.60254 8.04799 5.60254C6.40228 5.60254 5.47656 6.52825 5.47656 8.17397C5.47656 9.81968 6.40228 10.7454 8.04799 10.7454Z" stroke="currentColor" stroke-linecap="round" stroke-linejoin="round"/></g><defs><clipPath id="clip0_908_222492"><rect width="16" height="16" fill="currentColor"/></clipPath></defs></svg>