<svg viewBox="0 0 16 16" fill="none" xmlns="http://www.w3.org/2000/svg"><g clip-path="url(#clip0_568_128477)"><path d="M9.37109 12.3566H14.8568" stroke="currentColor" stroke-linecap="round" stroke-linejoin="round"/><path d="M12.6289 14.6183C13.622 13.8046 14.0838 13.3097 14.8575 12.3555C14.0838 11.4035 13.622 10.9075 12.6289 10.0938" stroke="currentColor" stroke-linecap="round" stroke-linejoin="round"/><path d="M4.98242 12.3531C4.98242 12.6413 5.03918 12.9266 5.14945 13.1928C5.25972 13.459 5.42136 13.7009 5.62511 13.9047C5.82887 14.1085 6.07077 14.2701 6.33699 14.3804C6.60321 14.4906 6.88855 14.5474 7.17671 14.5474C7.46487 14.5474 7.7502 14.4906 8.01642 14.3804C8.28265 14.2701 8.52454 14.1085 8.7283 13.9047C8.93206 13.7009 9.09369 13.459 9.20396 13.1928C9.31424 12.9266 9.37099 12.6413 9.37099 12.3531C9.37099 11.7711 9.13981 11.213 8.7283 10.8015C8.31679 10.39 7.75867 10.1588 7.17671 10.1588C6.59475 10.1588 6.03662 10.39 5.62511 10.8015C5.2136 11.213 4.98242 11.7711 4.98242 12.3531Z" stroke="currentColor" stroke-linecap="round" stroke-linejoin="round"/><path d="M4.98258 12.3531H1.14258" stroke="currentColor" stroke-linecap="round" stroke-linejoin="round"/><path d="M7.17773 10.1589V6.90173" stroke="currentColor" stroke-linecap="round" stroke-linejoin="round"/><path d="M9.96631 6.83771C10.231 6.82726 10.4822 6.71835 10.6708 6.53231C10.8594 6.34627 10.9717 6.09652 10.9857 5.832C11.049 4.70527 11.049 3.57587 10.9857 2.44914C10.972 2.18423 10.8596 1.93404 10.6708 1.74774C10.4819 1.56143 10.2302 1.45248 9.96516 1.44229C9.03646 1.40536 8.10717 1.38516 7.17774 1.38171C6.52288 1.38171 5.32631 1.40229 4.38916 1.44229C4.12447 1.45274 3.87323 1.56165 3.68465 1.74769C3.49608 1.93373 3.38377 2.18348 3.36974 2.448C3.30644 3.57473 3.30644 4.70413 3.36974 5.83086C3.38352 6.09577 3.49586 6.34596 3.68471 6.53226C3.87355 6.71857 4.12523 6.82752 4.39031 6.83771C5.32631 6.87771 6.52288 6.89829 7.17774 6.89829C7.83259 6.89829 9.02916 6.87771 9.96631 6.83771Z" stroke="currentColor" stroke-linecap="round" stroke-linejoin="round"/></g><defs><clipPath id="clip0_568_128477"><rect width="16" height="16" fill="currentColor"/></clipPath></defs></svg>