<svg viewBox="0 0 17 17" fill="none" xmlns="http://www.w3.org/2000/svg">
<g>
<path d="M10.5665 4.8246C10.5436 4.43031 10.5128 4.03945 10.4739 3.65545C10.4251 3.17669 10.2127 2.7294 9.87256 2.389C9.53238 2.04861 9.08521 1.83595 8.60648 1.78688C7.75247 1.6937 6.89413 1.64563 6.03505 1.64288C5.15962 1.64288 4.29791 1.69888 3.46362 1.78688C2.98489 1.83595 2.53772 2.04861 2.19754 2.389C1.85735 2.7294 1.64497 3.17669 1.59619 3.65545C1.50917 4.50565 1.46492 5.35968 1.46362 6.21431C1.46362 7.08517 1.51277 7.94345 1.59619 8.77431C1.64546 9.25266 1.85807 9.69943 2.19821 10.0394C2.53835 10.3793 2.98524 10.5916 3.46362 10.6406C3.84762 10.6817 4.23734 10.7149 4.63162 10.74" stroke="currentColor" stroke-linecap="round" stroke-linejoin="round"/>
<path d="M12.0519 6.26233C12.4314 6.28519 12.8085 6.31947 13.1788 6.35833C13.6573 6.40764 14.1042 6.62041 14.4442 6.96078C14.7841 7.30115 14.9963 7.74831 15.0451 8.2269C15.1285 9.05662 15.1776 9.9149 15.1776 10.7858C15.1776 11.6566 15.1285 12.5149 15.0451 13.3446C14.9963 13.8232 14.7841 14.2704 14.4442 14.6107C14.1042 14.9511 13.6573 15.1639 13.1788 15.2132C12.3248 15.3062 11.4664 15.3542 10.6074 15.3572C9.73079 15.3572 8.86793 15.3012 8.03364 15.2132C7.55511 15.1639 7.10821 14.9511 6.76826 14.6107C6.42831 14.2704 6.21608 13.8232 6.16736 13.3446C6.12964 12.9652 6.09878 12.5789 6.07593 12.188" stroke="currentColor" stroke-linecap="round" stroke-linejoin="round"/>
<path d="M9.112 6.26459C8.74857 6.28859 8.38857 6.32173 8.03429 6.3583C7.55576 6.40761 7.10886 6.62038 6.7689 6.96075C6.42895 7.30113 6.21673 7.74829 6.168 8.22687C6.13143 8.5903 6.10171 8.9583 6.07886 9.33202" stroke="currentColor" stroke-linecap="round" stroke-linejoin="round"/>
<path d="M10.5665 7.66803C10.5436 8.04174 10.5139 8.41203 10.4773 8.7766C10.4286 9.25519 10.2164 9.70235 9.87642 10.0427C9.53646 10.3831 9.08956 10.5959 8.61103 10.6452C8.24418 10.684 7.87161 10.716 7.49561 10.74" stroke="currentColor" stroke-linecap="round" stroke-linejoin="round"/>
</g>
</svg>
