<svg viewBox="0 0 16 16" fill="none" xmlns="http://www.w3.org/2000/svg">
<g clip-path="url(#clip0_2285_186338)">
<path d="M9.431 15.5H6.569C6.52808 15.5002 6.48755 15.4921 6.44989 15.4761C6.41223 15.4601 6.37823 15.4366 6.35 15.407C6.32179 15.377 6.30005 15.3416 6.28611 15.3029C6.27218 15.2642 6.26635 15.223 6.269 15.182L6.323 14.24C5.78116 14.0946 5.26072 13.8787 4.775 13.598L4.145 14.303C4.11764 14.3333 4.08436 14.3578 4.04722 14.3748C4.01008 14.3918 3.96985 14.4011 3.929 14.402C3.88852 14.403 3.84824 14.3959 3.8106 14.3809C3.77297 14.3659 3.73874 14.3435 3.71 14.315L1.68501 12.29C1.65647 12.2613 1.63405 12.227 1.6191 12.1894C1.60415 12.1518 1.59697 12.1115 1.598 12.071C1.59893 12.0301 1.60818 11.9899 1.62521 11.9528C1.64223 11.9156 1.66666 11.8824 1.697 11.855L2.402 11.225C2.1222 10.7392 1.90737 10.2187 1.763 9.677L0.818006 9.731C0.776952 9.73365 0.735793 9.72782 0.697086 9.71389C0.658379 9.69995 0.622952 9.67821 0.593006 9.65C0.563389 9.62177 0.53986 9.58777 0.523867 9.55011C0.507873 9.51245 0.499753 9.47192 0.500006 9.431V6.569C0.499753 6.52808 0.507873 6.48755 0.523867 6.44989C0.53986 6.41223 0.563389 6.37823 0.593006 6.35C0.622952 6.32179 0.658379 6.30005 0.697086 6.28611C0.735793 6.27218 0.776952 6.26635 0.818006 6.269L1.766 6.323C1.91067 5.78185 2.12656 5.26231 2.408 4.778L1.697 4.145C1.66666 4.11764 1.64223 4.08436 1.62521 4.04722C1.60818 4.01008 1.59893 3.96985 1.598 3.929C1.59697 3.88852 1.60415 3.84824 1.6191 3.8106C1.63405 3.77297 1.65647 3.73874 1.68501 3.71L3.71 1.68501C3.73874 1.65647 3.77297 1.63405 3.8106 1.6191C3.84824 1.60415 3.88852 1.59697 3.929 1.598C3.96985 1.59893 4.01008 1.60818 4.04722 1.62521C4.08436 1.64223 4.11764 1.66666 4.145 1.697L4.778 2.405C5.26302 2.12572 5.7824 1.91091 6.323 1.766L6.269 0.818006C6.26635 0.776952 6.27218 0.735793 6.28611 0.697086C6.30005 0.658379 6.32179 0.622952 6.35 0.593006C6.37823 0.563389 6.41223 0.53986 6.44989 0.523867C6.48755 0.507873 6.52808 0.499753 6.569 0.500006H9.431C9.47192 0.499753 9.51245 0.507873 9.55011 0.523867C9.58777 0.53986 9.62177 0.563389 9.65 0.593006C9.67821 0.622952 9.69995 0.658379 9.71389 0.697086C9.72782 0.735793 9.73365 0.776952 9.731 0.818006L9.677 1.766C10.2177 1.91196 10.7371 2.12777 11.222 2.408L11.855 1.697C11.8824 1.66666 11.9156 1.64223 11.9528 1.62521C11.9899 1.60818 12.0301 1.59893 12.071 1.598C12.1525 1.59758 12.231 1.62876 12.29 1.68501L14.315 3.71C14.3435 3.73874 14.3659 3.77297 14.3809 3.8106C14.3959 3.84824 14.403 3.88852 14.402 3.929C14.4011 3.96985 14.3918 4.01008 14.3748 4.04722C14.3578 4.08436 14.3333 4.11764 14.303 4.145L13.595 4.775C13.8753 5.26096 14.0911 5.78133 14.237 6.323L15.182 6.269C15.223 6.26635 15.2642 6.27218 15.3029 6.28611C15.3416 6.30005 15.377 6.32179 15.407 6.35C15.4366 6.37823 15.4601 6.41223 15.4761 6.44989C15.4921 6.48755 15.5002 6.52808 15.5 6.569V9.431C15.5002 9.47192 15.4921 9.51245 15.4761 9.55011C15.4601 9.58777 15.4366 9.62177 15.407 9.65C15.3452 9.70497 15.2646 9.73399 15.182 9.731L14.237 9.677C14.0924 10.2191 13.8765 10.7397 13.595 11.225L14.303 11.855C14.3333 11.8824 14.3578 11.9156 14.3748 11.9528C14.3918 11.9899 14.4011 12.0301 14.402 12.071C14.403 12.1115 14.3959 12.1518 14.3809 12.1894C14.3659 12.227 14.3435 12.2613 14.315 12.29L12.29 14.315C12.2613 14.3435 12.227 14.3659 12.1894 14.3809C12.1518 14.3959 12.1115 14.403 12.071 14.402C12.0301 14.4011 11.9899 14.3918 11.9528 14.3748C11.9156 14.3578 11.8824 14.3333 11.855 14.303L11.228 13.598C10.7416 13.8795 10.2201 14.0954 9.677 14.24L9.731 15.182C9.73365 15.223 9.72782 15.2642 9.71389 15.3029C9.69995 15.3416 9.67821 15.377 9.65 15.407C9.62177 15.4366 9.58777 15.4601 9.55011 15.4761C9.51245 15.4921 9.47192 15.5002 9.431 15.5ZM6.887 14.9H9.113L9.05 14.027C9.0483 13.9576 9.07069 13.8899 9.11336 13.8352C9.15602 13.7805 9.21632 13.7422 9.284 13.727C9.93796 13.5754 10.561 13.3126 11.126 12.95C11.186 12.9121 11.2576 12.8967 11.3279 12.9066C11.3982 12.9165 11.4627 12.951 11.51 13.004L12.092 13.658L13.667 12.083L13.01 11.483C12.9618 11.4379 12.9298 11.3783 12.919 11.3132C12.9081 11.2481 12.919 11.1813 12.95 11.123C13.3059 10.5623 13.5617 9.94417 13.706 9.296C13.7212 9.22832 13.7595 9.16802 13.8142 9.12536C13.8689 9.08269 13.9366 9.0603 14.006 9.062L14.885 9.113V6.887L14.021 6.95C13.9516 6.9517 13.8839 6.92931 13.8292 6.88664C13.7745 6.84398 13.7362 6.78368 13.721 6.716C13.5707 6.06354 13.3099 5.44158 12.95 4.877C12.9121 4.81696 12.8967 4.74542 12.9066 4.67511C12.9165 4.60479 12.951 4.54027 13.004 4.493L13.661 3.908L12.086 2.333L11.486 2.993C11.4402 3.0421 11.3792 3.0744 11.3128 3.08474C11.2465 3.09507 11.1786 3.08284 11.12 3.05C10.5591 2.69663 9.94239 2.441 9.296 2.294C9.22832 2.27876 9.16802 2.24054 9.12536 2.18584C9.08269 2.13115 9.0603 2.06335 9.062 1.994L9.113 1.11201H6.887L6.95 1.982C6.9517 2.05135 6.92931 2.11915 6.88664 2.17384C6.84398 2.22854 6.78368 2.26676 6.716 2.282C6.06447 2.43075 5.4434 2.69054 4.88 3.05C4.81996 3.0879 4.74842 3.10327 4.6781 3.09339C4.60779 3.0835 4.54327 3.04899 4.496 2.996L3.896 2.339L2.321 3.914L2.981 4.514C3.03206 4.55831 3.06665 4.61857 3.07918 4.685C3.0917 4.75143 3.08142 4.82015 3.05 4.88C2.69448 5.44009 2.43776 6.05705 2.291 6.704C2.27576 6.77168 2.23754 6.83198 2.18284 6.87464C2.12815 6.91731 2.06035 6.9397 1.991 6.938L1.11201 6.887V9.113L1.976 9.05C2.04535 9.0483 2.11315 9.07069 2.16784 9.11336C2.22254 9.15602 2.26076 9.21632 2.276 9.284C2.42616 9.937 2.68801 10.5592 3.05 11.123C3.0879 11.183 3.10327 11.2546 3.09339 11.3249C3.0835 11.3952 3.04899 11.4597 2.996 11.507L2.342 12.107L3.917 13.682L4.502 13.028C4.54562 12.9733 4.60696 12.9356 4.67543 12.9214C4.74391 12.9071 4.81521 12.9172 4.877 12.95C5.43814 13.3056 6.05609 13.5623 6.704 13.709C6.77168 13.7242 6.83198 13.7625 6.87464 13.8172C6.91731 13.8719 6.9397 13.9396 6.938 14.009L6.887 14.9ZM8 12.554C4.442 12.554 4.4 8.768 4.4 8.729V4.85C4.4003 4.79077 4.41812 4.73296 4.45122 4.68384C4.48432 4.63473 4.53122 4.59651 4.586 4.574L7.886 3.212C7.92181 3.19576 7.96068 3.18736 8 3.18736C8.03932 3.18736 8.07819 3.19576 8.114 3.212L11.414 4.574C11.4688 4.59651 11.5157 4.63473 11.5488 4.68384C11.5819 4.73296 11.5997 4.79077 11.6 4.85V8.75C11.6 8.777 11.558 12.554 8 12.554ZM5 5.054V8.729C5 8.861 5.045 11.954 8 11.954C10.955 11.954 11 8.87 11 8.75V5.063L8 3.824L5 5.054ZM8 11.312C6.095 11.312 5.624 8.96 5.6 8.858C5.59853 8.84003 5.59853 8.82197 5.6 8.804V5.849C5.59994 5.78892 5.61793 5.7302 5.65163 5.68046C5.68532 5.63071 5.73318 5.59223 5.789 5.57L7.889 4.721C7.96028 4.69262 8.03972 4.69262 8.111 4.721L10.211 5.57C10.2668 5.59223 10.3147 5.63071 10.3484 5.68046C10.3821 5.7302 10.4001 5.78892 10.4 5.849V8.813C10.4015 8.83097 10.4015 8.84903 10.4 8.867C10.376 8.969 9.905 11.321 8 11.321V11.312ZM8.3 5.45V10.691C9.392 10.46 9.755 8.99 9.8 8.78V6.05L8.3 5.45ZM6.2 8.786C6.248 8.996 6.614 10.463 7.7 10.697V5.45L6.2 6.05V8.786Z" fill="currentColor" stroke="currentColor" stroke-width="0.25"/>
</g>
</svg>
