<svg xmlns="http://www.w3.org/2000/svg" viewBox="0 0 16 16"><g clip-path="url(#a)"><path fill-rule="evenodd" d="M2.36 2.36C3.695 1.028 5.623.358 8 .358c2.378 0 4.306.67 5.64 2.004 1.332 1.332 2.002 3.26 2.002 5.638 0 2.377-.67 4.306-2.004 5.64-1.333 1.332-3.261 2.003-5.639 2.003s-4.306-.67-5.64-2.004C1.028 12.306.358 10.378.358 8c0-2.377.67-4.305 2.004-5.638Zm5.114 1.835c.309-.08.631-.09.944-.032l.012.002a2.2 2.2 0 0 1 1.698 1.698l.002.007c.083.424.033.82-.147 1.174-.176.345-.456.614-.776.83-.305.202-.49.336-.605.455-.095.1-.102.148-.102.19a.5.5 0 1 1-1 0c0-.37.161-.654.382-.883.202-.21.48-.401.768-.594.228-.153.367-.305.442-.452.07-.137.1-.302.057-.523a1.2 1.2 0 0 0-.92-.922 1.187 1.187 0 0 0-1.397 1.153.5.5 0 0 1-1-.012 2.187 2.187 0 0 1 1.642-2.091ZM8.5 11.09a.5.5 0 0 0-1 0v.286a.5.5 0 0 0 1 0v-.286Z" clip-rule="evenodd"/></g><defs><clipPath id="a"><path d="M0 0h16v16H0z"/></clipPath></defs></svg>