<svg fill="none" xmlns="http://www.w3.org/2000/svg" viewBox="0 0 16 16"><g clip-path="url(#clip0_2554_6275)" stroke="currentColor" stroke-linecap="round" stroke-linejoin="round"><path d="M4 5.15v6.285a2.286 2.286 0 002.286 2.286h1.143M4 8.007h3.429"/><path d="M4.157.578c-.728 0-1.414.028-2.031.092C1.479.736.869 1.122.695 1.749.61 2.05.57 2.394.57 2.864s.04.815.124 1.117c.174.626.784 1.012 1.43 1.078.676.065 1.353.096 2.032.092.725 0 1.411-.028 2.03-.092.646-.066 1.256-.452 1.43-1.078.084-.302.125-.646.125-1.117 0-.47-.041-.814-.125-1.115-.172-.627-.783-1.013-1.43-1.08a20.16 20.16 0 00-2.03-.09zM11.429 6.245c-.914 0-1.77.027-2.525.09-.56.047-1.138.302-1.343.825-.089.23-.132.491-.132.847s.043.618.132.848c.206.523.782.777 1.343.825.754.063 1.611.09 2.525.09.914 0 1.769-.027 2.524-.09.56-.047 1.138-.302 1.343-.825.09-.23.133-.492.133-.848s-.044-.617-.133-.846c-.206-.526-.782-.78-1.343-.826a31.007 31.007 0 00-2.524-.09zM11.429 11.897c-.914 0-1.77.026-2.525.09-.56.047-1.138.301-1.343.826-.089.228-.132.491-.132.845 0 .357.043.619.132.848.206.525.782.779 1.343.825.754.064 1.611.09 2.525.09.914 0 1.769-.026 2.524-.09.56-.045 1.138-.3 1.343-.825.09-.228.133-.491.133-.847s-.044-.617-.133-.846c-.206-.526-.782-.779-1.343-.827a31.017 31.017 0 00-2.524-.089z"/></g><defs><clipPath id="clip0_2554_6275"><path fill="currentColor" d="M0 0h16v16H0z"/></clipPath></defs></svg>