<svg fill="none" xmlns="http://www.w3.org/2000/svg" viewBox="0 0 16 17"><g clip-path="url(#clip0_2567_1423)" stroke="currentColor" stroke-linecap="round" stroke-linejoin="round"><path d="M6.188 4.2v-.608m0 6.088v-.608m1.593-3.716c0-.625-.514-1.157-1.593-1.157-1.08 0-1.593.501-1.593 1.157 0 .51.514 1.002 1.593 1.157 1.08.154 1.837.51 1.837 1.28 0 .694-.757 1.276-1.837 1.276s-1.836-.496-1.836-1.156"/><path d="M11.532 8.265c.107-.5.162-1.044.162-1.63 0-3.528-1.984-5.513-5.512-5.513C2.654 1.122.67 3.107.67 6.635c0 2.67 1.137 4.455 3.22 5.166m.713 4.078s2.696-3.563 3.891-3.466c.96.078 1.046 2.12 1.936 1.751.594-.245 3.982-3.319 4.815-4.08"/><path d="M12.396 9.83c.886-.223 2.038-.133 2.88.222.221.886.132 2.038-.222 2.88"/></g><defs><clipPath id="clip0_2567_1423"><path fill="currentColor" transform="translate(0 .5)" d="M0 0h16v16H0z"/></clipPath></defs></svg>