<svg fill="none" xmlns="http://www.w3.org/2000/svg" viewBox="0 0 16 17"><g clip-path="url(#clip0_2567_1412)" stroke="currentColor" stroke-linecap="round" stroke-linejoin="round"><path d="M8 5.072V3.929m0 6.285v1.143m.077-10h-.153A6.055 6.055 0 001.886 6.98c-.11 1.544.238 3.11 1.175 4.343 1.19 1.561 2.398 2.635 4.327 3.92a1.108 1.108 0 001.227 0c1.93-1.285 3.137-2.359 4.327-3.92.937-1.232 1.286-2.799 1.175-4.343a6.055 6.055 0 00-6.04-5.623z"/><path d="M6.36 9.357c.176.5.652.857 1.212.857h.857a1.286 1.286 0 00.275-2.542L7.189 7.34a1.147 1.147 0 01.245-2.268h.995a1.282 1.282 0 011.213.857"/></g><defs><clipPath id="clip0_2567_1412"><path fill="currentColor" transform="translate(0 .5)" d="M0 0h16v16H0z"/></clipPath></defs></svg>