<svg fill="none" xmlns="http://www.w3.org/2000/svg" viewBox="0 0 16 17"><path d="M1.234 11.726A2.18 2.18 0 003.31 13.73c3.125.165 6.257.165 9.382 0a2.18 2.18 0 002.075-2.003 41.715 41.715 0 000-6.452 2.18 2.18 0 00-2.075-2.002 88.936 88.936 0 00-9.382 0 2.181 2.181 0 00-2.075 2.002 41.702 41.702 0 000 6.452zm9.276-4.663h1.728M10.51 9.938h1.728" stroke="currentColor" stroke-linecap="round" stroke-linejoin="round"/><path d="M7.184 8.02v-.643a1.269 1.269 0 00-2.166-.897" stroke="currentColor" stroke-linecap="round" stroke-linejoin="round"/><path d="M3.878 10.452a.415.415 0 00.376.346c.532.04 1.089.094 1.662.094.572 0 1.128-.054 1.661-.094a.414.414 0 00.376-.346c.054-.331.115-.675.115-1.028 0-.352-.06-.696-.115-1.026a.415.415 0 00-.376-.347c-.532-.04-1.089-.093-1.661-.093-.573 0-1.13.052-1.662.093a.415.415 0 00-.376.347c-.055.33-.115.674-.115 1.026 0 .353.06.697.115 1.028z" stroke="currentColor" stroke-linecap="round" stroke-linejoin="round"/></svg>