<svg fill="none" xmlns="http://www.w3.org/2000/svg" viewBox="0 0 16 16"><path d="M.858 4.063l.012-.046a1.864 1.864 0 011.424-1.39C3.99 2.286 6.04 2.286 8 2.286c1.959 0 4.01 0 5.705.343a1.86 1.86 0 011.437 1.434m0 7.874a1.86 1.86 0 01-1.436 1.436c-1.697.341-3.748.341-5.706.341-1.959 0-4.01 0-5.706-.343a1.86 1.86 0 01-1.436-1.434M3.542 5.179h2.786M6.328 10.75H3.542M4.935 5.179v5.571M11.03 5.143H8.65v5.714h2.38a1.43 1.43 0 001.428-1.428V6.57a1.43 1.43 0 00-1.428-1.428z" stroke="currentColor" stroke-linecap="round" stroke-linejoin="round"/></svg>