<svg fill="none" xmlns="http://www.w3.org/2000/svg" viewBox="0 0 16 17"><g clip-path="url(#clip0_2567_1512)" stroke="currentColor" stroke-linecap="round" stroke-linejoin="round"><path d="M6.715 13.072c-1.05 0-2.08-.096-3.082-.208a2.935 2.935 0 01-2.579-2.587C.949 9.281.857 8.258.857 7.215c0-1.044.09-2.067.197-3.063a2.935 2.935 0 012.58-2.587c1.002-.112 2.031-.208 3.08-.208 1.05 0 2.08.096 3.082.208a2.935 2.935 0 012.58 2.587c.071.675.136 1.364.17 2.063"/><path d="M6.715 9.86a3.59 3.59 0 00-2.273.812 3.81 3.81 0 00-1.265 2.103c.148.042.301.072.457.089 1.002.112 2.032.208 3.081.208m3.628-1.441v-.908a1.82 1.82 0 013.636 0v.91"/><path d="M9.24 15.13a.594.594 0 00.54.498c.763.057 1.56.133 2.38.133.823 0 1.62-.076 2.384-.133a.594.594 0 00.54-.497c.077-.475.164-.967.164-1.473 0-.506-.087-1-.165-1.473a.594.594 0 00-.54-.497c-.763-.057-1.56-.133-2.382-.133-.82 0-1.618.075-2.382.133a.595.595 0 00-.54.497c-.077.474-.164.967-.164 1.473 0 .506.087.998.165 1.473zM6.702 7.862c1.157 0 1.809-.651 1.809-1.809S7.859 4.245 6.7 4.245c-1.157 0-1.808.652-1.808 1.808 0 1.158.651 1.81 1.809 1.81z"/></g><defs><clipPath id="clip0_2567_1512"><path fill="currentColor" transform="translate(0 .5)" d="M0 0h16v16H0z"/></clipPath></defs></svg>