<svg fill="none" xmlns="http://www.w3.org/2000/svg" viewBox="0 0 16 16"><g clip-path="url(#clip0_2554_6302)" stroke="currentColor" stroke-linecap="round" stroke-linejoin="round"><path d="M11.23 5.558a64.754 64.754 0 00-.155-3.415 1.023 1.023 0 00-.866-.94C8.76.983 7.563.87 6.12.87c-1.442 0-2.64.114-4.088.333a1.023 1.023 0 00-.867.94 62.73 62.73 0 00-.004 9.04c.034.501.431.903.933.945 1.155.098 2.314.156 3.474.171M3.643 4.227H8M3.643 7.389h2.629M11.601 11.641l.857-.857M11.571 15.07c2.175 0 3.4-1.223 3.4-3.4 0-2.174-1.224-3.397-3.4-3.397-2.175 0-3.399 1.223-3.399 3.398s1.223 3.399 3.4 3.399z"/></g><defs><clipPath id="clip0_2554_6302"><path fill="currentColor" d="M0 0h16v16H0z"/></clipPath></defs></svg>