<svg fill="none" xmlns="http://www.w3.org/2000/svg" viewBox="0 0 16 16"><g clip-path="url(#clip0_2554_6312)" stroke="currentColor" stroke-linecap="round" stroke-linejoin="round"><path d="M14.846 8.006c0 4.385-2.469 6.851-6.853 6.851s-6.85-2.466-6.85-6.851c0-4.383 2.466-6.85 6.851-6.85"/><path d="M6.897 4.558c-1.59.36-2.466 1.563-2.466 3.448 0 2.28 1.283 3.562 3.563 3.562 1.976 0 3.204-.963 3.495-2.706M7.994 8.006l2.374-2.375M10.367 5.633l-.142-.462a2.285 2.285 0 01.568-2.289l1.738-1.74.549 1.778 1.777.549-1.74 1.738a2.286 2.286 0 01-2.289.568l-.462-.14v-.002z"/></g><defs><clipPath id="clip0_2554_6312"><path fill="currentColor" d="M0 0h16v16H0z"/></clipPath></defs></svg>