<svg fill="none" xmlns="http://www.w3.org/2000/svg" viewBox="0 0 16 16"><g clip-path="url(#clip0_2554_6328)" stroke="currentColor" stroke-linecap="round" stroke-linejoin="round"><path d="M2.949 2.949l.421.421M8 .857v.594M15.143 8h-.594M1.451 8H.857M13.052 2.949l-.422.421M11.31 6.318c.343.59.52 1.261.515 1.945a3.809 3.809 0 01-.578 2.002 19.34 19.34 0 01-.351.537c-.389.583-.656.983-.731 1.699H5.837c-.075-.739-.344-1.14-.766-1.764a19.876 19.876 0 01-.274-.411 3.826 3.826 0 116.513-4.008zM9.321 15.143H6.68"/></g><defs><clipPath id="clip0_2554_6328"><path fill="currentColor" d="M0 0h16v16H0z"/></clipPath></defs></svg>