<svg fill="none" xmlns="http://www.w3.org/2000/svg" viewBox="0 0 16 16"><g clip-path="url(#clip0_2554_6339)" stroke="currentColor" stroke-linecap="round" stroke-linejoin="round"><path d="M11.16 5.279c.155 1.531-.48 3.134-1.35 4.53L6.19 6.191c1.397-.871 3-1.506 4.531-1.351a.488.488 0 01.44.439zM4.84 10.721c-.155-1.531.48-3.134 1.35-4.53l3.62 3.618c-1.397.871-3 1.506-4.531 1.351a.49.49 0 01-.439-.439z"/><path d="M8 15.143c4.572 0 7.143-2.572 7.143-7.143S12.57.857 8 .857.857 3.43.857 8 3.43 15.143 8 15.143z"/></g><defs><clipPath id="clip0_2554_6339"><path fill="currentColor" d="M0 0h16v16H0z"/></clipPath></defs></svg>