<svg fill="none" xmlns="http://www.w3.org/2000/svg" viewBox="0 0 16 16"><g><path d="M14.931 9.454a2.134 2.134 0 00-2.133-2.132c-.374 0-.549.1-.872.286l-.195-2.482a1.066 1.066 0 00-1.065-1.067L8.48 3.825c.187-.324.29-.457.291-.832a2.133 2.133 0 10-4.266 0c0 .375.097.508.286.832l-2.657.234a1.066 1.066 0 00-1.067 1.067l.035 1.217c.013.535.54.915 1.06 1.042.377.092.73.281 1.008.56a2.133 2.133 0 010 3.017c-.278.276-.627.47-1.008.56-.52.126-1.047.505-1.063 1.041l-.032 1.094c0 .282.114.553.314.754 1.554 1.028 8.692.923 10.037 0a1.065 1.065 0 00.313-.754l.195-2.359c.323.188.497.286.87.286a2.132 2.132 0 002.135-2.13z" stroke="currentColor" stroke-linecap="round" stroke-linejoin="round"/></g><defs><clipPath id="clip0_2554_6346"><path fill="currentColor" d="M0 0h16v16H0z"/></clipPath></defs></svg>