<svg fill="none" xmlns="http://www.w3.org/2000/svg" viewBox="0 0 16 17"><path d="M1.003 9.659H9.88M6.533 3.835a5.325 5.325 0 00-2.983.92 5.752 5.752 0 00-2.042 2.471 6.118 6.118 0 00-.456 3.242 5.986 5.986 0 001.275 2.99 5.515 5.515 0 002.602 1.792 5.257 5.257 0 003.108.03 5.502 5.502 0 002.633-1.742 5.974 5.974 0 001.326-2.964" stroke="currentColor" stroke-linecap="round" stroke-linejoin="round"/><path d="M6.536 3.835s-2.129 2.61-2.129 5.829c0 3.221 2.13 5.831 2.13 5.831s2.13-2.609 2.13-5.83A7.938 7.938 0 008.5 8.073m3.5-.246c1.92 0 3-1.14 3-3.164C15 2.638 13.92 1.5 12 1.5S9 2.638 9 4.663c0 2.024 1.08 3.164 3 3.164zm0-4.658v1.46m0 1.392v.136" stroke="currentColor" stroke-linecap="round" stroke-linejoin="round"/></svg>