<svg fill="none" xmlns="http://www.w3.org/2000/svg" viewBox="0 0 16 16"><g clip-path="url(#clip0_2554_6351)" stroke="currentColor" stroke-linecap="round" stroke-linejoin="round"><path d="M5.714 11.143V8.286L8 7.143l2.286 1.143v2.857L8 12.286l-2.286-1.143zM5.714 11.143l-2.211 1.135M10.286 11.143l2.217 1.13M8 7.143V4.28M.857 14.38v-1.904l1.524-.762 1.524.762v1.904l-1.524.763-1.524-.763zM12.095 14.38v-1.904l1.523-.762 1.525.762v1.904l-1.525.763-1.523-.763zM6.477 3.523V1.62L8 .857l1.523.762v1.904L8 4.286l-1.523-.763z"/></g><defs><clipPath id="clip0_2554_6351"><path fill="currentColor" d="M0 0h16v16H0z"/></clipPath></defs></svg>