<svg viewBox="0 0 24 25" fill="none" xmlns="http://www.w3.org/2000/svg"><path d="M22.7144 23.2144L18.8418 19.3435" stroke="currentColor" stroke-width="1.5" stroke-linecap="round" stroke-linejoin="round"/><path d="M11.3566 21.9286C17.8023 21.9286 21.428 18.3029 21.428 11.8572C21.428 5.41148 17.8023 1.78577 11.3566 1.78577C4.91087 1.78577 1.28516 5.41148 1.28516 11.8572C1.28516 18.3029 4.91087 21.9286 11.3566 21.9286Z" stroke="currentColor" stroke-width="1.5" stroke-linecap="round" stroke-linejoin="round"/><path d="M8.84596 9.34572C9.68596 8.50572 9.81625 7.73429 10.4265 6.956C10.5366 6.81398 10.6777 6.69903 10.8391 6.61995C11.0004 6.54087 11.1777 6.49976 11.3574 6.49976C11.5371 6.49976 11.7144 6.54087 11.8757 6.61995C12.0371 6.69903 12.1782 6.81398 12.2882 6.956C12.8985 7.73257 13.0288 8.504 13.8688 9.34572C14.7088 10.1857 15.4802 10.316 16.2585 10.9263C16.4006 11.0364 16.5155 11.1775 16.5946 11.3388C16.6737 11.5002 16.7148 11.6775 16.7148 11.8571C16.7148 12.0368 16.6737 12.2141 16.5946 12.3755C16.5155 12.5368 16.4006 12.6779 16.2585 12.788C15.482 13.3983 14.7105 13.5286 13.8688 14.3686C13.0288 15.2086 12.8985 15.98 12.2882 16.7583C12.1782 16.9003 12.0371 17.0153 11.8757 17.0943C11.7144 17.1734 11.5371 17.2145 11.3574 17.2145C11.1777 17.2145 11.0004 17.1734 10.8391 17.0943C10.6777 17.0153 10.5366 16.9003 10.4265 16.7583C9.81625 15.98 9.68596 15.2086 8.84596 14.3686C8.00596 13.5286 7.23453 13.3983 6.45625 12.788C6.31423 12.6779 6.19928 12.5368 6.1202 12.3755C6.04111 12.2141 6 12.0368 6 11.8571C6 11.6775 6.04111 11.5002 6.1202 11.3388C6.19928 11.1775 6.31423 11.0364 6.45625 10.9263C7.23282 10.316 8.00425 10.1857 8.84596 9.34572Z" stroke="currentColor" stroke-width="1.5" stroke-linecap="round" stroke-linejoin="round"/></svg>