<svg fill="none" xmlns="http://www.w3.org/2000/svg" viewBox="0 0 16 16"><g clip-path="url(#clip0_2554_6369)" stroke="currentColor" stroke-linecap="round" stroke-linejoin="round"><path d="M15.143 6.176c0-1.344-.071-2.315-.225-3.256-.152-.931-.936-1.617-1.874-1.723C11.421 1.01 9.733.873 8 .873c-1.734 0-3.42.138-5.045.324-.937.106-1.72.792-1.874 1.723C.93 3.86.857 4.832.857 6.176c0 1.343.071 2.315.225 3.255.152.932.936 1.617 1.875 1.724 1.043.12 2.114.219 3.206.275M9.429 13l2.077 2.143c.979-2.81 1.792-4.041 3.637-5.714"/><path d="M1.462 2.034l5.123 4.041a2.286 2.286 0 002.83 0l5.123-4.036"/></g><defs><clipPath id="clip0_2554_6369"><path fill="currentColor" d="M0 0h16v16H0z"/></clipPath></defs></svg>