<svg fill="none" xmlns="http://www.w3.org/2000/svg" viewBox="0 0 16 16"><path d="M8.077.857h-.154A6.055 6.055 0 001.886 6.48c-.111 1.544.237 3.11 1.175 4.343 1.19 1.561 2.397 2.635 4.326 3.92a1.108 1.108 0 001.228 0c1.929-1.285 3.137-2.359 4.327-3.92.937-1.232 1.285-2.799 1.175-4.343A6.055 6.055 0 008.076.857zM5.999 5.286V9.57" stroke="currentColor" stroke-linecap="round" stroke-linejoin="round"/><path d="M8.285 9.571V7.785m0 0v-2.5h1.786c.59 0 1.07.48 1.07 1.073v.356c0 .592-.48 1.072-1.071 1.072H8.285z" stroke="currentColor" stroke-linecap="round" stroke-linejoin="round"/></svg>