<svg viewBox="0 0 16 16" fill="none" xmlns="http://www.w3.org/2000/svg">
<path d="M7.714 7.67533H0C0.000261352 8.13278 0.0907421 8.58568 0.266263 9.00811C0.441783 9.43054 0.698896 9.8142 1.02288 10.1371C1.34687 10.4601 1.73137 10.7159 2.15437 10.8901C2.57737 11.0642 3.03056 11.1532 3.488 11.152H4.908V12.5233C4.908 13.4452 5.27411 14.3293 5.92582 14.9812C6.57753 15.6332 7.46149 15.9996 8.38333 16V8.34533C8.38333 8.16764 8.31275 7.99722 8.1871 7.87157C8.06145 7.74592 7.89103 7.67533 7.71333 7.67533H7.714ZM11.5293 3.838H3.824C3.82418 4.75995 4.19055 5.64409 4.84253 6.29594C5.49451 6.9478 6.37871 7.314 7.30067 7.314H8.72V8.686C8.72071 9.60779 9.08725 10.4916 9.73911 11.1434C10.391 11.7951 11.2749 12.1615 12.1967 12.162V4.50533C12.1967 4.32835 12.1264 4.15861 12.0012 4.03346C11.8761 3.90831 11.7063 3.838 11.5293 3.838ZM15.342 0H7.63667C7.63667 0.922069 8.00296 1.80637 8.65496 2.45837C9.30696 3.11038 10.1913 3.47667 11.1133 3.47667H12.5327V4.848C12.5334 5.76799 12.8987 6.6502 13.5486 7.30136C14.1985 7.95252 15.08 8.31953 16 8.322V0.67C16.0007 0.494156 15.932 0.325135 15.8088 0.199675C15.6856 0.0742155 15.5178 0.0024579 15.342 0Z" fill="#0052CC"/>
</svg>
