<svg fill="none" xmlns="http://www.w3.org/2000/svg" viewBox="0 0 16 16"><g clip-path="url(#clip0_2554_6380)" stroke="currentColor" stroke-linecap="round" stroke-linejoin="round"><path d="M8.334 14.51c.809.74 2.043.79 2.927.14.636-.467 1.275-.962 1.852-1.54.579-.576 1.072-1.215 1.54-1.852.649-.883.6-2.119-.14-2.928a87.938 87.938 0 00-6.625-6.529 2.118 2.118 0 00-1.002-.5C5.53 1.038 2.15.482 1.318 1.315c-.833.834-.278 4.213-.015 5.568.073.374.248.717.502 1.002a87.932 87.932 0 006.529 6.626z"/><path d="M5.328 6.64c.841 0 1.314-.473 1.314-1.314 0-.843-.473-1.316-1.314-1.316-.842 0-1.314.473-1.314 1.315S4.486 6.64 5.328 6.64z"/></g><defs><clipPath id="clip0_2554_6380"><path fill="currentColor" d="M0 0h16v16H0z"/></clipPath></defs></svg>