<svg fill="none" xmlns="http://www.w3.org/2000/svg" viewBox="0 0 16 16"><g clip-path="url(#clip0_2554_6386)" stroke="currentColor" stroke-linecap="round" stroke-linejoin="round"><path d="M5.584 2.418c-.53-.529-.613-1.015-.997-1.504a.742.742 0 00-1.172 0c-.385.49-.466.976-.997 1.505-.529.53-1.015.612-1.505.997a.742.742 0 000 1.173c.49.385.976.466 1.505.996.53.53.612 1.015.997 1.505a.742.742 0 001.172 0c.386-.49.467-.976.997-1.505.53-.53 1.015-.611 1.505-.996a.742.742 0 000-1.173c-.49-.385-.976-.466-1.505-.997v0zM12.776 8.189c-.768-.768-.887-1.472-1.445-2.182a1.074 1.074 0 00-1.699 0c-.558.71-.675 1.414-1.443 2.182s-1.472.885-2.182 1.443a1.074 1.074 0 000 1.7c.71.557 1.414.676 2.182 1.444.766.768.885 1.472 1.443 2.182a1.073 1.073 0 001.7 0c.557-.71.676-1.414 1.444-2.183.767-.766 1.472-.886 2.182-1.444a1.075 1.075 0 000-1.699c-.71-.558-1.413-.675-2.182-1.443z"/></g><defs><clipPath id="clip0_2554_6386"><path fill="currentColor" d="M0 0h16v16H0z"/></clipPath></defs></svg>