<svg fill="none" xmlns="http://www.w3.org/2000/svg" viewBox="0 0 16 17"><g clip-path="url(#clip0_2567_1541)" stroke="currentColor" stroke-linecap="round" stroke-linejoin="round"><path d="M4.782 3.291c-.403.05-.8.103-1.194.151A1.154 1.154 0 002.57 4.498a68.676 68.676 0 000 9.839 1.118 1.118 0 001.022 1.037 51.16 51.16 0 008.818 0 1.117 1.117 0 001.022-1.037 68.685 68.685 0 000-9.839 1.155 1.155 0 00-1.02-1.056l-1.193-.15"/><path d="M6.464 1.438h3.072s1.696 0 1.696 1.696v0s0 1.697-1.696 1.697H6.464s-1.696 0-1.696-1.696v-.001s0-1.696 1.696-1.696zM4.768 9.58h1.486l1.003-1.914 1.517 3.52L10.08 9.58h1.457"/></g><defs><clipPath id="clip0_2567_1541"><path fill="currentColor" transform="translate(0 .5)" d="M0 0h16v16H0z"/></clipPath></defs></svg>