<svg fill="none" xmlns="http://www.w3.org/2000/svg" viewBox="0 0 16 16"><g clip-path="url(#clip0_2554_6418)"><g clip-path="url(#clip1_2554_6418)"><path d="M10.988 2.703c-2.333.155-8.779 2.366-6.126 6.362 1.164 1.471 2.966 1.94 3.948 3.618.582 1.317.117 2.43-.823 3.317-2.06-.015-5.133-3.839-5.947-5.828-.866-2.116 0-9.268 0-9.268S4.454 0 8 0c3.157 0 5.96.904 5.96.904s.735 6.074.173 8.683C10.979 7.69 7.049 6.618 8.675 4.544c.417-.607 1-.816 1.6-1.125.208-.107 1.23-.343.713-.716z" fill="currentColor"/></g></g><defs><clipPath id="clip0_2554_6418"><path fill="currentColor" d="M0 0h16v16H0z"/></clipPath><clipPath id="clip1_2554_6418"><path fill="currentColor" d="M0 0h16v16H0z"/></clipPath></defs></svg>