<svg fill="none" xmlns="http://www.w3.org/2000/svg" viewBox="0 0 16 16"><g clip-path="url(#clip0_2554_6423)" stroke="currentColor" stroke-linecap="round" stroke-linejoin="round"><path d="M11.243 1.576A2.346 2.346 0 009.813.97a45.687 45.687 0 00-6.48 0c-1.157.084-2.042.947-2.094 1.997A101.489 101.489 0 001.117 8c0 1.728.042 3.411.122 5.034.052 1.05.937 1.913 2.095 1.996a45.68 45.68 0 006.48 0 2.346 2.346 0 001.428-.606M5.184 8h10.128M12.063 4.75c1.3.65 2.6 1.95 3.249 3.25-.65 1.3-1.95 2.6-3.25 3.25"/></g><defs><clipPath id="clip0_2554_6423"><path fill="currentColor" d="M0 0h16v16H0z"/></clipPath></defs></svg>