<svg fill="none" xmlns="http://www.w3.org/2000/svg" viewBox="0 0 16 17"><path d="M4.088 4.507a97.61 97.61 0 01.064-1.673 1.07 1.07 0 01.974-1.032c2.315-.191 6.38-.191 8.696 0 .54.043.948.489.973 1.032a87.783 87.783 0 010 8.498 1.073 1.073 0 01-.976 1.032 38.65 38.65 0 01-1.68.096" stroke="currentColor" stroke-linecap="round" stroke-linejoin="round"/><path d="M1.43 14.134a1.07 1.07 0 00.973 1.032c2.315.19 6.38.19 8.696 0a1.071 1.071 0 00.974-1.032 87.848 87.848 0 000-8.498 1.071 1.071 0 00-.974-1.032c-2.315-.19-6.38-.19-8.696 0a1.07 1.07 0 00-.974 1.032 88.467 88.467 0 000 8.498z" stroke="currentColor" stroke-linecap="round" stroke-linejoin="round"/><path d="M10.126 15.232a3.58 3.58 0 00-1.195-2.023 3.402 3.402 0 00-2.19-.804c-.8 0-1.573.285-2.192.805-.592.498-1.028 1.248-1.204 2.02a72.68 72.68 0 006.781 0v.002zM6.74 10.58c1.19 0 1.86-.67 1.86-1.862 0-1.19-.67-1.86-1.86-1.86-1.192 0-1.862.67-1.862 1.86 0 1.191.67 1.862 1.862 1.862z" stroke="currentColor" stroke-linecap="round" stroke-linejoin="round"/></svg>