<svg fill="none" xmlns="http://www.w3.org/2000/svg" viewBox="0 0 16 17"><g clip-path="url(#clip0_2567_1464)" stroke="currentColor" stroke-linecap="round" stroke-linejoin="round"><path d="M13.495 9.331c0 .058.02.115.055.16l.762.96a1.097 1.097 0 01.094 1.235l-.448.772a1.098 1.098 0 01-1.115.537l-1.214-.182a.263.263 0 00-.167.03l-1.438.831a.26.26 0 00-.11.128l-.449 1.143a1.097 1.097 0 01-1.02.698H7.55a1.097 1.097 0 01-1.02-.697l-.449-1.143a.26.26 0 00-.11-.129l-1.438-.83a.262.262 0 00-.167-.033l-1.214.185a1.097 1.097 0 01-1.115-.537l-.447-.773a1.097 1.097 0 01.092-1.235l.766-.96a.255.255 0 00.056-.16V7.67a.263.263 0 00-.055-.16l-.765-.96a1.097 1.097 0 01-.094-1.235l.447-.772a1.097 1.097 0 011.115-.537l1.212.183a.263.263 0 00.165-.031l1.443-.835a.262.262 0 00.11-.129l.45-1.138a1.097 1.097 0 011.021-.698h.896a1.097 1.097 0 011.02.697l.449 1.14a.26.26 0 00.11.132l1.438.83c.05.03.11.04.167.033l1.214-.185a1.097 1.097 0 011.115.537l.447.773a1.096 1.096 0 01-.092 1.235l-.766.96a.256.256 0 00-.056.16v1.66h-.001zm1.934 6.598L.57 1.072"/><path d="M8 10.786c1.463 0 2.285-.823 2.285-2.286S9.463 6.214 8 6.214 5.714 7.037 5.714 8.5 6.537 10.786 8 10.786z"/></g><defs><clipPath id="clip0_2567_1464"><path fill="currentColor" transform="translate(0 .5)" d="M0 0h16v16H0z"/></clipPath></defs></svg>