<svg fill="none" xmlns="http://www.w3.org/2000/svg" viewBox="0 0 16 16"><g clip-path="url(#clip0_2554_6451)" stroke="currentColor" stroke-linecap="round"><path d="M7.727 13.097H2.983c-1.748 0-2.73-1.867-1.276-2.835a8.188 8.188 0 014.556-1.375c.956 0 1.875.163 2.73.464"/><path d="M6.506 6.8c1.902 0 2.972-1.069 2.972-2.971 0-1.902-1.07-2.972-2.972-2.972S3.535 1.927 3.535 3.83 4.605 6.8 6.506 6.8zM11.22 11.508c.403-.403.465-.773.758-1.146a.564.564 0 01.894 0c.293.373.355.743.759 1.146.403.404.773.467 1.147.76a.567.567 0 010 .893c-.373.293-.743.356-1.146.76-.404.402-.467.773-.76 1.146a.566.566 0 01-.894 0c-.293-.373-.355-.744-.758-1.147-.404-.403-.774-.466-1.148-.76a.564.564 0 010-.892c.374-.294.744-.356 1.148-.76z" stroke-linejoin="round"/></g><defs><clipPath id="clip0_2554_6451"><path fill="currentColor" d="M0 0h16v16H0z"/></clipPath></defs></svg>