<svg fill="none" xmlns="http://www.w3.org/2000/svg" viewBox="0 0 16 16"><g clip-path="url(#clip0_2554_6444)" stroke="currentColor" stroke-linecap="round" stroke-linejoin="round"><path d="M2.507 2.5c.56-.56.647-1.074 1.054-1.591a.785.785 0 011.241 0c.407.517.494 1.032 1.054 1.592s1.074.648 1.593 1.054a.785.785 0 010 1.24c-.518.408-1.032.495-1.592 1.055-.56.56-.648 1.075-1.055 1.592a.785.785 0 01-1.24 0c-.408-.517-.495-1.032-1.055-1.592-.56-.56-1.074-.647-1.593-1.055a.785.785 0 010-1.24c.52-.408 1.032-.493 1.593-1.054zM4.152 10.336s1.402.558 2.389 1.527c.984.968 1.552 2.347 1.552 2.347L14.6 8.048c1.081-1.024.998-2.838-.185-4-1.154-1.135-2.915-1.214-3.934-.174"/><path d="M3.643 15.36l4.446-1.145s-.566-1.38-1.55-2.349c-.985-.97-2.387-1.529-2.387-1.529l-1.17 4.357c-.1.38.28.763.661.666z"/></g><defs><clipPath id="clip0_2554_6444"><path fill="currentColor" d="M0 0h16v16H0z"/></clipPath></defs></svg>