<svg fill="none" xmlns="http://www.w3.org/2000/svg" viewBox="0 0 16 16"><g clip-path="url(#clip0_2554_6469)" stroke="currentColor" stroke-linecap="round" stroke-linejoin="round"><path d="M1.41 3.528c-.737.441-.736 1.077-.004 1.52.72.434 1.472.88 2.329 1.291.857.412 1.785.772 2.692 1.117.923.352 2.248.352 3.167-.001.9-.346 1.818-.706 2.671-1.116a28.07 28.07 0 002.326-1.28c.736-.442.736-1.078.003-1.52a27.32 27.32 0 00-2.329-1.292c-.857-.412-1.785-.772-2.692-1.118-.923-.35-2.248-.35-3.167.002-.9.346-1.817.707-2.671 1.116-.853.409-1.606.85-2.326 1.281zM15.143 8.909c-.82.464-1.661.891-2.52 1.28-.926.411-1.92.771-2.895 1.116-.995.354-2.432.353-3.432.002-.983-.346-1.989-.706-2.918-1.117-.929-.412-1.744-.857-2.524-1.292M15.143 12.48c-.78.43-1.596.87-2.52 1.28-.926.41-1.92.771-2.895 1.117-.995.353-2.432.353-3.432 0-.983-.344-1.989-.704-2.918-1.116-.929-.411-1.744-.858-2.524-1.292"/></g><defs><clipPath id="clip0_2554_6469"><path fill="currentColor" d="M0 0h16v16H0z"/></clipPath></defs></svg>