<svg fill="none" xmlns="http://www.w3.org/2000/svg" viewBox="0 0 16 17"><g clip-path="url(#clip0_2567_1546)" stroke="currentColor" stroke-linecap="round" stroke-linejoin="round"><path d="M1.733 4.517c2.102-1.375 3.885-2.261 6.266-3.023 2.383.762 4.166 1.648 6.268 3.023.284.185.469.492.5.829.209 2.25.22 4.07.002 6.312a1.111 1.111 0 01-.497.823c-2.105 1.376-3.89 2.262-6.272 3.024-2.384-.762-4.167-1.648-6.27-3.026a1.11 1.11 0 01-.5-.821c-.216-2.24-.206-4.06.004-6.312a1.114 1.114 0 01.499-.829z"/><path d="M14.5 4.868L8 7.999 1.497 4.866M8 8v7.505m3.566-4.965c0-.275.195-.556.537-1.018.316-.428.484-.842.41-1.231-.04-.193-.132-.336-.266-.414-.135-.078-.306-.086-.492-.024-.14.05-.283.14-.42.26-.138.12-.266.269-.376.436-.11.168-.199.35-.26.533a1.742 1.742 0 00-.096.529m.963 2.835v-.191"/></g><defs><clipPath id="clip0_2567_1546"><path fill="currentColor" transform="translate(0 .5)" d="M0 0h16v16H0z"/></clipPath></defs></svg>