<svg fill="none" xmlns="http://www.w3.org/2000/svg" viewBox="0 0 16 17"><g clip-path="url(#clip0_2567_2412)" stroke="currentColor" stroke-linecap="round" stroke-linejoin="round"><path d="M1.097 12.235a3.58 3.58 0 003.147 3.154c1.223.138 2.476.254 3.756.254 1.28 0 2.535-.116 3.757-.254a3.579 3.579 0 003.146-3.154c.13-1.215.24-2.463.24-3.735 0-1.272-.11-2.52-.24-3.736a3.579 3.579 0 00-3.146-3.154C10.534 1.475 9.28 1.357 8 1.357c-1.28 0-2.535.117-3.756.254a3.58 3.58 0 00-3.147 3.154C.967 5.98.857 7.227.857 8.5c0 1.273.11 2.52.24 3.735z"/><path d="M4.053 8.29H5.52l1.316-2.774 1.888 5.968 1.754-3.195h1.469"/></g><defs><clipPath id="clip0_2567_2412"><path fill="currentColor" transform="translate(0 .5)" d="M0 0h16v16H0z"/></clipPath></defs></svg>