<svg fill="none" xmlns="http://www.w3.org/2000/svg" viewBox="0 0 16 16"><path d="M8.754 6.25H6.651V9.75h2.103M6.651 7.855h1.84M2.318 9.75V6.25L4.65 9.75V6.25M10.183 6.25l.556 3.344a.188.188 0 00.362.03l.734-2.138a.103.103 0 01.156-.05c.018.013.03.03.038.05l.734 2.137a.186.186 0 00.362-.029l.557-3.344M.858 4.063l.012-.046a1.864 1.864 0 011.424-1.39C3.99 2.286 6.04 2.286 8 2.286c1.959 0 4.01 0 5.705.343a1.86 1.86 0 011.437 1.434m0 7.874a1.86 1.86 0 01-1.436 1.436c-1.697.341-3.748.341-5.706.341-1.959 0-4.01 0-5.706-.343a1.86 1.86 0 01-1.436-1.434" stroke="currentColor" stroke-linecap="round" stroke-linejoin="round"/></svg>