<svg fill="none" xmlns="http://www.w3.org/2000/svg" viewBox="0 0 16 16"><g clip-path="url(#clip0_2554_6515)" stroke="currentColor" stroke-linecap="round" stroke-linejoin="round"><path d="M5.683 14.451a1.586 1.586 0 002.797 0M14.783 4.878c0 .03.009.06.028.083l.4.502a.575.575 0 01.047.646l-.233.404a.574.574 0 01-.583.281l-.635-.097a.137.137 0 00-.087.017l-.753.435a.137.137 0 00-.057.067l-.235.598a.573.573 0 01-.533.364h-.468a.574.574 0 01-.533-.365l-.235-.597a.138.138 0 00-.057-.069l-.753-.434a.137.137 0 00-.087-.016l-.634.097a.574.574 0 01-.583-.28l-.234-.405a.574.574 0 01.048-.646l.4-.503a.134.134 0 00.03-.082v-.869c0-.03-.01-.06-.03-.083l-.4-.503a.574.574 0 01-.048-.646l.233-.403a.574.574 0 01.583-.281l.634.096c.03.004.06-.002.087-.016l.754-.437a.137.137 0 00.057-.069l.237-.593a.573.573 0 01.534-.365h.468a.574.574 0 01.534.365l.234.595c.01.029.03.053.057.07l.753.434a.137.137 0 00.087.017l.635-.096a.574.574 0 01.582.28l.235.404a.574.574 0 01-.05.646l-.4.503a.134.134 0 00-.028.083v.869l-.001-.001z"/><path d="M11.909 3.872a.614.614 0 00-.39.126c-.225.188-.24.617-.052.837a.58.58 0 00.441.18M11.909 3.872a.61.61 0 01.39.126c.224.188.24.617.052.837a.58.58 0 01-.442.18M6.28 2.201a4.094 4.094 0 00-3.291 4.015c0 .896-.152 1.61-.38 2.174-.254.628-1.001.832-1.519 1.27-.68.574-.525 1.713.083 2.162 0 0 1.01.874 5.908.874 4.9 0 5.911-.874 5.911-.874.458-.34.66-1.069.438-1.654"/></g><defs><clipPath id="clip0_2554_6515"><path fill="currentColor" d="M0 0h16v16H0z"/></clipPath></defs></svg>