<svg fill="none" xmlns="http://www.w3.org/2000/svg" viewBox="0 0 16 16"><g clip-path="url(#clip0_2554_6494)" stroke="currentColor" stroke-linecap="round" stroke-linejoin="round"><path d="M6.488 14.238a1.714 1.714 0 003.024 0M4.87 2.153a4.425 4.425 0 017.555 3.13c0 .69.114 1.338.286 2.002.047.15.1.292.156.426.265.623.996.836 1.54 1.239.813.602.657 1.89-.02 2.39 0 0-1.092.946-6.387.946-5.296 0-6.387-.945-6.387-.945-.677-.501-.835-1.789-.021-2.391.545-.403 1.275-.616 1.54-1.24.265-.62.443-1.416.443-2.428 0-1.173.466-2.3 1.296-3.129z"/></g><defs><clipPath id="clip0_2554_6494"><path fill="currentColor" d="M0 0h16v16H0z"/></clipPath></defs></svg>