<svg fill="none" xmlns="http://www.w3.org/2000/svg" viewBox="0 0 16 16"><g clip-path="url(#clip0_2554_6500)" stroke="currentColor" stroke-linecap="round" stroke-linejoin="round"><path d="M6.983 14.238a1.714 1.714 0 003.023 0M4.695 4.89a3.982 3.982 0 017.882.806c0 .602.14 1.36.256 1.803.032.099.066.194.103.284.248.63 1.002.833 1.508 1.282.638.566.484 1.652-.1 2.085 0 0-.51.44-2.58.688M8.594 12c-4.766 0-5.748-.85-5.748-.85-.584-.433-.739-1.52-.1-2.085.505-.449 1.258-.651 1.508-1.282.037-.093.071-.188.103-.284M.686.686c5.024 6.436 8.055 9.43 14.628 14.628"/></g><defs><clipPath id="clip0_2554_6500"><path fill="currentColor" d="M0 0h16v16H0z"/></clipPath></defs></svg>