<svg viewBox="0 0 30 31" fill="none" xmlns="http://www.w3.org/2000/svg">
    <g id="OktaDomain">
        <path id="Vector" fill-rule="evenodd" clip-rule="evenodd"
            d="M16.4753 0.99314L15.8703 8.44458C15.5841 8.4119 15.2979 8.39556 15.0036 8.39556C14.6357 8.39556 14.2759 8.42007 13.9244 8.47726L13.581 4.86593C13.5728 4.75154 13.6627 4.6535 13.7772 4.6535H14.3904L14.0961 1.00131C14.0879 0.886925 14.1778 0.788879 14.2841 0.788879H16.2872C16.4017 0.788879 16.4916 0.886925 16.4753 1.00131V0.99314ZM11.4225 1.36081C11.3898 1.25459 11.2753 1.18923 11.1691 1.23008L9.28858 1.9164C9.18229 1.95725 9.13324 2.07981 9.18229 2.17785L10.7112 5.51139L10.1307 5.72382C10.0244 5.76468 9.97537 5.88723 10.0244 5.98528L11.586 9.26162C12.1502 8.95115 12.7634 8.7142 13.4093 8.56714L11.4307 1.36081H11.4225ZM6.81126 3.4361L11.1364 9.53125C10.5886 9.89075 10.0898 10.3156 9.66468 10.8058L7.07289 8.25666C6.99113 8.17495 6.99931 8.04423 7.08107 7.97069L7.55527 7.57851L4.97983 4.97214C4.89807 4.89044 4.90625 4.75971 4.99619 4.68618L6.5251 3.40342C6.61503 3.32989 6.73767 3.34623 6.80308 3.4361H6.81126ZM3.18112 6.96573C3.09118 6.90037 2.96037 6.93305 2.90313 7.03109L1.90566 8.76323C1.84843 8.86127 1.88931 8.98383 1.98742 9.03285L5.30687 10.6016L4.99619 11.1327C4.93896 11.2307 4.97984 11.3614 5.08612 11.4023L8.38922 12.9138C8.62633 12.301 8.94519 11.7291 9.33764 11.2144L3.18112 6.96573ZM0.736496 11.6719C0.752848 11.5575 0.867312 11.4922 0.9736 11.5167L8.20935 13.404C8.0213 14.0168 7.91502 14.6623 7.89866 15.3323L4.2767 15.0381C4.16224 15.03 4.08048 14.9237 4.105 14.8093L4.21129 14.2047L0.556624 13.8616C0.442161 13.8534 0.368577 13.7472 0.384929 13.6328L0.72832 11.6637L0.736496 11.6719ZM0.466689 16.5578C0.352225 16.566 0.278641 16.6722 0.294993 16.7866L0.64656 18.7557C0.662912 18.8701 0.777376 18.9354 0.883664 18.9109L4.43204 17.9876L4.53833 18.5923C4.55468 18.7066 4.66915 18.772 4.77544 18.7475L8.27476 17.7834C8.07036 17.1788 7.93954 16.5333 7.90684 15.8715L0.458513 16.5578H0.466689ZM1.62768 21.7379C1.57045 21.6398 1.61133 21.5173 1.70944 21.4683L8.46281 18.2654C8.71626 18.8701 9.05965 19.4338 9.46845 19.9404L6.50875 22.0484C6.41881 22.1137 6.28799 22.0892 6.23076 21.9912L5.92007 21.4519L2.90313 23.5354C2.8132 23.6007 2.68238 23.5681 2.62515 23.47L1.6195 21.7379H1.62768ZM9.81184 20.3326L4.55468 25.6515C4.47292 25.7332 4.4811 25.864 4.57104 25.9375L6.10812 27.2202C6.19806 27.2938 6.3207 27.2774 6.38611 27.1876L8.51186 24.1972L8.98607 24.5975C9.07601 24.6711 9.20682 24.6547 9.27223 24.5567L11.3326 21.5663C10.7766 21.2231 10.2615 20.8064 9.82002 20.3326H9.81184ZM8.77349 28.8707C8.66721 28.8298 8.61815 28.7073 8.66721 28.6092L11.7823 21.8114C12.3546 22.1055 12.976 22.3262 13.6219 22.4487L12.7061 25.962C12.6816 26.0682 12.559 26.1336 12.4527 26.0927L11.8722 25.8803L10.8993 29.4181C10.8665 29.5243 10.7521 29.5897 10.6458 29.5488L8.76532 28.8625L8.77349 28.8707ZM14.1369 22.5386L13.5319 29.99C13.5237 30.1044 13.6137 30.2025 13.72 30.2025H15.7231C15.8376 30.2025 15.9275 30.1044 15.9111 29.99L15.6168 26.3378H16.23C16.3445 26.3378 16.4344 26.2398 16.4262 26.1254L16.0828 22.5141C15.7313 22.5713 15.3715 22.5958 15.0036 22.5958C14.7093 22.5958 14.4231 22.5794 14.1369 22.5386ZM21.3482 2.36577C21.3972 2.25956 21.3482 2.14517 21.2419 2.10432L19.3614 1.418C19.2551 1.37715 19.1407 1.44251 19.1079 1.54873L18.135 5.08653L17.5545 4.8741C17.4482 4.83325 17.3338 4.89861 17.3011 5.00482L16.3853 8.51811C17.0394 8.64884 17.6526 8.86944 18.2249 9.15541L21.3482 2.36577ZM25.4525 5.33164L20.1954 10.6506C19.7539 10.1767 19.2469 9.76002 18.6828 9.41686L20.7431 6.42648C20.8086 6.33661 20.9394 6.3121 21.0293 6.38563L21.5035 6.78598L23.6293 3.7956C23.6947 3.70573 23.8255 3.68938 23.9073 3.76292L25.4443 5.04568C25.5343 5.11921 25.5343 5.24994 25.4607 5.33164H25.4525ZM28.2978 9.51491C28.404 9.46588 28.4368 9.34333 28.3795 9.24528L27.3739 7.51315C27.3166 7.4151 27.1858 7.39059 27.0959 7.44779L24.0789 9.53125L23.7683 9.00017C23.711 8.90212 23.5802 8.86944 23.4903 8.94298L20.5306 11.0509C20.9394 11.5575 21.2746 12.1213 21.5362 12.7259L28.2896 9.52308L28.2978 9.51491ZM29.3606 12.2275L29.704 14.1966C29.7204 14.311 29.6468 14.409 29.5323 14.4253L22.084 15.1198C22.0513 14.4498 21.9205 13.8126 21.7161 13.2079L25.2154 12.2438C25.3217 12.2112 25.4362 12.2847 25.4525 12.3991L25.5588 13.0037L29.1072 12.0804C29.2135 12.0559 29.3279 12.1213 29.3443 12.2357L29.3606 12.2275ZM29.0254 19.4583C29.1317 19.4828 29.2462 19.4175 29.2625 19.3031L29.6059 17.334C29.6223 17.2196 29.5487 17.1216 29.4342 17.1052L25.7796 16.7621L25.8858 16.1575C25.9022 16.0431 25.8286 15.945 25.7141 15.9287L22.0922 15.6346C22.0758 16.3045 21.9695 16.95 21.7815 17.5628L29.0172 19.4502L29.0254 19.4583ZM27.0959 23.9521C27.0387 24.0501 26.9078 24.0746 26.8179 24.0174L20.6614 19.7688C21.0538 19.2541 21.3727 18.6821 21.6098 18.0694L24.9129 19.5809C25.0192 19.6299 25.0601 19.7525 25.0028 19.8505L24.6922 20.3816L28.0116 21.9503C28.1097 21.9993 28.1506 22.1219 28.0934 22.2199L27.0959 23.9521ZM18.8627 21.4437L23.1878 27.5389C23.2532 27.6288 23.384 27.6451 23.4658 27.5716L24.9947 26.2888C25.0846 26.2153 25.0846 26.0846 25.011 26.0028L22.4356 23.3965L22.9098 23.0043C22.9997 22.9308 22.9997 22.8 22.918 22.7183L20.3262 20.1692C19.8928 20.6594 19.4023 21.0924 18.8545 21.4437H18.8627ZM18.8218 29.7449C18.7155 29.7858 18.601 29.7204 18.5683 29.6142L16.5897 22.4079C17.2356 22.2608 17.8488 22.0238 18.413 21.7134L19.9746 24.9897C20.0237 25.0959 19.9746 25.2185 19.8683 25.2512L19.2878 25.4636L20.8167 28.7971C20.8658 28.9034 20.8167 29.0177 20.7104 29.0586L18.83 29.7449H18.8218Z"
            fill="currentColor" />
    </g>
</svg>