<svg fill="none" xmlns="http://www.w3.org/2000/svg" viewBox="0 0 16 16"><g clip-path="url(#clip0_2554_6526)" stroke="currentColor" stroke-linecap="round" stroke-linejoin="round"><path d="M7.523 3.723a53.546 53.546 0 00-4.331.099c-1.102.068-1.977.946-2.094 2.044C.974 7.021.858 8.21.858 9.43c0 1.218.116 2.409.24 3.562.118 1.097.993 1.977 2.094 2.046 2.286.141 4.472.141 6.759 0 1.102-.069 1.977-.949 2.094-2.046.124-1.154.24-2.344.24-3.562 0-.32-.007-.637-.022-.952M8.286 7.639l6.575-6.576M14.89 5.696c.183-1.851.183-2.869 0-4.64-1.772-.184-2.79-.184-4.64 0"/></g><defs><clipPath id="clip0_2554_6526"><path fill="currentColor" d="M0 0h16v16H0z"/></clipPath></defs></svg>