<svg fill="none" xmlns="http://www.w3.org/2000/svg" viewBox="0 0 16 16"><g clip-path="url(#clip0_2554_6542)" stroke="currentColor" stroke-linecap="round" stroke-linejoin="round"><path d="M2.256 12.103v-.069A2.286 2.286 0 014.542 9.75h6.919a2.286 2.286 0 012.285 2.285v.069M8 9.749v2.354" stroke-miterlimit="10"/><path d="M11.39 7.433a3.492 3.492 0 00-6.78 0M8 4.783c1.33 0 2.075-.748 2.075-2.077C10.075 1.378 9.33.631 8 .631c-1.328 0-2.075.747-2.075 2.075 0 1.33.747 2.077 2.075 2.077zM2.256 15.37c1.045 0 1.633-.588 1.633-1.634 0-1.045-.588-1.632-1.634-1.632-1.045 0-1.632.587-1.632 1.632 0 1.046.587 1.634 1.633 1.634v0zM8 15.37c1.046 0 1.634-.588 1.634-1.634 0-1.045-.588-1.632-1.634-1.632-1.045 0-1.632.587-1.632 1.632 0 1.046.587 1.634 1.633 1.634H8zM13.745 15.37c1.045 0 1.633-.588 1.633-1.634 0-1.045-.588-1.632-1.633-1.632-1.044 0-1.633.587-1.633 1.632 0 1.046.588 1.634 1.633 1.634v0z"/></g><defs><clipPath id="clip0_2554_6542"><path fill="currentColor" d="M0 0h16v16H0z"/></clipPath></defs></svg>