<svg fill="none" xmlns="http://www.w3.org/2000/svg" viewBox="0 0 16 16"><g clip-path="url(#clip0_2554_6553)" stroke="currentColor" stroke-linecap="round" stroke-linejoin="round"><path d="M14.857 15.143H9.143M9.143 9.429h5.714M9.143 12.286h5.714M15.053 5.063c.364.71-.19 1.508-.987 1.508H9.895c-.786 0-1.34-.779-.992-1.485C9.65 3.566 10.609 2.457 12 .857c1.334 1.594 2.281 2.7 3.053 4.206zM.974 5.398c.06.548.5.987 1.048 1.051.548.063 1.114.122 1.692.122.579 0 1.143-.059 1.692-.122a1.198 1.198 0 001.049-1.051c.06-.545.116-1.109.116-1.684s-.057-1.138-.116-1.683A1.197 1.197 0 005.407.979 14.834 14.834 0 003.714.857c-.578 0-1.143.06-1.691.122a1.198 1.198 0 00-1.05 1.052c-.06.545-.116 1.108-.116 1.683s.057 1.139.117 1.684zM3.714 15.43c2.012 0 3.143-1.132 3.143-3.143 0-2.012-1.131-3.143-3.143-3.143-2.011 0-3.143 1.131-3.143 3.143 0 2.011 1.132 3.143 3.143 3.143z"/></g><defs><clipPath id="clip0_2554_6553"><path fill="currentColor" d="M0 0h16v16H0z"/></clipPath></defs></svg>