<svg fill="none" xmlns="http://www.w3.org/2000/svg" viewBox="0 0 16 16"><g clip-path="url(#clip0_2554_6563)" stroke="currentColor" stroke-linecap="round" stroke-linejoin="round"><path d="M1.554 5.655l1.96-4.017C3.942 1.409 5.948.952 8 .952c2.05 0 4.058.457 4.486.686l1.96 4.017"/><path d="M8 4.797c-2.003 0-3.927.131-5.743.43a1.094 1.094 0 00-.883.819C1.063 7.306.95 8.202.95 9.922c0 1.721.112 2.617.423 3.877a1.094 1.094 0 00.883.818c1.816.3 3.74.432 5.743.432 2.002 0 3.927-.132 5.743-.432a1.093 1.093 0 00.883-.818c.31-1.258.423-2.156.423-3.877 0-1.72-.113-2.617-.423-3.876a1.094 1.094 0 00-.883-.819c-1.817-.299-3.74-.43-5.743-.43zM8 .95v3.847"/><path d="M10.571 7.637l-3.428 4.571-1.715-1.714"/></g><defs><clipPath id="clip0_2554_6563"><path fill="currentColor" d="M0 0h16v16H0z"/></clipPath></defs></svg>