<svg fill="none" xmlns="http://www.w3.org/2000/svg" viewBox="0 0 16 16"><g clip-path="url(#clip0_2554_6602)" stroke="currentColor" stroke-linecap="round" stroke-linejoin="round"><path d="M12.926 11.429h.076a1.143 1.143 0 011.014.614l1.33 2.549a.572.572 0 01-.507.837H1.153a.571.571 0 01-.508-.832l1.302-2.547a1.143 1.143 0 011.02-.621h.074"/><path d="M8.066.571h-.133A5.328 5.328 0 002.618 5.52c-.098 1.359.21 2.737 1.035 3.82 1.03 1.355 2.078 2.292 3.733 3.402a1.103 1.103 0 001.227 0c1.655-1.109 2.702-2.046 3.734-3.401.825-1.084 1.132-2.462 1.035-3.821A5.328 5.328 0 008.066.571z"/><path d="M8 7.429c1.097 0 1.714-.618 1.714-1.715S9.097 4 8 4s-1.714.617-1.714 1.714S6.903 7.43 8 7.43z"/></g><defs><clipPath id="clip0_2554_6602"><path fill="currentColor" d="M0 0h16v16H0z"/></clipPath></defs></svg>