<svg fill="none" xmlns="http://www.w3.org/2000/svg" viewBox="0 0 16 16"><path d="M6.286 7.429v3.428M10.286 4c-1.592.222-2.475.26-4 0v3.429c1.392.328 2.28.299 4 0L9.143 5.817 10.286 4z" stroke="currentColor" stroke-linecap="round" stroke-linejoin="round"/><path d="M8.077.857h-.154A6.055 6.055 0 001.886 6.48c-.111 1.544.237 3.11 1.175 4.343 1.19 1.561 2.397 2.635 4.326 3.92a1.11 1.11 0 001.228 0c1.929-1.285 3.137-2.359 4.327-3.92.937-1.232 1.285-2.799 1.175-4.343A6.055 6.055 0 008.076.857z" stroke="currentColor" stroke-linecap="round" stroke-linejoin="round"/></svg>