<svg fill="none" xmlns="http://www.w3.org/2000/svg" viewBox="0 0 16 16"><path d="M7.428 2.857h4.286A2.571 2.571 0 0112 7.984M8.571 8H4.286A2.571 2.571 0 004 13.127M14.857 13.143H7.428M4 2.857H1.714" stroke="currentColor" stroke-linecap="round" stroke-linejoin="round"/><path d="M4 2.857a1.714 1.714 0 103.429 0 1.714 1.714 0 00-3.429 0zM4 13.143a1.714 1.714 0 103.429 0 1.714 1.714 0 00-3.429 0zM8.571 8A1.714 1.714 0 1012 8a1.714 1.714 0 00-3.429 0zM13.143 14.841c.643 0 1.5-.857 1.714-1.714-.215-.857-1.072-1.714-1.714-1.714" stroke="currentColor" stroke-linecap="round" stroke-linejoin="round"/></svg>