<svg fill="none" xmlns="http://www.w3.org/2000/svg" viewBox="0 0 16 16"><path d="M12.826 6.267a.27.27 0 01-.19-.217 4.14 4.14 0 00-1.186-2.528 4.328 4.328 0 00-5.314-.632A4.19 4.19 0 004.368 5.07a.247.247 0 01-.23.137c-.46.03-.91.15-1.325.35-.412.2-.781.48-1.086.821a3.404 3.404 0 00-.862 2.498A3.424 3.424 0 002.06 11.24c2.64 2.262 9.423 2.434 12.087.09a2.904 2.904 0 00.45-3.89 3.01 3.01 0 00-1.77-1.173z" stroke="currentColor" stroke-linecap="round" stroke-linejoin="round"/><path d="M6.638 6.456c.02-.492.337-1.48 1.451-1.48 1.391 0 1.496 1.221 1.509 1.48 0 .981-1.52 1.066-1.446 2M8.087 10.825v.199" stroke="currentColor" stroke-linecap="round" stroke-linejoin="round"/></svg>