<svg fill="none" xmlns="http://www.w3.org/2000/svg" viewBox="0 0 16 17"><g clip-path="url(#clip0_2567_1418)" stroke="currentColor" stroke-linecap="round" stroke-linejoin="round"><path d="M12.928 6.32a4.93 4.93 0 10-9.056 2.658c.859 1.314 1.367 1.799 1.367 3.364a.548.548 0 00.548.549h4.427a.549.549 0 00.549-.549c0-1.603.568-2.08 1.42-3.443a4.904 4.904 0 00.745-2.58zm-6.43 9.323h3.006"/><path d="M9.405 5.169s-.528-.589-1.385-.515c-.857.073-1.269.6-1.269 1.127 0 1.538 2.654.472 2.654 2.05 0 .814-1.76 1.388-2.809.431m1.53-4.643v1.028m0 4.106V9.78"/></g><defs><clipPath id="clip0_2567_1418"><path fill="currentColor" transform="translate(0 .5)" d="M0 0h16v16H0z"/></clipPath></defs></svg>