<svg fill="none" xmlns="http://www.w3.org/2000/svg" viewBox="0 0 16 16"><g clip-path="url(#clip0_2554_6637)" stroke="currentColor" stroke-linecap="round" stroke-linejoin="round"><path d="M1.143 8h5.143M1.143 13.393h10.285M9.714 8h5.143M14.857 2.607H4.571M1.143 2.607c0 1.097.617 1.714 1.714 1.714s1.714-.617 1.714-1.714S3.954.893 2.857.893s-1.714.617-1.714 1.714zM11.429 13.393c0 1.097.617 1.714 1.714 1.714s1.714-.617 1.714-1.714-.617-1.714-1.714-1.714-1.714.617-1.714 1.714zM6.313 8c0 1.097.617 1.714 1.714 1.714 1.098 0 1.715-.617 1.715-1.714s-.617-1.714-1.715-1.714c-1.097 0-1.714.617-1.714 1.714z"/></g><defs><clipPath id="clip0_2554_6637"><path fill="currentColor" d="M0 0h16v16H0z"/></clipPath></defs></svg>