<svg fill="none" xmlns="http://www.w3.org/2000/svg" viewBox="0 0 16 17"><g clip-path="url(#clip0_2567_1480)" stroke="currentColor" stroke-linecap="round" stroke-linejoin="round"><path d="M12.556 14.377v-4m-1.869 1.867c.375-.746 1.121-1.494 1.868-1.867.748.373 1.495 1.12 1.868 1.867M4.939 5.928c-2.21 0-4.305 1.589-4.043 3.783.021.17.046.349.075.539a1.154 1.154 0 001.15.977h.653l.478 2.963a1.728 1.728 0 003.411 0l.478-2.963h.663c.568 0 1.06-.406 1.146-.967.028-.18.052-.349.072-.512.27-2.208-1.856-3.82-4.083-3.82z"/><path d="M4.957 5.929c1.465 0 2.288-.823 2.288-2.288 0-1.464-.823-2.288-2.288-2.288-1.463 0-2.288.822-2.288 2.288 0 1.464.824 2.288 2.288 2.288zm9.763.181h-4.33l-.542-2.705 1.353.811 1.354-1.353 1.354 1.354 1.353-.812-.542 2.706z"/></g><defs><clipPath id="clip0_2567_1480"><path fill="currentColor" transform="translate(0 .5)" d="M0 0h16v16H0z"/></clipPath></defs></svg>