<svg fill="none" xmlns="http://www.w3.org/2000/svg" viewBox="0 0 16 16"><path d="M12.405 8.288a2.126 2.126 0 001.451 1.376 2.125 2.125 0 001.376-1.451M3.589 7.735A2.12 2.12 0 002.14 6.363 2.12 2.12 0 00.768 7.81" stroke="currentColor" stroke-linecap="round" stroke-linejoin="round"/><path d="M2.14 6.377c-.1.535-.149 1.079-.146 1.623 0 3.843 2.163 6.006 6.006 6.006 1.927 0 3.432-.544 4.453-1.57M3.629 3.486C4.647 2.509 6.123 1.993 8 1.993c3.843 0 6.006 2.162 6.006 6.006 0 .59-.052 1.143-.152 1.652" stroke="currentColor" stroke-linecap="round" stroke-linejoin="round"/></svg>