<svg fill="none" xmlns="http://www.w3.org/2000/svg" viewBox="0 0 16 16"><g clip-path="url(#clip0_2554_6656)" stroke="currentColor" stroke-linecap="round" stroke-linejoin="round"><path d="M8 14.857V9.714M13.393 3.714V1.143M13.393 14.857V7.143M8 6.286V1.143M2.607 1.143v2.571M2.607 7.143v7.714M6.286 8c0 1.097.617 1.714 1.714 1.714S9.714 9.097 9.714 8 9.097 6.286 8 6.286 6.286 6.903 6.286 8zM11.679 5.429c0 1.097.617 1.714 1.714 1.714s1.714-.617 1.714-1.714c0-1.098-.617-1.715-1.714-1.715s-1.714.617-1.714 1.715zM.893 5.429c0 1.097.617 1.714 1.714 1.714S4.32 6.526 4.32 5.429c0-1.098-.617-1.715-1.714-1.715S.893 4.331.893 5.43z"/></g><defs><clipPath id="clip0_2554_6656"><path fill="currentColor" d="M0 0h16v16H0z"/></clipPath></defs></svg>