<svg fill="none" xmlns="http://www.w3.org/2000/svg" viewBox="0 0 16 16"><g clip-path="url(#clip0_2554_6707)" stroke="currentColor" stroke-linecap="round" stroke-linejoin="round"><path d="M14.955 6.503a21.807 21.807 0 00-.348-4.002c-.106-.586-.191-1.223-.61-1.645-.118-.12-.256-.201-.407-.187-.558.051-1.153.205-1.577.322-.494.137-1.061.415-1.613.679a1.12 1.12 0 01-.765.072L5.615.702C4.915.537 3.84.809 3.18.99c-.414.114-.877.327-1.34.548-.167.08-.308.285-.416.493-.186.36-.263.762-.334 1.161l-.057.318a22.468 22.468 0 000 7.889c.11.61.18 1.293.644 1.703.112.1.24.159.377.132.42-.08.851-.252 1.31-.41.676-.23 1.352-.491 1.978-.663.178-.047.366-.047.544 0l1.327.344"/><path d="M5.786 12.155a1.048 1.048 0 00-.248-.031V.845c0-.048.004-.096.01-.143l4.198 1.051c.12.029.24.038.36.027v4.434M15.314 11.121c0 2.266-2.624 4.229-2.906 4.229-.282 0-2.905-1.963-2.905-4.229a2.905 2.905 0 015.811 0zM12.408 11.18v-.174"/></g><defs><clipPath id="clip0_2554_6707"><path fill="currentColor" d="M0 0h16v16H0z"/></clipPath></defs></svg>