<svg fill="none" xmlns="http://www.w3.org/2000/svg" viewBox="0 0 16 16"><g clip-path="url(#clip0_2554_6726)"><mask id="a" fill="currentColor"><path fill-rule="evenodd" clip-rule="evenodd" d="M6.584.52a3.84 3.84 0 00-2.04.869 3.864 3.864 0 00-1.223 1.859l-.025.088-.188.061A3.874 3.874 0 001.08 4.984a4.164 4.164 0 00-.487 1.162c-.107.452-.132.991-.068 1.43a3.922 3.922 0 001.061 2.148c.023.02.023.032-.004.136-.143.565-.119 1.29.064 1.925a3.87 3.87 0 001.906 2.317c.787.414 1.76.537 2.634.333l.131-.03.053.055a3.842 3.842 0 004.428.594c.897-.475 1.612-1.35 1.88-2.302l.025-.089.164-.052c.818-.258 1.557-.833 2.047-1.59.206-.32.409-.805.494-1.183.11-.494.13-1.004.056-1.462a3.922 3.922 0 00-1.052-2.1c-.023-.02-.023-.032.004-.137.11-.437.122-1.039.028-1.531a3.665 3.665 0 00-.341-1.021 3.612 3.612 0 00-.763-1.036 3.728 3.728 0 00-1.509-.908 3.944 3.944 0 00-2.027-.077l-.123.03-.053-.056c-.165-.172-.584-.469-.861-.61C8.098.585 7.28.432 6.584.52zm.064 1.001a4.06 4.06 0 00-.63.159 2.69 2.69 0 00-1.058.699c-.423.442-.67.944-.758 1.545-.023.151-.026.421-.026 2.147v1.975l.404.23.443.252.038.02-.01-2.098c-.008-1.78-.006-2.108.013-2.172a.563.563 0 01.181-.264c.033-.023.811-.476 1.731-1.006s1.675-.967 1.678-.97c.01-.008-.213-.145-.358-.219a2.987 2.987 0 00-.808-.276 4.313 4.313 0 00-.84-.022zm3.768.96c-.38.035-.763.154-1.12.351-.24.133-3.221 1.855-3.236 1.87-.007.006-.01.24-.008.52l.004.507 1.8-1.05a86.773 86.773 0 011.87-1.075.478.478 0 01.185-.017c.145.01-.02-.08 1.977 1.074 1.313.759 1.594.916 1.606.895.026-.046 0-.59-.037-.78a3.09 3.09 0 00-.41-1.024 2.882 2.882 0 00-2.117-1.271 2.301 2.301 0 00-.514 0zM3.033 4.515a2.86 2.86 0 00-1.29 1.359 2.805 2.805 0 00-.04 2.22c.222.551.62 1.028 1.113 1.334.214.133 3.287 1.905 3.304 1.905.012 0 .858-.485.884-.507.002-.002-.814-.47-1.814-1.042-1.202-.687-1.839-1.06-1.879-1.1a.615.615 0 01-.098-.136l-.037-.075-.008-2.01L3.16 4.45l-.127.064zm6.567.31c-.154.09-.354.206-.444.26l-.165.095 1.818 1.039c1.199.684 1.84 1.059 1.88 1.099a.61.61 0 01.098.136l.037.075.004 2.011.004 2.011.06-.027c.569-.258 1.103-.804 1.364-1.395.171-.389.246-.743.246-1.16 0-.283-.018-.422-.086-.696a2.813 2.813 0 00-1.248-1.707c-.057-.036-.806-.47-1.664-.965-.858-.495-1.575-.909-1.592-.92-.029-.018-.064-.002-.312.144zm-2.573 1.5l-.963.563v1.12l.001 1.121.97.552c.533.304.975.55.982.548.007-.002.442-.253.966-.558l.953-.555V7.993l-.001-1.121-.892-.508-.972-.555-.08-.046-.964.562zm3.918 3.254l.007 2.126-.045.091a.577.577 0 01-.12.158c-.06.053-1.012.608-3.362 1.962l-.087.05.111.071c.31.2.67.343 1.071.423.202.04.756.04.952 0 .67-.137 1.136-.386 1.568-.838.423-.442.67-.944.758-1.546.023-.15.026-.42.026-2.146V7.954l-.404-.23a52.18 52.18 0 00-.443-.251l-.038-.02.006 2.125zm-2.801 1.745c-.99.577-1.828 1.059-1.862 1.071a.63.63 0 01-.169.022.4.4 0 01-.217-.055c-.062-.03-.846-.479-1.744-.998-1.335-.771-1.635-.939-1.646-.919-.027.046 0 .59.037.78.094.468.292.899.573 1.244.59.725 1.506 1.127 2.404 1.054.442-.036.792-.14 1.178-.352.222-.12 3.226-1.856 3.242-1.872.007-.007.01-.24.008-.519l-.004-.506-1.8 1.05z"/></mask><path clip-rule="evenodd" d="M6.584.52a3.84 3.84 0 00-2.04.869 3.864 3.864 0 00-1.223 1.859l-.025.088-.188.061A3.874 3.874 0 001.08 4.984a4.164 4.164 0 00-.487 1.162c-.107.452-.132.991-.068 1.43a3.922 3.922 0 001.061 2.148c.023.02.023.032-.004.136-.143.565-.119 1.29.064 1.925a3.87 3.87 0 001.906 2.317c.787.414 1.76.537 2.634.333l.131-.03.053.055a3.842 3.842 0 004.428.594c.897-.475 1.612-1.35 1.88-2.302l.025-.089.164-.052c.818-.258 1.557-.833 2.047-1.59.206-.32.409-.805.494-1.183.11-.494.13-1.004.056-1.462a3.922 3.922 0 00-1.052-2.1c-.023-.02-.023-.032.004-.137.11-.437.122-1.039.028-1.531a3.665 3.665 0 00-.341-1.021 3.612 3.612 0 00-.763-1.036 3.728 3.728 0 00-1.509-.908 3.944 3.944 0 00-2.027-.077l-.123.03-.053-.056c-.165-.172-.584-.469-.861-.61C8.098.585 7.28.432 6.584.52zm.064 1.001a4.06 4.06 0 00-.63.159 2.69 2.69 0 00-1.058.699c-.423.442-.67.944-.758 1.545-.023.151-.026.421-.026 2.147v1.975l.404.23.443.252.038.02-.01-2.098c-.008-1.78-.006-2.108.013-2.172a.563.563 0 01.181-.264c.033-.023.811-.476 1.731-1.006s1.675-.967 1.678-.97c.01-.008-.213-.145-.358-.219a2.987 2.987 0 00-.808-.276 4.313 4.313 0 00-.84-.022zm3.768.96c-.38.035-.763.154-1.12.351-.24.133-3.221 1.855-3.236 1.87-.007.006-.01.24-.008.52l.004.507 1.8-1.05a86.773 86.773 0 011.87-1.075.478.478 0 01.185-.017c.145.01-.02-.08 1.977 1.074 1.313.759 1.594.916 1.606.895.026-.046 0-.59-.037-.78a3.09 3.09 0 00-.41-1.024 2.882 2.882 0 00-2.117-1.271 2.301 2.301 0 00-.514 0zM3.033 4.515a2.86 2.86 0 00-1.29 1.359 2.805 2.805 0 00-.04 2.22c.222.551.62 1.028 1.113 1.334.214.133 3.287 1.905 3.304 1.905.012 0 .858-.485.884-.507.002-.002-.814-.47-1.814-1.042-1.202-.687-1.839-1.06-1.879-1.1a.615.615 0 01-.098-.136l-.037-.075-.008-2.01L3.16 4.45l-.127.064zm6.567.31c-.154.09-.354.206-.444.26l-.165.095 1.818 1.039c1.199.684 1.84 1.059 1.88 1.099a.61.61 0 01.098.136l.037.075.004 2.011.004 2.011.06-.027c.569-.258 1.103-.804 1.364-1.395.171-.389.246-.743.246-1.16 0-.283-.018-.422-.086-.696a2.813 2.813 0 00-1.248-1.707c-.057-.036-.806-.47-1.664-.965-.858-.495-1.575-.909-1.592-.92-.029-.018-.064-.002-.312.144zm-2.573 1.5l-.963.563v1.12l.001 1.121.97.552c.533.304.975.55.982.548.007-.002.442-.253.966-.558l.953-.555V7.993l-.001-1.121-.892-.508-.972-.555-.08-.046-.964.562zm3.918 3.254l.007 2.126-.045.091a.577.577 0 01-.12.158c-.06.053-1.012.608-3.362 1.962l-.087.05.111.071c.31.2.67.343 1.071.423.202.04.756.04.952 0 .67-.137 1.136-.386 1.568-.838.423-.442.67-.944.758-1.546.023-.15.026-.42.026-2.146V7.954l-.404-.23a52.18 52.18 0 00-.443-.251l-.038-.02.006 2.125zm-2.801 1.745c-.99.577-1.828 1.059-1.862 1.071a.63.63 0 01-.169.022.4.4 0 01-.217-.055c-.062-.03-.846-.479-1.744-.998-1.335-.771-1.635-.939-1.646-.919-.027.046 0 .59.037.78.094.468.292.899.573 1.244.59.725 1.506 1.127 2.404 1.054.442-.036.792-.14 1.178-.352.222-.12 3.226-1.856 3.242-1.872.007-.007.01-.24.008-.519l-.004-.506-1.8 1.05z" stroke="currentColor" stroke-width="2" stroke-linecap="round" stroke-linejoin="round" mask="url(#a)"/></g><defs><clipPath id="clip0_2554_6726"><path fill="currentColor" d="M0 0h16v16H0z"/></clipPath></defs></svg>