<svg viewBox="0 0 12 13" fill="none" xmlns="http://www.w3.org/2000/svg">
<g>
<path d="M3.85798 1.30359C3.61644 1.30359 3.3848 1.39954 3.21401 1.57033C3.04322 1.74112 2.94727 1.97277 2.94727 2.2143C2.94727 2.45584 3.04322 2.68748 3.21401 2.85828C3.3848 3.02907 3.61644 3.12502 3.85798 3.12502C4.09952 3.12502 4.33116 3.02907 4.50195 2.85828C4.67274 2.68748 4.76869 2.45584 4.76869 2.2143C4.76869 1.97277 4.67274 1.74112 4.50195 1.57033C4.33116 1.39954 4.09952 1.30359 3.85798 1.30359ZM2.68368 1.04C2.99512 0.728556 3.41753 0.553589 3.85798 0.553589C4.29843 0.553589 4.72084 0.728556 5.03228 1.04C5.34373 1.35145 5.51869 1.77385 5.51869 2.2143C5.51869 2.65475 5.34373 3.07716 5.03228 3.38861C4.72084 3.70005 4.29843 3.87502 3.85798 3.87502C3.41753 3.87502 2.99512 3.70005 2.68368 3.38861C2.37223 3.07716 2.19727 2.65475 2.19727 2.2143C2.19727 1.77385 2.37223 1.35145 2.68368 1.04Z" fill="currentColor"/>
<path d="M3.85798 5.58929C3.61644 5.58929 3.3848 5.68524 3.21401 5.85604C3.04322 6.02683 2.94727 6.25847 2.94727 6.50001C2.94727 6.74155 3.04322 6.97319 3.21401 7.14398C3.3848 7.31477 3.61644 7.41072 3.85798 7.41072C4.09952 7.41072 4.33116 7.31477 4.50195 7.14398C4.67274 6.97319 4.76869 6.74155 4.76869 6.50001C4.76869 6.25847 4.67274 6.02683 4.50195 5.85604C4.33116 5.68524 4.09952 5.58929 3.85798 5.58929ZM2.68368 5.32571C2.99512 5.01426 3.41753 4.83929 3.85798 4.83929C4.29843 4.83929 4.72084 5.01426 5.03228 5.32571C5.34373 5.63715 5.51869 6.05956 5.51869 6.50001C5.51869 6.94046 5.34373 7.36287 5.03228 7.67431C4.72084 7.98576 4.29843 8.16072 3.85798 8.16072C3.41753 8.16072 2.99512 7.98576 2.68368 7.67431C2.37223 7.36287 2.19727 6.94046 2.19727 6.50001C2.19727 6.05956 2.37223 5.63715 2.68368 5.32571Z" fill="currentColor"/>
<path d="M3.85798 9.875C3.61644 9.875 3.3848 9.97095 3.21401 10.1417C3.04322 10.3125 2.94727 10.5442 2.94727 10.7857C2.94727 11.0273 3.04322 11.2589 3.21401 11.4297C3.3848 11.6005 3.61644 11.6964 3.85798 11.6964C4.09952 11.6964 4.33116 11.6005 4.50195 11.4297C4.67274 11.2589 4.76869 11.0273 4.76869 10.7857C4.76869 10.5442 4.67274 10.3125 4.50195 10.1417C4.33116 9.97095 4.09952 9.875 3.85798 9.875ZM2.68368 9.61141C2.99512 9.29997 3.41753 9.125 3.85798 9.125C4.29843 9.125 4.72084 9.29997 5.03228 9.61141C5.34373 9.92286 5.51869 10.3453 5.51869 10.7857C5.51869 11.2262 5.34373 11.6486 5.03228 11.96C4.72084 12.2715 4.29843 12.4464 3.85798 12.4464C3.41753 12.4464 2.99512 12.2715 2.68368 11.96C2.37223 11.6486 2.19727 11.2262 2.19727 10.7857C2.19727 10.3453 2.37223 9.92286 2.68368 9.61141Z" fill="currentColor"/>
<path d="M8.14314 1.30359C7.9016 1.30359 7.66996 1.39954 7.49916 1.57033C7.32837 1.74112 7.23242 1.97277 7.23242 2.2143C7.23242 2.45584 7.32837 2.68748 7.49916 2.85828C7.66996 3.02907 7.9016 3.12502 8.14314 3.12502C8.38467 3.12502 8.61632 3.02907 8.78711 2.85828C8.9579 2.68748 9.05385 2.45584 9.05385 2.2143C9.05385 1.97277 8.9579 1.74112 8.78711 1.57033C8.61632 1.39954 8.38467 1.30359 8.14314 1.30359ZM6.96883 1.04C7.28028 0.728556 7.70269 0.553589 8.14314 0.553589C8.58359 0.553589 9.00599 0.728556 9.31744 1.04C9.62888 1.35145 9.80385 1.77385 9.80385 2.2143C9.80385 2.65475 9.62888 3.07716 9.31744 3.38861C9.00599 3.70005 8.58359 3.87502 8.14314 3.87502C7.70269 3.87502 7.28028 3.70005 6.96883 3.38861C6.65739 3.07716 6.48242 2.65475 6.48242 2.2143C6.48242 1.77385 6.65739 1.35145 6.96883 1.04Z" fill="currentColor"/>
<path d="M8.14314 5.58929C7.9016 5.58929 7.66996 5.68524 7.49916 5.85604C7.32837 6.02683 7.23242 6.25847 7.23242 6.50001C7.23242 6.74155 7.32837 6.97319 7.49916 7.14398C7.66996 7.31477 7.9016 7.41072 8.14314 7.41072C8.38467 7.41072 8.61632 7.31477 8.78711 7.14398C8.9579 6.97319 9.05385 6.74155 9.05385 6.50001C9.05385 6.25847 8.9579 6.02683 8.78711 5.85604C8.61632 5.68524 8.38467 5.58929 8.14314 5.58929ZM6.96883 5.32571C7.28028 5.01426 7.70269 4.83929 8.14314 4.83929C8.58358 4.83929 9.00599 5.01426 9.31744 5.32571C9.62888 5.63715 9.80385 6.05956 9.80385 6.50001C9.80385 6.94046 9.62888 7.36287 9.31744 7.67431C9.00599 7.98576 8.58358 8.16072 8.14314 8.16072C7.70269 8.16072 7.28028 7.98576 6.96883 7.67431C6.65739 7.36287 6.48242 6.94046 6.48242 6.50001C6.48242 6.05956 6.65739 5.63715 6.96883 5.32571Z" fill="currentColor"/>
<path d="M8.14314 9.875C7.9016 9.875 7.66996 9.97095 7.49916 10.1417C7.32837 10.3125 7.23242 10.5442 7.23242 10.7857C7.23242 11.0273 7.32837 11.2589 7.49916 11.4297C7.66996 11.6005 7.9016 11.6964 8.14314 11.6964C8.38467 11.6964 8.61632 11.6005 8.78711 11.4297C8.9579 11.2589 9.05385 11.0273 9.05385 10.7857C9.05385 10.5442 8.9579 10.3125 8.78711 10.1417C8.61632 9.97095 8.38467 9.875 8.14314 9.875ZM6.96883 9.61141C7.28028 9.29997 7.70269 9.125 8.14314 9.125C8.58359 9.125 9.00599 9.29997 9.31744 9.61141C9.62888 9.92286 9.80385 10.3453 9.80385 10.7857C9.80385 11.2262 9.62888 11.6486 9.31744 11.96C9.00599 12.2715 8.58359 12.4464 8.14314 12.4464C7.70269 12.4464 7.28028 12.2715 6.96883 11.96C6.65739 11.6486 6.48242 11.2262 6.48242 10.7857C6.48242 10.3453 6.65739 9.92286 6.96883 9.61141Z" fill="currentColor"/>
</g>
</svg>
