<svg fill="none" xmlns="http://www.w3.org/2000/svg" viewBox="0 0 16 16"><path d="M6.163 11.43a51.786 51.786 0 01-3.208-.274c-.937-.108-1.72-.793-1.874-1.725C.93 8.49.857 7.52.857 6.176c0-1.344.071-2.315.225-3.256.152-.931.936-1.617 1.875-1.723C4.578 1.01 6.265.873 8 .873c1.734 0 3.42.138 5.045.324.937.106 1.72.792 1.874 1.723.1.62.166 1.253.199 1.998" stroke="currentColor" stroke-linecap="round" stroke-linejoin="round"/><path d="M1.211 1.838l5.374 4.237a2.286 2.286 0 002.83 0l5.374-4.237M14.483 10.917a2.751 2.751 0 00-5.452.508 2.75 2.75 0 005.312 1" stroke="currentColor" stroke-linecap="round" stroke-linejoin="round"/><path d="M12.666 10.355c.514.49 1.12.675 1.82.558.49-.514.675-1.12.558-1.82" stroke="currentColor" stroke-linecap="round" stroke-linejoin="round"/></svg>