<svg fill="none" xmlns="http://www.w3.org/2000/svg" viewBox="0 0 16 16"><g clip-path="url(#clip0_2554_6756)" stroke="currentColor" stroke-linecap="round" stroke-linejoin="round"><path d="M13.383 3.423c-.26-.525-.514-1.039-.731-1.57a1.228 1.228 0 00-1.015-.774A37.51 37.51 0 008 .899c-1.45 0-2.454.075-3.67.183a1.21 1.21 0 00-.992.732c-.194.445-.415.893-.637 1.348-.453.92-.917 1.863-1.213 2.885.194-.308.526-.518.909-.548.336-.025.676-.052 1.019-.08C4.896 5.297 6.43 5.173 8 5.173c1.57 0 3.104.124 4.584.244.343.029.684.056 1.02.081.38.03.712.24.906.545-.306-.971-.723-1.809-1.126-2.621h-.001zM8 5.174V.899"/><path d="M1.321 13.784c.085.536.53.949 1.074.99 1.794.138 3.671.327 5.605.327 1.934 0 3.812-.189 5.604-.326.546-.042.99-.455 1.075-.991.185-1.17.405-2.392.405-3.646 0-1.257-.22-2.477-.405-3.648a1.18 1.18 0 00-1.074-.99C11.812 5.361 9.934 5.173 8 5.173c-1.934 0-3.811.188-5.603.325a1.18 1.18 0 00-1.076.991C1.136 7.66.917 8.882.917 10.137s.219 2.477.404 3.647zM9.935 12.086h2.308"/></g><defs><clipPath id="clip0_2554_6756"><path fill="currentColor" d="M0 0h16v16H0z"/></clipPath></defs></svg>