<svg fill="none" xmlns="http://www.w3.org/2000/svg" viewBox="0 0 16 17"><g clip-path="url(#clip0_2567_1108)" stroke="currentColor" stroke-linecap="round" stroke-linejoin="round"><path d="M6.307 13.6a1.76 1.76 0 00-.835.825c-.274.568-.73 1.112-1.36 1.112H3.84c-.514 0-.975-.343-1.057-.852-.472-2.868.748-5.203 2.207-5.898m5.36 4.813c.424.212.68.506.834.825.274.567.73 1.111 1.36 1.111h.272c.514 0 .975-.342 1.058-.85.473-2.886-.763-5.23-2.232-5.91"/><path d="M8.313 1.463C3.05 3.487 5.11 10.741 6.29 13.608h4.048c1.183-2.867 3.24-10.12-2.024-12.145zm0 8.359v5.715"/><path d="M11.592 5.513H5.034c.335-1.756 1.278-3.28 3.28-4.05 2 .77 2.943 2.295 3.278 4.05z"/></g><defs><clipPath id="clip0_2567_1108"><path fill="currentColor" transform="translate(0 .5)" d="M0 0h16v16H0z"/></clipPath></defs></svg>