<svg fill="none" xmlns="http://www.w3.org/2000/svg" viewBox="0 0 16 17"><g clip-path="url(#clip0_2567_1387)" stroke="currentColor" stroke-linecap="round" stroke-linejoin="round"><path d="M2.331 10.431a4.513 4.513 0 01-.272-.216A3.422 3.422 0 01.865 7.852a3.405 3.405 0 01.86-2.5c.306-.341.675-.62 1.088-.82.413-.2.864-.32 1.324-.35a.255.255 0 00.23-.137 4.19 4.19 0 011.768-2.178 4.328 4.328 0 015.314.63 4.146 4.146 0 011.186 2.53.262.262 0 00.191.217 3.007 3.007 0 011.768 1.171 2.904 2.904 0 01-.448 3.89l-.15.126M3.974 4.186c1.358 0 2.573.894 2.957 1.714"/><path d="M11.23 12.383c0 .031.011.06.03.084l.398.502a.575.575 0 01.048.646l-.233.404a.574.574 0 01-.583.28l-.635-.095a.137.137 0 00-.087.016l-.753.434a.136.136 0 00-.057.069l-.235.596a.574.574 0 01-.533.366h-.468a.573.573 0 01-.533-.366l-.235-.598a.138.138 0 00-.057-.067l-.753-.434a.138.138 0 00-.087-.016l-.634.097a.575.575 0 01-.583-.282l-.234-.405a.574.574 0 01.048-.645l.4-.502a.134.134 0 00.03-.084v-.868c0-.03-.01-.06-.03-.084l-.4-.501a.573.573 0 01-.048-.646l.233-.405a.574.574 0 01.583-.28l.634.096a.14.14 0 00.087-.017l.754-.436a.137.137 0 00.057-.068l.236-.594a.574.574 0 01.533-.366h.469a.574.574 0 01.534.366l.234.594c.01.03.03.054.057.07l.753.434a.137.137 0 00.087.017l.634-.097a.574.574 0 01.583.281l.235.405a.575.575 0 01-.048.646l-.402.502a.134.134 0 00-.028.083v.868z"/><path d="M8.358 11.377a.614.614 0 00-.39.126c-.225.189-.24.62-.052.839a.58.58 0 00.44.178m.002-1.142a.61.61 0 01.389.126c.225.189.24.617.053.838a.582.582 0 01-.442.178"/></g><defs><clipPath id="clip0_2567_1387"><path fill="currentColor" transform="translate(0 .5)" d="M0 0h16v16H0z"/></clipPath></defs></svg>