<svg fill="none" xmlns="http://www.w3.org/2000/svg" viewBox="0 0 16 16"><g clip-path="url(#clip0_2554_6781)" stroke="currentColor" stroke-linecap="round" stroke-linejoin="round"><path d="M.91 7.714c0-4.225 1.772-6.036 2.364-6.64h9.452c.592.604 2.363 2.415 2.363 6.64 0 4.828-4.655 6.608-7.017 7.212C5.707 14.322.91 12.542.91 7.713v.001z"/><path d="M9.668 6.68v-.909a1.819 1.819 0 00-3.637 0v.91"/><path d="M4.928 10.178a.594.594 0 00.54.497c.763.058 1.56.134 2.381.134.822 0 1.62-.076 2.383-.134a.594.594 0 00.54-.497c.077-.474.164-.967.164-1.472 0-.506-.087-.999-.165-1.473a.594.594 0 00-.539-.497c-.763-.057-1.561-.134-2.383-.134-.82 0-1.618.077-2.382.134a.594.594 0 00-.539.497c-.078.474-.165.967-.165 1.473 0 .505.087.998.165 1.472z"/></g><defs><clipPath id="clip0_2554_6781"><path fill="currentColor" d="M0 0h16v16H0z"/></clipPath></defs></svg>