<svg viewBox="0 0 16 16" fill="none" xmlns="http://www.w3.org/2000/svg"><path d="M1.23567 11.8061C1.23566 11.7408 1.25896 11.6777 1.30137 11.6281L1.73393 11.1244C1.75964 11.0943 1.79154 11.0702 1.82746 11.0537C1.86338 11.0371 1.90245 11.0286 1.942 11.0286L4.86588 11.0286C5.04468 10.6211 5.35824 10.2876 5.7539 10.084C6.14956 9.88035 6.60322 9.81908 7.03872 9.91043C7.47421 10.0018 7.86501 10.2402 8.14551 10.5856C8.426 10.931 8.5791 11.3625 8.5791 11.8074C8.5791 12.2524 8.426 12.6838 8.14551 13.0293C7.86501 13.3747 7.47421 13.6131 7.03872 13.7045C6.60322 13.7958 6.14956 13.7345 5.7539 13.5309C5.35824 13.3273 5.04468 12.9938 4.86588 12.5863L4.65781 12.5863L4.30191 12.9395C4.25061 12.9905 4.18122 13.0191 4.1089 13.0191C4.03657 13.0191 3.96718 12.9905 3.91589 12.9395L3.56272 12.5863L3.49976 12.5863L3.14659 12.9395C3.0953 12.9905 3.02591 13.0191 2.95358 13.0191C2.88126 13.0191 2.81187 12.9905 2.76057 12.9395L2.40741 12.5863L2.0871 12.5863C2.0209 12.587 1.95671 12.5636 1.90641 12.5206L1.32875 12.0141C1.2992 11.9882 1.27559 11.9562 1.25953 11.9203C1.24346 11.8844 1.23533 11.8454 1.23567 11.8061V11.8061ZM2.05698 11.5761L1.88177 11.7787L2.17744 12.0388L2.51966 12.0388C2.55588 12.0389 2.59171 12.0463 2.62507 12.0604C2.65844 12.0745 2.68868 12.095 2.71403 12.1209L2.95221 12.3591L3.19313 12.1209C3.21849 12.095 3.24872 12.0745 3.28209 12.0604C3.31546 12.0463 3.35129 12.0389 3.38751 12.0388L3.67497 12.0388C3.71119 12.0389 3.74702 12.0463 3.78039 12.0604C3.81376 12.0745 3.84399 12.095 3.86935 12.1209L4.11027 12.3591L4.34845 12.1209C4.3738 12.095 4.40404 12.0745 4.43741 12.0604C4.47077 12.0463 4.5066 12.0389 4.54283 12.0388L5.05752 12.0388C5.11559 12.039 5.17209 12.0577 5.21884 12.0921C5.26559 12.1266 5.30018 12.175 5.3176 12.2304C5.4185 12.5465 5.62905 12.816 5.91125 12.9905C6.19345 13.1649 6.52871 13.2327 6.85651 13.1816C7.18432 13.1306 7.48307 12.964 7.69886 12.712C7.91464 12.46 8.03323 12.1392 8.03323 11.8074C8.03323 11.4757 7.91464 11.1549 7.69886 10.9029C7.48307 10.6509 7.18432 10.4843 6.85651 10.4333C6.52871 10.3822 6.19345 10.45 5.91125 10.6244C5.62905 10.7989 5.4185 11.0684 5.3176 11.3845C5.30018 11.4399 5.26559 11.4883 5.21884 11.5227C5.17209 11.5572 5.11559 11.5759 5.05752 11.5761L2.05698 11.5761ZM6.35519 11.8061C6.35524 11.6526 6.40056 11.5025 6.48547 11.3747C6.57039 11.2468 6.69113 11.1468 6.83259 11.0872C6.97405 11.0277 7.12994 11.0111 7.28075 11.0397C7.43156 11.0683 7.57058 11.1407 7.68043 11.2479C7.79027 11.3552 7.86605 11.4924 7.89829 11.6424C7.93052 11.7925 7.91778 11.9488 7.86165 12.0916C7.80552 12.2345 7.70851 12.3576 7.58274 12.4456C7.45698 12.5336 7.30805 12.5826 7.1546 12.5863C7.05135 12.5878 6.94884 12.5687 6.85306 12.5301C6.75728 12.4915 6.67015 12.4342 6.59675 12.3615C6.52335 12.2889 6.46516 12.2024 6.42556 12.107C6.38597 12.0116 6.36577 11.9093 6.36614 11.8061L6.35519 11.8061ZM7.36541 11.8061C7.36541 11.7601 7.35176 11.7151 7.32619 11.6768C7.30062 11.6385 7.26428 11.6087 7.22175 11.5911C7.17923 11.5735 7.13244 11.5689 7.0873 11.5778C7.04216 11.5868 7.0007 11.609 6.96815 11.6415C6.93561 11.6741 6.91345 11.7155 6.90447 11.7607C6.89549 11.8058 6.9001 11.8526 6.91771 11.8951C6.93532 11.9376 6.96515 11.974 7.00342 11.9996C7.04169 12.0251 7.08668 12.0388 7.1327 12.0388C7.16417 12.0403 7.19561 12.0353 7.22512 12.0243C7.25463 12.0133 7.28159 11.9964 7.30438 11.9746C7.32716 11.9529 7.34529 11.9267 7.35766 11.8977C7.37003 11.8688 7.37639 11.8376 7.37636 11.8061L7.36541 11.8061Z" fill="currentColor"/><path d="M7.46326 9.3682C8.18866 8.83086 8.99466 8.56219 9.85439 8.56219C11.7619 8.61593 13.4814 10.1473 13.4814 12.3235C13.8038 12.3235 14.0725 12.3235 14.3949 12.3235C14.2605 10.3354 13.3471 8.88459 11.547 8.02486C12.4605 7.35319 12.9978 6.43972 12.9978 5.25759C12.9978 4.34412 12.6754 3.59185 12.0037 2.94705C10.6873 1.68432 8.61852 1.68432 7.38266 2.94705C6.06619 4.26352 5.98559 6.70839 7.83939 8.05173C7.30206 8.32039 6.84532 8.64279 6.44232 9.04579C6.76472 9.18013 7.03339 9.31446 7.24832 9.58313C7.32892 9.50253 7.38266 9.4488 7.46326 9.3682ZM7.38266 5.33819C7.38266 4.02172 8.43046 2.94705 9.77379 2.94705C11.1171 2.94705 12.1649 3.99485 12.1649 5.33819C12.1649 6.68152 11.1171 7.72933 9.77379 7.72933C8.45732 7.64873 7.38266 6.65466 7.38266 5.33819Z" fill="currentColor"/></svg>