<svg fill="none" xmlns="http://www.w3.org/2000/svg" viewBox="0 0 16 16"><g clip-path="url(#clip0_2554_6793)" stroke="currentColor" stroke-linecap="round" stroke-linejoin="round"><path d="M2.438 14.585c1.78.194 3.643.462 5.562.462 1.92 0 3.783-.266 5.562-.462.549-.06.984-.495 1.044-1.043.19-1.773.44-3.63.44-5.542s-.25-3.77-.44-5.542a1.18 1.18 0 00-1.044-1.043C11.782 1.22 9.92.953 8 .953c-1.029 0-2.043.078-3.037.178a1.131 1.131 0 00-.682.325l-2.826 2.81c-.188.184-.305.43-.332.692C1.03 5.952.954 6.969.954 8c0 1.912.252 3.77.443 5.542.058.548.493.983 1.042 1.043h-.001z"/><path d="M11.534 14.816v-4.343A1.143 1.143 0 0010.39 9.33l-4.782-.002a1.143 1.143 0 00-1.143 1.143v4.345c1.151.126 2.332.23 3.534.23s2.383-.103 3.534-.23zM5.806 1.053v3.419a1.143 1.143 0 001.143 1.143l3.585.002a1.143 1.143 0 001.143-1.143V1.2C10.482 1.066 9.254.953 8 .953c-.74 0-1.472.04-2.194.1z"/></g><defs><clipPath id="clip0_2554_6793"><path fill="currentColor" d="M0 0h16v16H0z"/></clipPath></defs></svg>