<svg fill="none" xmlns="http://www.w3.org/2000/svg" viewBox="0 0 16 16"><path d="M8 4.286v5.143M10.571 6.857H5.43M2.686 14.066c.045.549.474 1.005 1.018.93C5.081 14.809 6.52 13.943 8 12.98c1.48.963 2.918 1.829 4.295 2.018.545.074.974-.383 1.02-.93.152-1.852.358-3.792.358-5.79 0-1.997-.206-3.936-.36-5.788a1.182 1.182 0 00-1.011-1.068C10.922 1.22 9.482.967 8 .967c-1.482 0-2.922.255-4.302.454a1.184 1.184 0 00-1.012 1.068c-.153 1.852-.36 3.791-.36 5.789 0 1.997.207 3.937.36 5.788z" stroke="currentColor" stroke-linecap="round" stroke-linejoin="round"/></svg>