<svg fill="none" xmlns="http://www.w3.org/2000/svg" viewBox="0 0 16 16"><g clip-path="url(#clip0_2554_6847)" stroke="currentColor" stroke-linecap="round" stroke-linejoin="round"><path d="M.91 7.714c0-4.225 1.772-6.036 2.364-6.64h9.452c.592.604 2.363 2.415 2.363 6.64 0 4.828-4.655 6.608-7.017 7.212C5.707 14.322.91 12.542.91 7.713v.001z"/><path d="M6.62 10.826H4.67a.693.693 0 01-.445-.153.533.533 0 01-.2-.38 18.254 18.254 0 01.003-1.946.514.514 0 01.173-.354.662.662 0 01.397-.166c.493-.036.99-.036 1.482 0 .314.021.556.245.57.52.045.826.034 1.654-.03 2.48z"/><path d="M9.295 10.826H6.736a50.48 50.48 0 01-.02-4.411.505.505 0 01.154-.347.648.648 0 01.374-.178 6.259 6.259 0 011.543 0 .648.648 0 01.374.178.505.505 0 01.153.347c.058 1.478.051 2.926-.02 4.411z"/><path d="M11.313 10.826H9.38c-.071-1.498-.077-4.64-.018-6.412a.502.502 0 01.153-.347.644.644 0 01.373-.177 6.259 6.259 0 011.544 0 .643.643 0 01.373.177c.096.096.15.22.152.347.053 1.579.054 4.242.003 5.865a.535.535 0 01-.196.389.696.696 0 01-.451.158z"/></g><defs><clipPath id="clip0_2554_6847"><path fill="currentColor" d="M0 0h16v16H0z"/></clipPath></defs></svg>