<svg fill="none" xmlns="http://www.w3.org/2000/svg" viewBox="0 0 16 16"><g stroke="currentColor" stroke-linecap="round" stroke-linejoin="round"><path d="M7.234 1.93a1.133 1.133 0 00-1.008-.741 30.406 30.406 0 00-3.95.037 1.147 1.147 0 00-1.05 1.02C.84 5.604.711 8.972 1.112 12.335c.137 1.143 1.071 1.971 2.19 2.093 3.156.343 6.268.335 9.425-.009a2.391 2.391 0 002.109-2.083c.249-2.08.315-4.21.16-6.824a2.178 2.178 0 00-1.995-2.044c-1.536-.128-2.604-.134-4.492-.174a1.14 1.14 0 01-1.046-.746l-.229-.617h0z"/><path d="M11.058 9.605c0 .033.01.064.03.09l.425.533a.611.611 0 01.051.688l-.249.43a.611.611 0 01-.62.3l-.676-.103a.146.146 0 00-.093.018l-.8.462a.146.146 0 00-.062.071l-.25.637a.61.61 0 01-.568.388H7.75a.611.611 0 01-.568-.388l-.25-.637a.146.146 0 00-.06-.07l-.802-.463a.145.145 0 00-.092-.018l-.676.103a.612.612 0 01-.62-.3l-.25-.43a.611.611 0 01.052-.688l.426-.534a.142.142 0 00.031-.089v-.924a.142.142 0 00-.029-.09l-.427-.534a.611.611 0 01-.052-.688l.25-.43a.61.61 0 01.62-.3l.674.103a.146.146 0 00.093-.017l.802-.465a.145.145 0 00.062-.072l.25-.634a.61.61 0 01.568-.388h.5a.61.61 0 01.567.388l.25.634c.01.031.032.057.06.074l.801.463a.15.15 0 00.093.017l.676-.103a.611.611 0 01.62.3l.25.43a.611.611 0 01-.052.688l-.427.534a.142.142 0 00-.03.09v.924z"/><path d="M7.29 8.333c-.41.342-.436 1.125-.096 1.524.185.217.495.326.805.325.31 0 .62-.107.804-.324.34-.4.314-1.182-.095-1.524-.183-.154-.446-.23-.71-.23-.262 0-.525.076-.709.23v0z"/></g><defs><clipPath id="clip0_2554_6862"><path fill="currentColor" d="M0 0h16v16H0z"/></clipPath></defs></svg>