<svg viewBox="0 0 17 17" fill="none" xmlns="http://www.w3.org/2000/svg">
<g clip-path="url(#clip0_4415_107159)">
<path fill-rule="evenodd" clip-rule="evenodd" d="M12.6673 3.5294C13.899 4.37692 14.8495 5.5724 15.3967 6.96332C15.9449 8.35328 16.0641 9.87576 15.7399 11.3344C15.4158 12.793 14.6636 14.1219 13.5787 15.1506C13.4519 15.2736 13.3042 15.3737 13.1421 15.4442C12.98 15.5157 12.8065 15.5576 12.6302 15.5672C12.4538 15.5777 12.2765 15.5567 12.1077 15.5043C11.939 15.4528 11.7807 15.3717 11.6396 15.264C11.1801 14.9218 10.6691 14.6558 10.1257 14.4766C9.58138 14.2964 9.01319 14.2049 8.44024 14.2049C7.86728 14.2049 7.29814 14.2964 6.75474 14.4766C6.21134 14.6558 5.6994 14.9218 5.23989 15.264C5.1007 15.3708 4.94435 15.4528 4.77657 15.5052C4.60878 15.5576 4.43337 15.5796 4.25795 15.57C4.08254 15.5615 3.90998 15.5214 3.74887 15.4518C3.58776 15.3822 3.43999 15.285 3.31224 15.1639C2.21972 14.1315 1.46182 12.7949 1.13768 11.3267C0.813548 9.8586 0.938435 8.32754 1.49614 6.93186C2.05384 5.53522 3.01766 4.33879 4.26367 3.49699C5.50968 2.65519 6.97973 2.20617 8.48409 2.20999C9.97892 2.22238 11.4356 2.68284 12.6673 3.5294ZM9.8855 13.1962C10.345 13.0132 10.7626 12.7386 11.1124 12.3897C11.4623 12.0398 11.7369 11.6232 11.9199 11.1637C12.103 10.7052 12.1907 10.2132 12.1773 9.71942C12.1773 8.7289 11.7836 7.77938 11.0829 7.07867C10.3822 6.37797 9.43171 5.98424 8.44024 5.98424C7.44877 5.98424 6.49829 6.37797 5.79759 7.07867C5.09689 7.77938 4.70316 8.7289 4.70316 9.71942C4.68981 10.2132 4.77752 10.7052 4.96056 11.1637C5.1436 11.6232 5.41816 12.0398 5.76804 12.3897C6.11791 12.7386 6.53547 13.0132 6.99403 13.1962C7.45354 13.3793 7.94546 13.467 8.44024 13.4536C8.93407 13.467 9.42599 13.3793 9.8855 13.1962Z" fill="#62D84E"/>
</g>
<defs>
<clipPath id="clip0_4415_107159">
<rect width="16" height="16" fill="white" transform="translate(0.439941 0.891113)"/>
</clipPath>
</defs>
</svg>
