<svg fill="none" xmlns="http://www.w3.org/2000/svg" viewBox="0 0 16 16"><g clip-path="url(#clip0_2554_6870)" stroke="currentColor" stroke-linecap="round" stroke-linejoin="round"><path d="M13.495 8.83c0 .058.02.115.055.16l.762.96a1.096 1.096 0 01.094 1.235l-.448.773a1.096 1.096 0 01-1.114.537l-1.215-.183a.263.263 0 00-.166.03l-1.44.832a.261.261 0 00-.11.128l-.448 1.143a1.097 1.097 0 01-1.02.698H7.55a1.097 1.097 0 01-1.02-.697l-.449-1.143a.26.26 0 00-.11-.13l-1.438-.83a.263.263 0 00-.166-.032l-1.215.185a1.096 1.096 0 01-1.115-.537l-.446-.774a1.097 1.097 0 01.091-1.234l.766-.96a.255.255 0 00.057-.16V7.169a.258.258 0 00-.057-.16l-.766-.96a1.097 1.097 0 01-.091-1.234l.446-.773a1.097 1.097 0 011.115-.537l1.212.183a.263.263 0 00.165-.03l1.443-.835a.262.262 0 00.11-.13l.45-1.138A1.097 1.097 0 017.554.857h.896a1.097 1.097 0 011.02.697l.449 1.14c.02.056.06.103.11.132l1.44.831c.05.029.108.04.165.032l1.214-.185a1.097 1.097 0 011.115.537l.447.774a1.097 1.097 0 01-.092 1.234l-.766.96a.256.256 0 00-.056.16v1.662h-.001z"/><path d="M8 10.281c1.46 0 2.281-.822 2.281-2.281 0-1.46-.822-2.281-2.281-2.281-1.46 0-2.281.822-2.281 2.281 0 1.46.822 2.281 2.281 2.281z"/></g><defs><clipPath id="clip0_2554_6870"><path fill="currentColor" d="M0 0h16v16H0z"/></clipPath></defs></svg>