<svg fill="none" xmlns="http://www.w3.org/2000/svg" viewBox="0 0 16 16"><path d="M1.097 10.32c.09.5.451.966 1.023 1.322.571.356 1.32.58 2.123.638 1.223.086 2.477.158 3.757.158 1.28 0 2.535-.072 3.757-.158.803-.057 1.552-.282 2.123-.638.572-.356.932-.822 1.023-1.322.13-.754.24-1.53.24-2.32 0-.79-.11-1.566-.24-2.321-.09-.5-.451-.965-1.023-1.321-.571-.356-1.32-.581-2.123-.64C10.534 3.636 9.28 3.563 8 3.563c-1.28 0-2.535.072-3.757.158-.803.057-1.552.282-2.123.638-.572.356-.932.822-1.023 1.321C.967 6.434.857 7.21.857 8c0 .791.11 1.566.24 2.32zM6.66 5.85v4.3M9.411 5.85v4.3M12.094 5.85v4.3M3.906 5.85v4.3" stroke="currentColor" stroke-linecap="round" stroke-linejoin="round"/></svg>