<svg fill="none" xmlns="http://www.w3.org/2000/svg" viewBox="0 0 16 16"><g clip-path="url(#clip0_2554_6906)" stroke="currentColor" stroke-linecap="round" stroke-linejoin="round"><path d="M10.075 2.54c.56-.56.649-1.075 1.055-1.593a.786.786 0 011.24 0c.408.518.495 1.032 1.055 1.592.56.56 1.074.647 1.593 1.055a.784.784 0 010 1.24c-.519.408-1.033.494-1.593 1.055-.56.56-.647 1.074-1.054 1.592a.786.786 0 01-1.24 0c-.408-.518-.494-1.032-1.056-1.592-.56-.56-1.074-.647-1.592-1.055a.785.785 0 010-1.24c.518-.408 1.032-.493 1.592-1.055z"/><path d="M6.482 2.736c-.845.02-1.676.093-2.492.18A3.562 3.562 0 00.845 6.072c-.11.98-.168 1.964-.176 2.95 0 1.002.077 1.988.176 2.95a3.561 3.561 0 003.145 3.155c.969.103 1.96.186 2.969.186s2-.083 2.97-.186a3.563 3.563 0 003.145-3.154c.088-.81.144-1.622.17-2.436"/><path d="M6.571 6.001H.851l.029-.27a3.152 3.152 0 012.77-2.778c.905-.108 1.813-.18 2.724-.213M3.936 8.346l1.847 1.848-1.847 1.846M7.853 10.193h2.124"/></g><defs><clipPath id="clip0_2554_6906"><path fill="currentColor" d="M0 0h16v16H0z"/></clipPath></defs></svg>