<svg fill="none" xmlns="http://www.w3.org/2000/svg" viewBox="0 0 16 16"><g clip-path="url(#clip0_2554_6944)" stroke="currentColor" stroke-linecap="round" stroke-linejoin="round"><path d="M3.143 10.286V5.714M8.318 3.429h2.825a2.286 2.286 0 012.286 2.285v4.61M3.143 14.857c1.463 0 2.286-.823 2.286-2.286s-.823-2.285-2.286-2.285-2.286.822-2.286 2.285.823 2.286 2.286 2.286z"/><path d="M12.857 14.857c1.463 0 2.286-.823 2.286-2.286s-.823-2.285-2.286-2.285-2.286.822-2.286 2.285.823 2.286 2.286 2.286zM3.143 5.714c1.463 0 2.286-.823 2.286-2.285 0-1.463-.823-2.286-2.286-2.286S.857 1.966.857 3.429c0 1.462.823 2.285 2.286 2.285zM10.571 1.211c-.915.458-1.83 1.373-2.288 2.288.458.915 1.373 1.831 2.288 2.288"/></g><defs><clipPath id="clip0_2554_6944"><path fill="currentColor" d="M0 0h16v16H0z"/></clipPath></defs></svg>