<svg fill="none" xmlns="http://www.w3.org/2000/svg" viewBox="0 0 16 16"><path d="M4 10.571V5.43M4 5.429c1.463 0 2.286-.823 2.286-2.286S5.463.857 4 .857s-2.286.823-2.286 2.286S2.537 5.429 4 5.429zM4 15.143c1.463 0 2.286-.823 2.286-2.286S5.463 10.571 4 10.571s-2.286.823-2.286 2.286.823 2.286 2.286 2.286zM12 6.286c1.463 0 2.286-.823 2.286-2.286S13.463 1.714 12 1.714 9.714 2.537 9.714 4 10.537 6.286 12 6.286zM4 9.714c0-.38.343-1.143 1.714-1.143h4.572c.571 0 1.714-.228 1.714-1.142V6.286" stroke="currentColor" stroke-linecap="round" stroke-linejoin="round"/></svg>