<svg viewBox="0 0 16 17" fill="none" xmlns="http://www.w3.org/2000/svg"><path d="M6.27366 13.8328H4.33366C3.33366 13.8328 2.45366 13.4995 1.74033 12.7862C1.02699 12.0863 0.666992 11.2263 0.666992 10.2197C0.666992 9.35309 0.926992 8.57981 1.44699 7.89985C1.97366 7.21989 2.66699 6.78658 3.50033 6.59993C3.78033 5.57999 4.33366 4.75338 5.16699 4.12008C6.00033 3.50012 6.94699 3.16681 8.00033 3.16681C9.30033 3.16681 10.407 3.62011 11.307 4.52672C12.2137 5.42667 12.667 6.53327 12.667 7.83319C13.4337 7.91985 14.0737 8.25316 14.5737 8.83312C15.0003 9.31976 15.2403 9.87306 15.307 10.4997H13.9737C13.907 10.1664 13.7603 9.89306 13.5137 9.65307C13.1937 9.32643 12.8003 9.16644 12.3337 9.16644H11.3337V7.83319C11.3337 6.91324 11.0003 6.12662 10.3603 5.47333C9.71366 4.83337 8.92699 4.50006 8.00033 4.50006C7.08033 4.50006 6.29366 4.83337 5.64033 5.47333C5.00033 6.12662 4.66699 6.91324 4.66699 7.83319H4.33366C3.68699 7.83319 3.14033 8.05984 2.68699 8.51981C2.22699 8.97311 2.00033 9.51975 2.00033 10.1664C2.00033 10.813 2.22699 11.3663 2.68699 11.8329C3.14033 12.2796 3.68699 12.4996 4.33366 12.4996H6.00033C6.00033 12.9795 6.10033 13.4262 6.27366 13.8328ZM15.3337 11.8329V13.1662H14.0003V14.4994H12.667V13.1662H11.2003C10.9337 13.9661 10.2003 14.4994 9.33366 14.4994C8.20033 14.4994 7.33366 13.6328 7.33366 12.4996C7.33366 11.3663 8.20033 10.4997 9.33366 10.4997C10.2003 10.4997 10.9337 11.033 11.2003 11.8329H15.3337ZM10.0003 12.4996C10.0003 12.1662 9.73366 11.8329 9.33366 11.8329C8.93366 11.8329 8.66699 12.1662 8.66699 12.4996C8.66699 12.8329 8.93366 13.1662 9.33366 13.1662C9.73366 13.1662 10.0003 12.8329 10.0003 12.4996Z" fill="currentColor"/></svg>