<svg fill="none" xmlns="http://www.w3.org/2000/svg" viewBox="0 0 16 17"><g clip-path="url(#clip0_2567_2403)" stroke="currentColor" stroke-linecap="round" stroke-linejoin="round"><path d="M8 14.216c3.657 0 5.714-2.057 5.714-5.715 0-3.657-2.057-5.714-5.714-5.714-3.657 0-5.714 2.057-5.714 5.714 0 3.658 2.057 5.715 5.714 5.715zM8 2.717V1.072M8 15.93v-1.705M13.736 8.5h1.691M.571 8.5h1.663"/><path d="M4.313 12.456c.572-1.296 2.087-2.138 3.663-2.138 1.575 0 3.091.841 3.663 2.138M8 10.313c1.401 0 2.19-.789 2.19-2.19 0-1.4-.789-2.19-2.19-2.19-1.401 0-2.19.79-2.19 2.19 0 1.401.789 2.19 2.19 2.19z"/></g></svg>