<svg viewBox="0 0 17 16" fill="none" xmlns="http://www.w3.org/2000/svg">
    <g clip-path="url(#clip0_337_19120)">
        <path
            d="M1.17628 11.7351C1.26704 12.5391 1.62749 13.2886 2.19887 13.8614C2.77024 14.4343 3.51883 14.7966 4.32256 14.8894C5.54542 15.0266 6.79914 15.1431 8.07914 15.1431C9.35914 15.1431 10.614 15.0266 11.8357 14.8894C12.6394 14.7966 13.388 14.4343 13.9594 13.8614C14.5308 13.2886 14.8912 12.5391 14.982 11.7351C15.1123 10.5203 15.222 9.27228 15.222 8.00028C15.222 6.72828 15.1123 5.48028 14.982 4.26428C14.8912 3.46031 14.5308 2.7108 13.9594 2.13798C13.388 1.56515 12.6394 1.20279 11.8357 1.10999C10.6128 0.975136 9.35914 0.857422 8.07914 0.857422C6.79914 0.857422 5.54428 0.973993 4.32256 1.11114C3.51883 1.20393 2.77024 1.56629 2.19887 2.13912C1.62749 2.71195 1.26704 3.46145 1.17628 4.26542C1.04599 5.47914 0.936279 6.72714 0.936279 8.00028C0.936279 9.27342 1.04599 10.5203 1.17628 11.7351Z"
            stroke="currentColor" stroke-linecap="round" stroke-linejoin="round" />
        <path
            d="M13.4707 9.19983C13.4536 9.19983 13.4365 9.19983 13.4365 9.18273C13.4365 9.16563 13.4023 9.16563 13.3681 9.16563C13.2997 9.14853 13.2313 9.14853 13.1617 9.14853C13.1275 9.14853 13.0933 9.14853 13.0591 9.13144H13.042C12.8527 9.11434 12.6475 9.08014 12.4582 9.02884C12.4069 9.01174 12.3556 8.96044 12.3385 8.90915L12.2017 8.87495C12.2701 8.37663 12.2359 7.86243 12.1333 7.36412C12.0136 6.8658 11.8072 6.3858 11.5324 5.9571L11.635 5.85451V5.83741C11.635 5.78611 11.6521 5.71771 11.6863 5.68352C11.8402 5.54672 11.9953 5.44291 12.1663 5.34031C12.2005 5.32321 12.2347 5.30611 12.2689 5.28901C12.3373 5.25482 12.3886 5.22062 12.4582 5.18642C12.4753 5.16932 12.4924 5.16932 12.5095 5.15222C12.5266 5.13512 12.5095 5.13512 12.5095 5.11802C12.6634 4.99833 12.6988 4.79192 12.5779 4.63803C12.5266 4.56963 12.424 4.51833 12.3373 4.51833C12.2518 4.51833 12.1651 4.55253 12.0967 4.60383L12.0796 4.62093C12.0625 4.63803 12.0454 4.65513 12.0283 4.65513C11.977 4.70642 11.9257 4.75772 11.8915 4.80902C11.8744 4.84322 11.8402 4.86032 11.8231 4.87741C11.7034 5.01421 11.5483 5.15222 11.3944 5.25482C11.3602 5.27192 11.326 5.28901 11.2918 5.28901C11.2747 5.28901 11.2405 5.28901 11.2234 5.27192H11.2063L11.0695 5.35741C10.9327 5.22062 10.7776 5.0826 10.6408 4.94581C10.0057 4.44749 9.21669 4.13971 8.40936 4.05299L8.39226 3.9162V3.9333C8.34097 3.8991 8.32387 3.8478 8.30677 3.7965C8.30677 3.60719 8.30677 3.4191 8.34097 3.21269V3.19559C8.34097 3.16139 8.35807 3.1272 8.35807 3.093C8.37516 3.0246 8.37517 2.9562 8.39226 2.88659V2.78155C8.40936 2.60934 8.27257 2.43834 8.10036 2.42124C7.99776 2.40415 7.89395 2.45544 7.80845 2.54094C7.74005 2.60934 7.70586 2.69483 7.70586 2.78155V2.86704C7.70586 2.93544 7.72295 3.00384 7.74005 3.07346C7.75715 3.10765 7.75715 3.14185 7.75715 3.17605V3.19315C7.79135 3.38246 7.79135 3.57055 7.79135 3.77696C7.77425 3.82826 7.75715 3.87956 7.70586 3.91376V3.94795L7.68876 4.08475C7.49944 4.10185 7.31135 4.13604 7.10494 4.17024C6.29884 4.34246 5.55991 4.77116 4.99442 5.37207L4.89183 5.30367H4.87473C4.85763 5.30367 4.84053 5.32077 4.80633 5.32077C4.77213 5.32077 4.73793 5.30367 4.70374 5.28657C4.54984 5.16688 4.39473 5.02886 4.27504 4.89207C4.25794 4.85787 4.22374 4.84077 4.20664 4.82367C4.15534 4.77238 4.12114 4.72108 4.06985 4.66978C4.05275 4.65268 4.03565 4.65268 4.01855 4.63558C4.00145 4.61848 4.00145 4.61848 4.00145 4.61848C3.93305 4.56719 3.84756 4.53299 3.76084 4.53299C3.65825 4.53299 3.57153 4.56719 3.52023 4.65268C3.41764 4.80657 3.45183 5.01299 3.58863 5.13268C3.60573 5.13268 3.60573 5.14978 3.60573 5.14978C3.60573 5.14978 3.63992 5.18398 3.65702 5.18398C3.70832 5.21818 3.77672 5.25237 3.84634 5.28657C3.88053 5.30367 3.91473 5.32077 3.94893 5.33787C4.12114 5.44046 4.29213 5.54428 4.42893 5.68107C4.46313 5.71527 4.49732 5.78367 4.48023 5.83497V5.81787L4.58282 5.92046C4.56572 5.95466 4.54862 5.97176 4.53152 6.00596C3.99901 6.84748 3.77672 7.84289 3.93061 8.82121L3.79382 8.85541C3.79382 8.87251 3.77672 8.87251 3.77672 8.87251C3.75962 8.9238 3.70832 8.958 3.65702 8.9922C3.46771 9.0435 3.27962 9.07769 3.07321 9.09479C3.03901 9.09479 3.00481 9.09479 2.97062 9.11189C2.90222 9.11189 2.83382 9.12899 2.7642 9.12899C2.74711 9.12899 2.73001 9.14609 2.69581 9.14609C2.67871 9.14609 2.67871 9.14609 2.66161 9.16319C2.4723 9.19739 2.3526 9.3696 2.3868 9.55769C2.421 9.71158 2.57611 9.8154 2.73001 9.7983C2.7642 9.7983 2.7813 9.7983 2.8155 9.7812C2.8326 9.7812 2.8326 9.7812 2.8326 9.7641C2.8326 9.747 2.8839 9.7641 2.901 9.7641C2.96939 9.747 3.03779 9.71281 3.09031 9.69571C3.12451 9.67861 3.15871 9.66151 3.1929 9.66151H3.21C3.39932 9.59311 3.57031 9.54181 3.77672 9.50762H3.79382C3.84511 9.50762 3.89641 9.52472 3.93061 9.55891C3.94771 9.55891 3.94771 9.57601 3.94771 9.57601L4.1016 9.55891C4.35931 10.3479 4.83931 11.0526 5.50862 11.5668C5.66251 11.6865 5.80052 11.7904 5.97151 11.8758L5.88602 11.9955C5.88602 12.0126 5.90312 12.0126 5.90312 12.0126C5.93732 12.0639 5.93732 12.1323 5.92022 12.1849C5.85182 12.3571 5.748 12.5281 5.64541 12.6832V12.7003C5.62831 12.7345 5.61121 12.7516 5.57701 12.7858C5.54281 12.82 5.50862 12.8884 5.45732 12.958C5.44022 12.9751 5.44022 12.9922 5.42312 13.0093C5.42312 13.0093 5.42312 13.0264 5.40602 13.0264C5.32053 13.1986 5.38892 13.4038 5.54281 13.4893C5.57701 13.5064 5.62831 13.5235 5.66251 13.5235C5.7993 13.5235 5.92022 13.438 5.98861 13.3171C5.98861 13.3171 5.98861 13.3 6.00571 13.3C6.00571 13.2829 6.02281 13.2658 6.03991 13.2487C6.05701 13.1803 6.09121 13.129 6.10831 13.0594L6.14251 12.9568C6.1938 12.7674 6.2793 12.5965 6.36602 12.4242C6.40021 12.3729 6.45151 12.3387 6.50281 12.3216C6.51991 12.3216 6.51991 12.3216 6.51991 12.3045L6.58831 12.1678C7.0683 12.3571 7.56662 12.4426 8.08082 12.4426C8.38982 12.4426 8.69883 12.4084 9.00783 12.3229C9.19715 12.2887 9.38524 12.2203 9.55745 12.169L9.62584 12.2887C9.64294 12.2887 9.64294 12.2887 9.64294 12.3058C9.69424 12.3229 9.74554 12.3571 9.77974 12.4084C9.86523 12.5806 9.95195 12.7516 10.0032 12.9409V12.958L10.0374 13.0606C10.0545 13.129 10.0716 13.1974 10.1058 13.2499C10.1229 13.267 10.1229 13.2841 10.14 13.3012C10.14 13.3012 10.14 13.3183 10.1571 13.3183C10.2255 13.438 10.3465 13.5247 10.4832 13.5247C10.5345 13.5247 10.5687 13.5076 10.62 13.4905C10.6884 13.4563 10.7568 13.3879 10.7739 13.3012C10.791 13.2157 10.791 13.129 10.7568 13.0435C10.7568 13.0264 10.7397 13.0264 10.7397 13.0264C10.7397 13.0093 10.7226 12.9922 10.7055 12.9751C10.6713 12.9067 10.6371 12.8554 10.5858 12.8029C10.5687 12.7687 10.5516 12.7516 10.5174 12.7174V12.6832C10.3977 12.5293 10.311 12.3571 10.2426 12.1849C10.2255 12.1336 10.2255 12.0652 10.2597 12.0126C10.2597 11.9955 10.2768 11.9955 10.2768 11.9955L10.2255 11.8587C11.1013 11.3262 11.7706 10.503 12.0796 9.52472L12.2164 9.54181C12.2335 9.54181 12.2335 9.52472 12.2335 9.52472C12.2677 9.49052 12.319 9.47342 12.3703 9.47342H12.3874C12.5767 9.50762 12.7648 9.55891 12.937 9.62731H12.9541C12.9883 9.64441 13.0225 9.66151 13.0567 9.66151C13.1251 9.69571 13.1764 9.72991 13.246 9.747C13.2631 9.747 13.2802 9.7641 13.3144 9.7641C13.3315 9.7641 13.3315 9.7641 13.3486 9.7812C13.3828 9.7983 13.3999 9.7983 13.4341 9.7983C13.588 9.7983 13.726 9.69571 13.7773 9.55769C13.7626 9.37204 13.6246 9.23403 13.4707 9.19983ZM8.51074 8.66732L8.04784 8.89083L7.58494 8.66732L7.46525 8.169L7.79135 7.7574H8.30677L8.63287 8.169L8.51074 8.66732ZM11.3077 7.55221C11.3932 7.91251 11.4103 8.27281 11.3761 8.63312L9.74554 8.17022C9.59165 8.13602 9.50493 7.98091 9.53913 7.82702C9.55623 7.77572 9.57333 7.74152 9.60752 7.70732L10.8948 6.53969C11.0842 6.8487 11.2222 7.1919 11.3077 7.55221ZM10.3806 5.90458L8.97363 6.9C8.85394 6.96839 8.68173 6.9513 8.59623 6.8316C8.56203 6.7974 8.54494 6.76321 8.54494 6.71191L8.44234 4.97879C9.19714 5.06428 9.86645 5.39039 10.3806 5.90458ZM7.27471 5.02886L7.61792 4.96047L7.53242 6.67649C7.53242 6.83038 7.39563 6.9513 7.24052 6.9513C7.18922 6.9513 7.15502 6.9342 7.10372 6.9171L5.67961 5.90458C6.12419 5.47588 6.6738 5.16688 7.27471 5.02886ZM5.18129 6.53969L6.45151 7.6719C6.57121 7.7745 6.58831 7.94671 6.48571 8.0664C6.45151 8.1177 6.41731 8.1348 6.34892 8.1519L4.68419 8.6319C4.63168 7.91251 4.80267 7.17481 5.18129 6.53969ZM4.88938 9.44044L6.58831 9.14853C6.7251 9.14853 6.86311 9.23403 6.88021 9.37204C6.89731 9.42334 6.89731 9.49174 6.86311 9.54426L6.2109 11.1235C5.60999 10.7278 5.12877 10.1268 4.88938 9.44044ZM8.78554 11.5681C8.54494 11.6194 8.30555 11.6536 8.04784 11.6536C7.68754 11.6536 7.31013 11.5852 6.96693 11.4813L7.80845 9.95342C7.89395 9.85082 8.03196 9.81662 8.15165 9.88502C8.20295 9.91922 8.23715 9.95342 8.28845 10.0047L9.11287 11.4984C9.00783 11.5168 8.90524 11.5339 8.78554 11.5681ZM10.879 10.0756C10.6213 10.4872 10.261 10.8475 9.84936 11.1052L9.18005 9.49174C9.14585 9.35495 9.21424 9.21693 9.33394 9.16563C9.38524 9.14853 9.43653 9.13144 9.48783 9.13144L11.2039 9.42334C11.1196 9.66273 11.0158 9.88624 10.879 10.0756Z"
            fill="currentColor" />
    </g>
</svg>