<svg viewBox="0 0 16 16" fill="none" xmlns="http://www.w3.org/2000/svg">
<g>
<path d="M12.5564 6.16685L13.1038 6.08342C13.6705 5.99696 14.1874 5.71034 14.561 5.2755C14.9345 4.84066 15.1399 4.28638 15.1399 3.71314C15.1399 3.13989 14.9345 2.58562 14.561 2.15078C14.1874 1.71594 13.6705 1.42931 13.1038 1.34285L12.5564 1.25942C9.53464 0.802279 6.46265 0.802279 3.44093 1.25942L2.8935 1.34285C2.32681 1.42931 1.80986 1.71594 1.43633 2.15078C1.0628 2.58562 0.857422 3.13989 0.857422 3.71314C0.857422 4.28638 1.0628 4.84066 1.43633 5.2755C1.80986 5.71034 2.32681 5.99696 2.8935 6.08342L3.44093 6.16685C6.46265 6.62399 9.53464 6.62399 12.5564 6.16685Z" stroke="currentColor" stroke-linecap="round" stroke-linejoin="round"/>
<path d="M10.3449 3.71313C10.335 4.03439 10.3897 4.35436 10.5058 4.65407C10.6219 4.95378 10.797 5.22711 11.0207 5.45786C11.2444 5.68861 11.5122 5.87207 11.8082 5.99735C12.1042 6.12263 12.4223 6.18719 12.7438 6.18719C13.0652 6.18719 13.3833 6.12263 13.6793 5.99735C13.9753 5.87207 14.2431 5.68861 14.4668 5.45786C14.6905 5.22711 14.8656 4.95378 14.9817 4.65407C15.0978 4.35436 15.1525 4.03439 15.1426 3.71313C15.1234 3.08974 14.8622 2.49831 14.4144 2.06415C13.9666 1.62999 13.3674 1.38719 12.7438 1.38719C12.1201 1.38719 11.5209 1.62999 11.0731 2.06415C10.6253 2.49831 10.3641 3.08974 10.3449 3.71313Z" stroke="currentColor" stroke-linecap="round" stroke-linejoin="round"/>
<path d="M3.44093 9.83314L2.8935 9.91657C2.32681 10.003 1.80986 10.2897 1.43633 10.7245C1.0628 11.1593 0.857422 11.7136 0.857422 12.2869C0.857422 12.8601 1.0628 13.4144 1.43633 13.8492C1.80986 14.2841 2.32681 14.5707 2.8935 14.6571L3.44093 14.7406C6.46265 15.1977 9.53464 15.1977 12.5564 14.7406L13.1038 14.6571C13.6705 14.5707 14.1874 14.2841 14.561 13.8492C14.9345 13.4144 15.1399 12.8601 15.1399 12.2869C15.1399 11.7136 14.9345 11.1593 14.561 10.7245C14.1874 10.2897 13.6705 10.003 13.1038 9.91657L12.5564 9.83314C9.53464 9.37599 6.46265 9.37599 3.44093 9.83314Z" stroke="currentColor" stroke-linecap="round" stroke-linejoin="round"/>
<path d="M0.856612 12.288C0.846694 12.6092 0.901404 12.9292 1.0175 13.2289C1.13359 13.5286 1.30869 13.802 1.53243 14.0327C1.75616 14.2635 2.02397 14.4469 2.31995 14.5722C2.61593 14.6975 2.93406 14.7621 3.25547 14.7621C3.57687 14.7621 3.89501 14.6975 4.19099 14.5722C4.48697 14.4469 4.75477 14.2635 4.97851 14.0327C5.20224 13.802 5.37735 13.5286 5.49344 13.2289C5.60953 12.9292 5.66424 12.6092 5.65433 12.288C5.63508 11.6646 5.37391 11.0732 4.92614 10.639C4.47836 10.2048 3.87916 9.96205 3.25547 9.96205C2.63177 9.96205 2.03257 10.2048 1.5848 10.639C1.13703 11.0732 0.875857 11.6646 0.856612 12.288Z" stroke="currentColor" stroke-linecap="round" stroke-linejoin="round"/>
</g>
</svg>
