<svg fill="none" xmlns="http://www.w3.org/2000/svg" viewBox="0 0 16 16"><g clip-path="url(#clip0_2554_6990)"><path d="M13.691 4.733a1.714 1.714 0 01-2.422-2.424c.185-.187.236-.503.051-.687l-.087-.087c-.891-.892-1.769-.892-3.232 0l-.483.338a22.857 22.857 0 00-5.644 5.644L1.534 8c-.89 1.463-.89 2.34 0 3.232l.087.087c.186.185.502.134.688-.052a1.714 1.714 0 112.422 2.425c-.185.185-.236.502-.051.688l.087.085c.891.892 1.769.892 3.232 0l.483-.338a22.862 22.862 0 005.644-5.644l.34-.483c.89-1.463.89-2.34 0-3.232l-.086-.087c-.187-.185-.503-.134-.689.052z" stroke="currentColor" stroke-linecap="round" stroke-linejoin="round"/></g><defs><clipPath id="clip0_2554_6990"><path fill="currentColor" d="M0 0h16v16H0z"/></clipPath></defs></svg>