<svg viewBox="0 0 16 16" fill="none" xmlns="http://www.w3.org/2000/svg"><g clip-path="url(#clip0_568_112744)"><path d="M11.2299 5.55773C11.2086 4.41829 11.1571 3.2796 11.0756 2.14288C11.0593 1.9112 10.9647 1.69197 10.8072 1.52123C10.6498 1.3505 10.4389 1.23843 10.2093 1.20345C8.7602 0.982877 7.56363 0.868591 6.1202 0.868591C4.67792 0.868591 3.4802 0.982877 2.0322 1.20231C1.8024 1.23705 1.59127 1.34902 1.4336 1.51977C1.27593 1.69053 1.18112 1.90989 1.16477 2.14173C0.946226 5.15106 0.94508 8.17224 1.16135 11.1817C1.19563 11.6834 1.5922 12.0846 2.09392 12.1269C3.24959 12.2255 4.40843 12.2827 5.5682 12.2983" stroke="currentColor" stroke-linecap="round" stroke-linejoin="round"/><path d="M3.64453 4.22742H8.0011" stroke="currentColor" stroke-linecap="round" stroke-linejoin="round"/><path d="M3.64453 7.38861H6.2731" stroke="currentColor" stroke-linecap="round" stroke-linejoin="round"/><path d="M9.92473 9.96635C10.4847 9.40635 10.5716 8.89207 10.9796 8.37435C11.053 8.27988 11.147 8.20344 11.2544 8.15085C11.3619 8.09826 11.48 8.07092 11.5996 8.07092C11.7192 8.07092 11.8373 8.09826 11.9447 8.15085C12.0522 8.20344 12.1462 8.27988 12.2196 8.37435C12.6264 8.89207 12.7133 9.40635 13.2744 9.96635C13.8344 10.5264 14.3487 10.6144 14.8664 11.0212C14.9609 11.0946 15.0374 11.1886 15.0899 11.2961C15.1425 11.4035 15.1699 11.5216 15.1699 11.6412C15.1699 11.7608 15.1425 11.8789 15.0899 11.9863C15.0374 12.0938 14.9609 12.1878 14.8664 12.2612C14.3487 12.6692 13.8344 12.7561 13.2744 13.3161C12.7144 13.8761 12.6264 14.3904 12.2196 14.9081C12.1462 15.0025 12.0522 15.079 11.9447 15.1316C11.8373 15.1842 11.7192 15.2115 11.5996 15.2115C11.48 15.2115 11.3619 15.1842 11.2544 15.1316C11.147 15.079 11.053 15.0025 10.9796 14.9081C10.5716 14.3915 10.4847 13.8772 9.92473 13.3172C9.36473 12.7572 8.85044 12.6704 8.33272 12.2624C8.23826 12.189 8.16181 12.0949 8.10922 11.9875C8.05663 11.88 8.0293 11.762 8.0293 11.6424C8.0293 11.5227 8.05663 11.4047 8.10922 11.2972C8.16181 11.1898 8.23826 11.0957 8.33272 11.0224C8.85044 10.6144 9.36473 10.5275 9.92473 9.96635Z" stroke="currentColor" stroke-linecap="round" stroke-linejoin="round"/></g><defs><clipPath id="clip0_568_112744"><rect width="16" height="16" fill="currentColor"/></clipPath></defs></svg>