<svg fill="none" xmlns="http://www.w3.org/2000/svg" viewBox="0 0 16 16"><g clip-path="url(#clip0_2554_7001)" stroke="currentColor" stroke-linecap="round" stroke-linejoin="round"><path d="M8 5.429c1.463 0 2.286-.823 2.286-2.286S9.463.857 8 .857s-2.286.823-2.286 2.286S6.537 5.429 8 5.429zM3.429 15.143c1.462 0 2.285-.823 2.285-2.286s-.823-2.286-2.285-2.286c-1.463 0-2.286.823-2.286 2.286s.823 2.286 2.286 2.286zM12.571 15.143c1.463 0 2.286-.823 2.286-2.286s-.823-2.286-2.286-2.286-2.285.823-2.285 2.286.822 2.286 2.285 2.286zM3.429 10.571c0-.571.342-1.714 1.714-1.714h1.143c.571 0 1.714-.8 1.714-1.714V5.429M12.571 10.571c0-.571-.342-1.714-1.714-1.714H9.714C9.143 8.857 8 8.057 8 7.143V5.429"/></g><defs><clipPath id="clip0_2554_7001"><path fill="currentColor" d="M0 0h16v16H0z"/></clipPath></defs></svg>