<svg fill="none" xmlns="http://www.w3.org/2000/svg" viewBox="0 0 16 16"><g clip-path="url(#clip0_2554_7010)" stroke="currentColor" stroke-linecap="round" stroke-linejoin="round"><path d="M5.893.949v14.103M15.047 5.774H.953M.953 10.226h6.049M8 15.143c-1.28 0-2.534-.117-3.757-.254a3.58 3.58 0 01-3.146-3.154C.967 10.52.857 9.273.857 8c0-1.273.11-2.521.24-3.735a3.58 3.58 0 013.146-3.154C5.465.974 6.72.857 8 .857c1.28 0 2.534.118 3.757.253a3.58 3.58 0 013.146 3.154c.13 1.216.24 2.464.24 3.736M11.774 11.714l.857-.857"/><path d="M11.744 15.143c2.175 0 3.399-1.223 3.399-3.399 0-2.175-1.223-3.398-3.399-3.398-2.175 0-3.399 1.223-3.399 3.398s1.223 3.399 3.399 3.399z"/></g><defs><clipPath id="clip0_2554_7010"><path fill="currentColor" d="M0 0h16v16H0z"/></clipPath></defs></svg>