<svg xmlns="http://www.w3.org/2000/svg" fill="none" viewBox="0 0 16 16"><g clip-path="url(#a)"><path stroke="currentColor" stroke-linecap="round" stroke-linejoin="round" d="M6.114 13.24H2.837c-1.747 0-2.728-1.867-1.275-2.835a8.188 8.188 0 0 1 4.779-1.372m8.425 2.937c0 .03.011.06.03.084l.397.502a.573.573 0 0 1 .05.645l-.234.405a.575.575 0 0 1-.583.28l-.635-.096a.137.137 0 0 0-.088.017l-.752.434a.137.137 0 0 0-.057.068l-.235.597a.573.573 0 0 1-.533.365h-.469a.572.572 0 0 1-.532-.366l-.235-.596a.138.138 0 0 0-.057-.069l-.753-.434a.137.137 0 0 0-.087-.016l-.635.097a.574.574 0 0 1-.583-.281l-.233-.405a.574.574 0 0 1 .048-.646l.4-.502a.134.134 0 0 0 .03-.083v-.868c0-.03-.01-.06-.03-.084l-.4-.503a.574.574 0 0 1-.048-.644l.233-.405a.574.574 0 0 1 .583-.28l.634.095c.03.005.06-.001.087-.016l.754-.436a.138.138 0 0 0 .057-.069l.236-.594a.574.574 0 0 1 .533-.366h.469a.574.574 0 0 1 .534.366l.234.594c.01.03.03.054.057.07l.752.435a.14.14 0 0 0 .087.016l.635-.096a.575.575 0 0 1 .583.281l.235.405a.574.574 0 0 1-.05.644l-.4.503a.134.134 0 0 0-.028.084l-.001.868Z"/><path stroke="currentColor" stroke-linecap="round" stroke-linejoin="round" d="M11.893 10.965a.614.614 0 0 0-.389.125c-.226.189-.24.619-.054.838a.582.582 0 0 0 .443.18m0-1.143c.14-.004.277.04.39.125.224.189.24.619.052.838a.582.582 0 0 1-.442.18M6.117 6.8c1.902 0 2.971-1.069 2.971-2.971 0-1.902-1.069-2.972-2.971-2.972-1.902 0-2.972 1.07-2.972 2.972S4.215 6.8 6.117 6.8Z"/></g><defs><clipPath id="a"><path fill="currentColor" d="M0 0h16v16H0z"/></clipPath></defs></svg>