<svg fill="none" xmlns="http://www.w3.org/2000/svg" viewBox="0 0 16 16"><path d="M10.78 11.348c1.508 1.006.49 2.943-1.323 2.943H2.65c-1.812 0-2.83-1.938-1.322-2.943a8.499 8.499 0 014.727-1.426c1.748 0 3.372.526 4.725 1.426z" stroke="currentColor" stroke-linecap="round" stroke-linejoin="round"/><path d="M9.194 14.291h4.316c1.672 0 2.612-1.787 1.22-2.714a7.86 7.86 0 00-1.22-.666M6.056 7.878c1.974 0 3.085-1.111 3.085-3.086 0-1.974-1.111-3.083-3.086-3.083-1.974 0-3.084 1.11-3.084 3.084s1.11 3.085 3.085 3.085zM11.154 2.841c1.625.096 2.534 1.09 2.534 2.79 0 1.703-.909 2.697-2.534 2.792" stroke="currentColor" stroke-linecap="round" stroke-linejoin="round"/></svg>