<svg fill="none" xmlns="http://www.w3.org/2000/svg" viewBox="0 0 16 17"><path d="M.911 8.214c0-4.225 1.772-6.036 2.364-6.64h9.451c.592.604 2.364 2.415 2.364 6.64 0 4.828-4.655 6.608-7.018 7.212C5.708 14.822.91 13.042.91 8.213l.001.001z" stroke="currentColor" stroke-linecap="round" stroke-linejoin="round"/><path d="M9.669 7.18v-.91a1.819 1.819 0 10-3.638 0v.91" stroke="currentColor" stroke-linecap="round" stroke-linejoin="round"/><path d="M4.928 10.678a.594.594 0 00.54.497c.763.058 1.561.134 2.382.134.821 0 1.62-.076 2.383-.134a.594.594 0 00.539-.497c.078-.474.165-.967.165-1.472 0-.506-.087-.999-.165-1.473a.594.594 0 00-.54-.497c-.763-.057-1.56-.134-2.382-.134-.82 0-1.619.077-2.382.134a.594.594 0 00-.54.497c-.077.474-.164.967-.164 1.473 0 .505.087.998.164 1.472z" stroke="currentColor" stroke-linecap="round" stroke-linejoin="round"/></svg>