<svg fill="none" xmlns="http://www.w3.org/2000/svg" viewBox="0 0 16 16"><g clip-path="url(#clip0_2554_7102)" stroke="currentColor" stroke-linecap="round" stroke-linejoin="round"><path d="M1.143 8c0-4 1.714-5.714 2.286-6.286C4 2.286 6.17 3.43 8 1.143c1.829 2.286 4 1.143 4.571.571C13.143 2.286 14.857 4 14.857 8c0 4.571-4.571 6.286-6.857 6.857C5.714 14.286 1.143 12.571 1.143 8z"/><path d="M7.576 5.131a.457.457 0 01.846 0L9.066 6.7l1.741.153a.457.457 0 01.25.81l-1.062.873a.457.457 0 00-.157.45l.348 1.613a.457.457 0 01-.702.476l-1.485-.992-1.483.992a.456.456 0 01-.702-.476l.348-1.612a.457.457 0 00-.157-.451l-1.063-.873a.457.457 0 01.252-.81l1.74-.153.642-1.568z"/></g><defs><clipPath id="clip0_2554_7102"><path fill="currentColor" d="M0 0h16v16H0z"/></clipPath></defs></svg>