<svg fill="none" xmlns="http://www.w3.org/2000/svg" viewBox="0 0 16 16"><g clip-path="url(#clip0_2554_7108)" stroke="currentColor" stroke-linecap="round" stroke-linejoin="round"><path d="M.91 7.714c0-4.225 1.772-6.036 2.364-6.64h9.452c.592.604 2.363 2.415 2.363 6.64 0 4.828-4.655 6.608-7.017 7.212C5.707 14.322.91 12.542.91 7.713v.001z"/><path d="M8 10.766c1.737 0 2.715-.979 2.715-2.717 0-1.74-.978-2.716-2.716-2.716-1.738 0-2.717.977-2.717 2.716 0 1.737.979 2.716 2.717 2.716h0zM10.394 6.56a2.088 2.088 0 011.589-.725M10.715 7.855h1.267M4.018 7.855h1.266M5.606 6.56a2.088 2.088 0 00-1.589-.725M10.394 9.531a2.088 2.088 0 001.589.724M5.606 9.531a2.089 2.089 0 01-1.589.724"/><path d="M8.897 5.435c.23-.172.423-.423.557-.723.133-.3.203-.642.203-.99M7.093 5.435a1.811 1.811 0 01-.557-.723 2.456 2.456 0 01-.205-.99"/></g><defs><clipPath id="clip0_2554_7108"><path fill="currentColor" d="M0 0h16v16H0z"/></clipPath></defs></svg>