<svg fill="none" xmlns="http://www.w3.org/2000/svg" viewBox="0 0 16 17"><g clip-path="url(#clip0_2567_1396)" stroke="currentColor" stroke-linecap="round" stroke-linejoin="round"><path d="M5.579 15.525c-.446-.04-.89-.085-1.335-.136a3.58 3.58 0 01-3.147-3.154C.967 11.02.857 9.773.857 8.5c0-1.273.11-2.52.24-3.736A3.58 3.58 0 014.244 1.61C5.467 1.475 6.72 1.357 8 1.357c1.28 0 2.535.117 3.757.254a3.58 3.58 0 013.146 3.154c.069.632.13 1.272.174 1.92"/><path d="M14.935 5.071H1.065l.032-.307A3.58 3.58 0 014.244 1.61C5.467 1.475 6.72 1.357 8 1.357c1.28 0 2.535.117 3.757.254a3.58 3.58 0 013.146 3.154c.012.102.023.204.032.306zM8.492 15.643c.631-.318.865-.574 1.113-1.114m4.886 1.114c-.632-.318-.866-.574-1.115-1.114M8.492 9.643c.631.319.865.573 1.113 1.114m4.886-1.114c-.632.319-.866.573-1.115 1.114M9.35 12.643H7.91"/><path d="M9.349 11.786a2.143 2.143 0 114.286 0V13.5a2.143 2.143 0 01-4.286 0v-1.714zm4.285.857h1.443"/></g><defs><clipPath id="clip0_2567_1396"><path fill="currentColor" transform="translate(0 .5)" d="M0 0h16v16H0z"/></clipPath></defs></svg>