<svg fill="none" xmlns="http://www.w3.org/2000/svg" viewBox="0 0 16 16"><g clip-path="url(#clip0_2554_7129)" stroke="currentColor" stroke-linecap="round" stroke-linejoin="round"><path d="M9.662 5.041a1.374 1.374 0 001.209 1.213c.47.052.953.098 1.445.098.492 0 .975-.046 1.445-.098a1.375 1.375 0 001.21-1.213c.05-.468.092-.947.092-1.436 0-.49-.043-.97-.092-1.437a1.379 1.379 0 00-1.21-1.214c-.48-.059-.961-.091-1.444-.097-.493 0-.975.046-1.446.097-.633.071-1.143.58-1.21 1.214-.05.467-.092.947-.092 1.437 0 .489.042.969.092 1.436h0zM1.029 5.041A1.376 1.376 0 002.24 6.254c.469.052.952.098 1.443.098.493 0 .975-.046 1.446-.098A1.375 1.375 0 006.34 5.04c.05-.468.092-.947.092-1.436 0-.49-.042-.97-.092-1.437A1.378 1.378 0 005.128.954C4.649.895 4.168.863 3.685.857c-.492 0-.975.046-1.445.097-.634.071-1.143.58-1.211 1.214-.05.467-.092.947-.092 1.437 0 .489.042.969.092 1.436zM1.029 13.832a1.379 1.379 0 001.211 1.214c.479.059.96.091 1.443.097.493 0 .975-.046 1.446-.097a1.377 1.377 0 001.21-1.214c.05-.468.092-.948.092-1.437 0-.489-.042-.969-.092-1.436a1.376 1.376 0 00-1.211-1.213 13.01 13.01 0 00-1.445-.098c-.491 0-.974.046-1.444.098-.633.07-1.143.58-1.21 1.213-.05.468-.092.947-.092 1.436 0 .49.042.97.092 1.437zM9.662 13.832a1.376 1.376 0 001.209 1.214c.47.052.953.097 1.445.097.492 0 .975-.046 1.445-.097a1.378 1.378 0 001.21-1.214c.05-.468.092-.948.092-1.437 0-.489-.043-.969-.092-1.436a1.376 1.376 0 00-1.21-1.213 13.01 13.01 0 00-1.444-.098c-.493 0-.975.046-1.446.098-.633.07-1.143.58-1.21 1.213-.05.468-.092.947-.092 1.436 0 .49.042.97.092 1.437h0z"/></g><defs><clipPath id="clip0_2554_7129"><path fill="currentColor" d="M0 0h16v16H0z"/></clipPath></defs></svg>