<svg xmlns="http://www.w3.org/2000/svg" viewBox="0 0 16 17" fill="none">
  <g clip-path="url(#clip0_4410_4416)">
    <path d="M0.326585 13.3385C0.302365 13.3207 0.294397 13.288 0.307522 13.261L2.21643 9.32959L0.0145534 6.70004C-0.00763411 6.67364 -0.00404036 6.63412 0.0225221 6.61209L6.4447 1.26037C7.58737 0.307867 9.24175 0.280992 10.4157 1.19521C11.5891 2.10943 11.9641 3.71724 11.3149 5.05427L10.615 6.49599C10.888 6.40442 11.1582 6.32114 11.4253 6.24629L14.5938 5.33614C14.6283 5.32614 14.6643 5.34739 14.6721 5.38254L15.9985 11.2788C16.0066 11.3152 15.9819 11.3508 15.9447 11.3555C15.5243 11.4085 13.2303 11.738 10.3744 12.9379C7.13863 14.2969 5.0033 16.2285 4.7008 16.511C4.67845 16.5319 4.64565 16.5327 4.62113 16.5146L0.326585 13.3385Z" fill="url(#paint0_linear_4410_4416)"/>
    <path d="M13 3.52734H3V13.5273H13V3.52734Z" fill="black"/>
    <path d="M5.36665 7.12007L3.99463 4.77539H4.78245L5.63198 6.27337L5.7312 6.48774L5.8304 6.27069L6.65838 4.77539H7.43275L6.08213 7.11477V8.52694H5.36665V7.12007Z" fill="white"/>
    <path d="M8.25 11.5269H4.25V12.2769H8.25V11.5269Z" fill="white"/>
    <path d="M10.5812 4.77539H7.57193L7.57178 5.43462H8.71333V8.52694H9.4449V5.43462H10.5812V4.77539Z" fill="white"/>
  </g>
  <defs>
    <linearGradient id="paint0_linear_4410_4416" x1="-0.0256029" y1="8.52739" x2="16.0133" y2="8.52739" gradientUnits="userSpaceOnUse">
      <stop stop-color="#FB43FF"/>
      <stop offset="0.97" stop-color="#FB406D"/>
    </linearGradient>
    <clipPath id="clip0_4410_4416">
      <rect width="16" height="16" fill="white" transform="translate(0 0.527344)"/>
    </clipPath>
  </defs>
</svg>